<svg id="Layer_1" enable-background="new 0 0 512.048 512.048" height="512" viewBox="0 0 512.048 512.048" width="512" xmlns="http://www.w3.org/2000/svg"><path d="m243.272 284.471c-1.909-3.984-6.687-5.665-10.672-3.756-19.832 9.506-34.715 2.178-41.823-3.036-9.095-6.674-18.104-.414-19.696-.083-4.08 1.696-6.013 6.378-4.318 10.458 1.696 4.08 6.377 6.012 10.458 4.318l4.171-1.733c16.438 12.01 37.447 14.416 58.124 4.505 3.984-1.911 5.666-6.689 3.756-10.673z"/><path d="m334.54 292.371c4.079 1.695 8.762-.238 10.458-4.318 1.695-4.08-.238-8.762-4.318-10.458-1.616-.336-10.641-6.56-19.696.083-7.108 5.214-21.991 12.542-41.823 3.036-3.986-1.911-8.763-.228-10.672 3.756-1.91 3.984-.229 8.762 3.756 10.672 20.652 9.9 41.668 7.518 58.124-4.505z"/><path d="m280.071 415.505h-48.38c-14.314 0-21.285 17.53-10.878 27.361 19.662 18.574 50.471 18.577 70.135 0 10.407-9.83 3.439-27.361-10.877-27.361zm-47.978 16h47.579c-13.405 12.385-34.125 12.396-47.579 0z"/><path d="m157.557 223.603c2.437-1.987 5.791-4.993 11.312-8.967 3.586-2.581 4.4-7.581 1.819-11.167s-7.58-4.4-11.167-1.819c-6.151 4.428-10.041 7.897-12.204 9.658-3.395 2.828-3.854 7.872-1.027 11.267 2.837 3.406 7.882 3.847 11.267 1.028z"/><path d="m188.25 202.017c1.139 0 2.296-.245 3.396-.761 7.932-3.726 16.297-6.771 24.866-9.051 4.27-1.137 6.81-5.519 5.673-9.789s-5.521-6.807-9.789-5.673c-9.489 2.526-18.759 5.901-27.552 10.031-7.713 3.622-5.112 15.243 3.406 15.243z"/><path d="m295.246 192.204c8.569 2.28 16.935 5.325 24.865 9.05 1.1.516 2.256.761 3.396.761 8.522 0 11.116-11.622 3.406-15.243-8.792-4.129-18.062-7.504-27.551-10.029-4.267-1.135-8.652 1.403-9.789 5.673s1.404 8.652 5.673 9.788z"/><path d="m242.62 187.648c8.81-.76 17.697-.76 26.519 0 4.405.387 8.278-2.881 8.658-7.283s-2.881-8.278-7.283-8.658c-9.724-.839-19.533-.841-29.27 0-4.402.38-7.662 4.256-7.282 8.658.381 4.42 4.28 7.667 8.658 7.283z"/><path d="m342.893 214.636c5.538 3.986 8.918 7.015 11.311 8.966 3.379 2.816 8.427 2.383 11.267-1.026 2.828-3.395 2.369-8.439-1.026-11.267-2.338-1.905-6.115-5.276-12.205-9.659-3.587-2.582-8.586-1.767-11.167 1.819s-1.766 8.586 1.82 11.167z"/><path d="m147.566 340.124c4.243-1.233 6.683-5.671 5.45-9.915-2.519-8.668-3.509-14.068-3.536-14.213-.776-4.347-4.928-7.243-9.277-6.469-4.35.774-7.249 4.928-6.474 9.278.044.25 1.12 6.223 3.923 15.869 1.234 4.25 5.68 6.681 9.914 5.45z"/><path d="m168.547 370.264c-3.125-6.4-6.026-13.032-8.62-19.712-1.599-4.118-6.233-6.161-10.354-4.562-4.119 1.6-6.161 6.235-4.562 10.354 2.755 7.095 5.836 14.141 9.158 20.942 1.933 3.958 6.717 5.623 10.699 3.678 3.972-1.94 5.618-6.73 3.679-10.7z"/><path d="m178.808 389.146c-2.279-3.786-7.196-5.005-10.98-2.727-3.785 2.279-5.006 7.195-2.727 10.98 2.766 4.594 5.693 9.119 8.701 13.449 2.523 3.634 7.511 4.524 11.134 2.008 3.629-2.52 4.528-7.505 2.008-11.134-2.811-4.048-5.548-8.279-8.136-12.576z"/><path d="m371.565 309.532c-4.342-.778-8.501 2.116-9.284 6.462-.01.054-.996 5.472-3.536 14.215-1.233 4.243 1.207 8.682 5.45 9.915 4.234 1.231 8.68-1.199 9.915-5.45 2.803-9.646 3.878-15.62 3.923-15.869.773-4.346-2.122-8.495-6.468-9.273z"/><path d="m362.187 345.99c-4.121-1.6-8.754.442-10.354 4.562-2.594 6.68-5.494 13.312-8.62 19.712-1.939 3.97-.292 8.76 3.678 10.699 3.985 1.947 8.768.276 10.699-3.678 3.321-6.801 6.402-13.847 9.158-20.942 1.6-4.118-.442-8.753-4.561-10.353z"/><path d="m343.933 386.419c-3.784-2.278-8.701-1.057-10.98 2.727-2.588 4.297-5.325 8.529-8.135 12.576-2.521 3.629-1.622 8.614 2.008 11.134 3.621 2.515 8.609 1.629 11.134-2.008 3.007-4.331 5.935-8.855 8.701-13.449 2.279-3.785 1.057-8.701-2.728-10.98z"/><path d="m415.33 74.025c-64.138-83.032-157.417-73.289-160.534-73.977h-7.919c-104.765 0-189.997 85.25-189.997 190.037.706 6.213-5.044 52.317 25.781 102.085 1.74 2.809 5.165 4.43 8.749 3.528 12.41 86.878 77.993 216.349 164.47 216.349 85.279 0 150.039-125.623 163.829-212.109 50.061-65.766 45.807-160.944-4.379-225.913zm-205.771 53.347c19.016-14.368 39.283-30.368 57.242-46.04 43.903-.272 92.67 19.299 125.975 57.994 19.552 22.716 34.066 51.751 43.179 86.294-2.679 13.643-7.159 26.908-13.324 39.377-.561-109.41-108.049-159.364-213.072-137.625zm229.219 56.913c-30.531-71.819-88.997-111.337-155.257-118.115 21.17-20.059 30.886-33.188 35.051-41.652 67.441 21.927 117.77 84.244 120.206 159.767zm-365.862 19.963c10.002-24.047 26.693-46.138 51.017-67.478 3.321-2.914 3.652-7.968.738-11.29-2.914-3.321-7.968-3.651-11.29-.738-15.994 14.032-28.966 28.444-39.138 43.537 10.55-83.779 80.807-149.419 167.096-152.133-17.401 27.816-49.244 52.956-76.481 71.089-3.678 2.449-4.674 7.415-2.226 11.093 2.45 3.679 7.416 4.674 11.093 2.226 31.525-20.991 68.736-50.715 86.085-84.505 13.791 0 26.001.381 42.949 4.145-25.915 43.381-103.556 89.488-141.177 127.738-32.63 33.145-58.49 73.654-74.153 119.452-9.195-19.757-14.15-41.245-14.513-63.136zm182.965 291.8c-81.976 0-151.742-147.978-150.75-230.579 15.052-40.382 39.629-78.969 73.173-111.534 82.933-36.672 228.33-11.054 228.33 111.931-.001 83.108-68.546 230.182-150.753 230.182z"/><path d="m142.571 119.808c3.692 0 7.091-2.624 7.84-6.44.866-4.501-2.099-8.589-6.28-9.41-4.852-.989-9.56 2.733-9.56 7.84 0 4.479 3.641 8.01 8 8.01z"/></svg>