<svg id="Layer_1" enable-background="new 0 0 511.568 511.568" height="512" viewBox="0 0 511.568 511.568" width="512" xmlns="http://www.w3.org/2000/svg"><path d="m282.464 437.406-3.644 1.704c-26.569 12.421-48.373-1.376-49.715-1.704-4.003-1.869-8.764-.142-10.635 3.86s-.143 8.764 3.86 10.635c2.173.779 14.558 8.346 33.455 8.346 18.52 0 31.743-7.732 33.455-8.346 4.002-1.871 5.73-6.633 3.86-10.635-1.873-4.002-6.632-5.729-10.636-3.86z"/><path d="m431.763 239.569v-9.088c4.203-5.883 33.106-48.151 28.533-91.47-11.973-113.448-170.332-166.389-291.95-125.024-68.475 23.289-111.147 68.858-117.074 125.023-4.824 45.7 27.614 90.238 28.997 92.111.971 1.315.681-1.505.681 16.93-27.633 17.788-27.567 57.961 0 75.707v15.184c0 15.61 12.423 28.365 27.897 28.909 2.573 45.163 21.381 87.319 53.521 119.529 15.563 15.598 36.266 24.188 58.295 24.188h70.242c22.029 0 42.732-8.59 58.295-24.188 32.148-32.219 50.945-74.354 53.519-119.506 15.987.073 29.044-12.925 29.044-28.932v-25.176c26.106-17.949 26.051-56.286 0-74.197zm-364.58-98.879c5.944-56.325 52.432-93.229 106.316-111.555 113.748-38.686 260.217 10.465 270.886 111.555 3.028 28.69-11.921 58.241-20.415 72.38-15.891-16.937-35.905-31.09-55.924-41.35 14.324-10.953 21.967-23 25.987-31.983 1.805-4.033-.001-8.765-4.034-10.57-4.031-1.805-8.765.001-10.57 4.034-5.47 12.222-14.98 22.548-28.281 30.743-15.404-6.328-31.563-10.951-48.415-13.84 5.312-8.591 12.53-21.688 17.707-36.602 1.449-4.174-.76-8.732-4.934-10.181-4.173-1.448-8.732.76-10.181 4.934-6.149 17.712-15.738 32.99-20.127 39.494-16.263-1.6-38.467-1.765-55.604-.298-4.475-6.664-13.87-21.748-19.927-39.196-1.449-4.175-6.012-6.383-10.181-4.934-4.174 1.449-6.383 6.007-4.934 10.181 5.076 14.621 12.115 27.501 17.394 36.096-17.939 2.836-35.113 7.615-51.436 14.312-13.272-8.19-22.764-18.503-28.226-30.708-1.806-4.033-6.539-5.838-10.57-4.035-4.033 1.805-5.839 6.537-4.035 10.57 4.014 8.971 11.642 20.998 25.929 31.94-20.285 10.384-40.371 24.723-56.02 41.404-8.499-14.112-23.443-43.608-20.405-72.391zm30.027 117.347v55.735c-11.984-3.45-20.972-14.557-20.972-27.868 0-13.315 8.994-24.419 20.972-27.867zm-.26 80.905v-8.799c2.384.443 5.439.753 8.26.753 4.418 0 8-3.582 8-8v-73.983c0-4.418-3.582-8-8-8-2.831 0-5.879.311-8.26.753v-15.09c6.635-7.445 15.517-15.626 25.847-23.271-.996 146.735 3.235 140.603-5.931 146.499-8.542 5.526-19.916-.619-19.916-10.862zm240.924 137.138c-12.54 12.567-29.22 19.488-46.969 19.488h-70.242c-17.749 0-34.429-6.921-46.969-19.488-30.091-30.158-47.385-69.86-49.024-112.285 8.506-5.058 14.127-14.441 14.127-24.853 0-156.554-.357-144.819.723-146.73 33.525-19.84 72.029-29.466 111.134-29.71 44.434-.313 83.448 7.249 121.403 29.716.644 1.149 1.265 2.3 1.859 3.446.022 152.677-.318 144.994.69 149.542 1.613 7.348 6.011 13.762 12.319 17.898-1.473 42.683-18.784 82.641-49.051 112.976zm77.889-155.418v18.28c0 16.051-24.273 17.77-25.787 1.195-.094-1.024-.044-45.538-.06-135.983 9.027 6.77 18.528 15.255 25.847 23.725v4.794c-1.496-.261-4.466-.997-9.405-.997-4.418 0-8 3.582-8 8v73.983c0 4.418 3.582 8 8 8 5.028 0 8.474-.851 9.405-.997zm-1.405-16.127v-55.735c27.825 8.011 27.924 47.695 0 55.735z"/><path d="m198.223 246.457c7.538 0 10.93-9.562 4.967-14.276l-16.545-13.082c-2.908-2.3-7.016-2.3-9.924 0l-16.545 13.082c-3.466 2.74-4.054 7.771-1.313 11.237 2.74 3.465 7.771 4.054 11.237 1.313l3.583-2.833v20.079c0 4.418 3.582 8 8 8s8-3.582 8-8v-20.079c2.666 1.787 4.451 4.559 8.54 4.559z"/><path d="m244.201 228.43 3.583-2.833v20.079c0 4.418 3.582 8 8 8s8-3.582 8-8v-20.079l3.583 2.833c3.45 2.729 8.485 2.167 11.237-1.313 2.74-3.466 2.152-8.497-1.313-11.237l-16.545-13.082c-2.908-2.3-7.016-2.3-9.924 0l-16.545 13.082c-3.466 2.74-4.054 7.771-1.313 11.237 2.739 3.465 7.771 4.052 11.237 1.313z"/><path d="m329.884 269.977c4.418 0 8-3.582 8-8v-20.079c3.421 2.705 5.112 4.558 8.54 4.558 7.538 0 10.93-9.562 4.967-14.276l-16.545-13.082c-2.908-2.3-7.016-2.3-9.924 0l-16.545 13.082c-3.466 2.74-4.054 7.771-1.313 11.237 2.739 3.465 7.771 4.054 11.237 1.313l3.583-2.833v20.079c0 4.419 3.582 8.001 8 8.001z"/><path d="m312.05 290.455c-7.365-1.49-14.883-2.701-22.343-3.599-4.385-.533-8.371 2.599-8.899 6.986s2.599 8.371 6.986 8.899c7.04.848 14.134 1.99 21.083 3.396 4.333.877 8.552-1.928 9.428-6.255.875-4.33-1.925-8.551-6.255-9.427z"/><path d="m355.07 300.335-21.342-4.961c-4.307-1.003-8.604 1.678-9.604 5.98-1 4.304 1.677 8.604 5.98 9.604l21.342 4.961c4.277.997 8.598-1.654 9.604-5.98 1.001-4.304-1.677-8.604-5.98-9.604z"/><path d="m230.849 293.833c-.527-4.387-4.51-7.519-8.897-6.989-7.462.896-14.98 2.105-22.345 3.592-4.331.875-7.132 5.095-6.258 9.426.877 4.341 5.106 7.131 9.426 6.258 6.949-1.404 14.043-2.544 21.084-3.39 4.388-.527 7.517-4.51 6.99-8.897z"/><path d="m244.514 285.044c-4.415.175-7.851 3.896-7.676 8.312.175 4.415 3.889 7.861 8.312 7.676 12.166-.482 20.711.01 21.682.01 4.271 0 7.815-3.374 7.988-7.68.177-4.415-3.258-8.137-7.673-8.314-7.503-.301-15.115-.303-22.633-.004z"/><path d="m177.926 295.353-21.429 4.982c-9.217 2.142-7.65 15.794 1.805 15.794 1.278 0 .015.209 23.247-5.191 4.303-1 6.981-5.3 5.98-9.604s-5.297-6.978-9.603-5.981z"/></svg>