<svg id="Layer_1" enable-background="new 0 0 512.047 512.047" height="512" viewBox="0 0 512.047 512.047" width="512" xmlns="http://www.w3.org/2000/svg"><path d="m146.028 275.7c-3.054 3.193-2.94 8.257.252 11.311 3.192 3.053 8.256 2.94 11.311-.252l4.493-4.698c2.623 1.329 5.319 2.453 8.059 3.412l-2.4 5.566c-1.75 4.057.122 8.765 4.179 10.514 4.03 1.739 8.753-.096 10.514-4.179l3.645-8.453c3.479.315 6.973.367 10.457.133l3.161 7.15c1.791 4.053 6.521 5.864 10.551 4.083 4.041-1.786 5.869-6.51 4.083-10.551l-1.68-3.801c3.117-1.014 6.182-2.237 9.154-3.725 3.253 3.775 5.171 7.021 9.718 7.02 6.768 0 10.545-8.013 6.057-13.222l-7.779-9.029c-2.42-2.808-6.453-3.586-9.745-1.879l-4.75 2.465c-14.536 7.544-31.892 7.544-46.429 0l-4.749-2.464c-3.153-1.636-7.009-.997-9.466 1.572z"/><path d="m275.305 287.29c3.339 2.877 8.392 2.515 11.282-.839l3.654-4.241c2.972 1.487 6.037 2.711 9.154 3.725l-1.68 3.801c-1.787 4.041.041 8.765 4.082 10.552 4.024 1.778 8.757-.023 10.551-4.082l3.161-7.151c3.484.233 6.979.182 10.458-.134l3.645 8.454c1.753 4.068 6.465 5.923 10.514 4.179 4.057-1.75 5.928-6.457 4.178-10.514l-2.4-5.566c2.74-.959 5.436-2.083 8.058-3.412l4.494 4.698c3.054 3.193 8.118 3.305 11.311.251s3.306-8.118.252-11.311l-8.636-9.029c-2.456-2.567-6.313-3.208-9.466-1.571-1.628.445-24.141 16.499-51.178 2.464l-4.75-2.464c-3.29-1.707-7.324-.93-9.745 1.879l-7.778 9.029c-2.884 3.347-2.509 8.399.839 11.282z"/><path d="m275.461 424.678c-12.354 5.169-26.523 5.168-38.874 0-4.075-1.706-8.763.216-10.468 4.292-1.706 4.076.216 8.763 4.292 10.468 16.277 6.811 34.946 6.813 51.227 0 4.076-1.706 5.998-6.392 4.292-10.468-1.707-4.076-6.394-5.999-10.469-4.292z"/><path d="m206.095 232.91c5.554 1.486 11.11 3.516 16.515 6.032 4.018 1.872 8.771.116 10.629-3.876 1.865-4.005.129-8.764-3.876-10.629-6.246-2.908-12.682-5.257-19.131-6.983-4.269-1.142-8.653 1.392-9.796 5.66-1.143 4.267 1.391 8.654 5.659 9.796z"/><path d="m170.482 230.364c1.214 0 8.241-1.15 18.38-.391 4.409.322 8.246-2.974 8.576-7.379.331-4.406-2.973-8.246-7.379-8.576-6.594-.494-13.44-.403-20.471.396-4.39.499-7.544 4.462-7.045 8.852.464 4.084 3.925 7.098 7.939 7.098z"/><path d="m134.46 241.634c4.445 0 5.022-3.209 19.803-7.749 4.224-1.297 6.596-5.773 5.298-9.997s-5.775-6.596-9.997-5.298c-11.848 3.639-19.049 8.074-19.35 8.261-6.8 4.229-3.792 14.783 4.246 14.783z"/><path d="m357.785 233.885c14.803 4.547 15.38 7.761 19.815 7.761 8.03 0 11.046-10.558 4.232-14.795-.301-.187-7.503-4.622-19.351-8.261-4.22-1.297-8.699 1.074-9.996 5.298-1.296 4.224 1.076 8.699 5.3 9.997z"/><path d="m289.436 238.942c5.403-2.516 10.96-4.545 16.515-6.032 4.268-1.142 6.802-5.528 5.66-9.796-1.143-4.268-5.524-6.802-9.797-5.66-6.451 1.727-12.888 4.076-19.132 6.983-4.006 1.865-5.74 6.624-3.875 10.629 1.86 3.993 6.612 5.746 10.629 3.876z"/><path d="m323.184 229.973c10.15-.761 17.015.392 18.381.392 4.014 0 7.475-3.014 7.939-7.097.499-4.39-2.656-8.353-7.046-8.852-6.784-.772-13.687-.906-20.468-.397-4.406.33-7.711 4.169-7.381 8.575.329 4.404 4.186 7.708 8.575 7.379z"/><path d="m141.159 338.113c-9.224-3.421-14.841-7.44-14.977-7.538-3.554-2.604-8.549-1.844-11.166 1.706-2.623 3.556-1.866 8.564 1.69 11.187.294.217 7.34 5.364 18.889 9.647 4.135 1.532 8.743-.568 10.283-4.719 1.537-4.143-.576-8.746-4.719-10.283z"/><path d="m174.974 342.713c-5.651.53-11.425.4-17.112-.384-4.377-.606-8.415 2.456-9.018 6.832-.604 4.377 2.455 8.414 6.832 9.018 7.161.988 14.133 1.089 20.793.464 4.399-.413 7.63-4.313 7.217-8.712-.412-4.4-4.312-7.634-8.712-7.218z"/><path d="m232.203 334.323c4.952-4.055 9.863-8.665 14.598-13.7 3.027-3.219 2.871-8.282-.348-11.308-3.219-3.027-8.282-2.872-11.308.348-4.262 4.532-8.662 8.664-13.079 12.282-5.784 4.737-2.433 14.189 5.073 14.189 1.782 0 3.577-.593 5.064-1.811z"/><path d="m207.564 332.021c-5.171 2.972-10.493 5.375-15.818 7.144-8.615 2.86-6.491 15.594 2.52 15.594 4.244 0 16.578-6.169 21.271-8.866 3.831-2.202 5.151-7.092 2.95-10.922-2.202-3.831-7.093-5.152-10.923-2.95z"/><path d="m385.866 330.574c-.056.041-5.688 4.093-14.979 7.54-8.368 3.103-6.072 15.502 2.783 15.502 4.308 0 17.507-7.072 21.669-10.148 3.547-2.616 4.299-7.599 1.695-11.155-2.601-3.557-7.603-4.329-11.168-1.739z"/><path d="m354.186 342.329c-5.687.785-11.464.914-17.111.384-4.399-.413-8.3 2.818-8.713 7.217s2.818 8.3 7.217 8.713c7.092.666 14.066.464 20.793-.464 4.377-.603 7.436-4.641 6.832-9.018-.603-4.376-4.629-7.44-9.018-6.832z"/><path d="m320.301 339.164c-5.325-1.768-10.646-4.171-15.818-7.143-3.83-2.202-8.721-.88-10.922 2.95-2.202 3.831-.882 8.721 2.949 10.922 6.1 3.506 12.408 6.351 18.75 8.457 4.185 1.387 8.718-.868 10.113-5.072 1.392-4.194-.879-8.722-5.072-10.114z"/><path d="m289.982 321.945c-4.418-3.618-8.818-7.75-13.079-12.282-3.027-3.218-8.09-3.376-11.308-.349-3.22 3.026-3.375 8.089-.349 11.309 4.733 5.035 9.645 9.645 14.597 13.7 3.41 2.793 8.452 2.306 11.259-1.12 2.799-3.418 2.298-8.459-1.12-11.258z"/><path d="m428.093 241.821c8.477-22.674 27.399-85.28 3.892-142.715-15.484-37.832-46.396-65.903-91.876-83.436-51.302-19.776-107.526-20.83-159.358-3.183-45.257 15.326-82.729 42.741-100.689 86.619-18.297 44.704-12.548 98.743 3.892 142.715-27.902 0-45.931 21.326-45.931 44.422 0 24.494 19.937 44.421 44.443 44.421h6.141c8.071 63.075 42.461 120.431 95.428 157.208 2.524 1.28 28.998 24.174 71.987 24.174 42.846 0 69.606-22.966 71.987-24.174 52.967-36.777 87.357-94.133 95.428-157.208h6.141c24.506 0 44.443-19.927 44.443-44.421.002-23.078-17.986-44.422-45.928-44.422zm-241.617-214.382c3.398 9.607 10.132 25.201 21.559 43.538 2.337 3.751 7.272 4.896 11.021 2.559 3.75-2.337 4.896-7.271 2.559-11.021-10.741-17.235-16.769-31.49-19.754-39.654 43.715-11.25 89.925-8.671 132.492 7.739 86.93 33.511 109.554 107.802 82.243 195.159-15.013-25.798-43.586-49.506-88.099-61.519-26.928-15.984-50.825-34.766-71.031-55.85-3.058-3.19-8.122-3.297-11.312-.24-3.189 3.058-3.297 8.122-.24 11.312 12.947 13.508 27.318 26.109 42.959 37.681-70.973-7.109-157.637 7.123-193.422 68.618-28.366-90.738-2.615-166.902 91.025-198.322zm-99.71 287.226h-4.299c-15.684 0-28.443-12.75-28.443-28.421 0-15.672 12.76-28.422 28.443-28.422h4.299zm227.832 163.042c-35.035 24.326-82.113 24.326-117.149 0-1.106-1.248-94.683-56.141-94.683-175.745.275-56.706-.846-53.212 3.134-61.711 24.754-52.632 92.181-68.692 150.124-68.692 53.14 0 113.004 12.987 143.067 56.496 5.398 7.856 8.201 14.489 9.48 18.079 1.136 15.14.551 22.737.71 55.828 0 65.484-29.618 130.566-94.683 175.745zm114.982-163.042h-4.299c0-42.43 0-12.633 0-56.843h4.299c15.684 0 28.443 12.75 28.443 28.422 0 15.671-12.759 28.421-28.443 28.421z"/><path d="m226.283 96.857c2.751 4.173 8.745 4.785 12.31 1.22 2.694-2.694 3.11-6.95.99-10.1-2.656-4.029-8.509-4.906-12.3-1.22-2.77 2.77-3.054 7.054-1 10.1z"/></svg>