<svg id="Layer_1" enable-background="new 0 0 512.005 512.005" height="512" viewBox="0 0 512.005 512.005" width="512" xmlns="http://www.w3.org/2000/svg"><path d="m480.717 186.515v-24.158c25.481-41.932 30.132-86.207 29.5-116.167-.414-19.634-21.668-31.752-38.612-21.977-75.09 43.31-160.89-37.087-280.779-22.392-49.847 6.108-84.639 37.099-100.615 89.621-11.307 37.171-9.319 72.197-9.047 76.178v18.894c-41.637 18.869-41.72 77.952 0 96.859v11.491c0 17.967 12.538 33.054 29.33 37.012.104 1.232-.681 7.167 3.439 21.327h-70.03c-4.418 0-8 3.582-8 8v14.208h-19.874v-18.15c0-4.418-3.582-8-8-8s-8 3.582-8 8v52.3c0 4.418 3.582 8 8 8s8-3.582 8-8v-18.15h19.874v14.208c0 4.418 3.582 8 8 8h96.169c20.066 38.201 35.343 63.843 65.18 85.222 1.029.52 16.145 13.162 40.612 13.162h70.599c14.222 0 27.905-4.296 39.57-12.423 17.922-12.486 32.74-28.133 44.045-46.505 16.412-26.673 51.31-89.765 51.31-121.199 16.792-3.959 29.33-19.045 29.33-37.012v-11.491c41.636-18.868 41.72-77.951-.001-96.858zm-414.864 48.429c0-16.553 10.898-30.608 25.904-35.4 8.287-2.639 14.392-1.455 17.867-1.761v74.324c-3.434-.302-9.589.876-17.875-1.764-15.002-4.796-25.896-18.849-25.896-35.399zm143.918 148.469c-15.354 12.202-15.535 14.208-19.291 14.208-22.085 0-25.949 0-48.04 0v-28.417c49.954.488 48.915-1.093 51.913 1.398zm-157.868-14.209h74.537v28.417h-74.537zm412.814-81.425v7.085c0 11.693-9.271 21.663-21.519 22.02-12.218.355-22.629-9.525-22.629-22.02v-97.917c0-5.269-5.014-9.094-10.08-7.725-13.494 3.634-27.415 6.351-41.376 8.077-4.385.542-7.5 4.536-6.958 8.921s4.541 7.508 8.921 6.958c11.249-1.39 22.474-3.393 33.493-5.971v87.656c0 18.435 13.275 33.951 30.817 37.343 0 26.825-34.734 89.402-48.937 112.484-10.146 16.489-23.457 30.54-39.564 41.762-8.969 6.248-19.489 9.551-30.424 9.551h-70.599c-18.373 0-29.366-9.193-31.29-10.166-26.659-19.102-39.409-40.964-56.371-72.218 46.772-.114 35.27 3.699 61.88-17.974 1.453-1.207 2.647-2.647 3.573-4.234h5.616c4.418 0 8-3.582 8-8s-3.582-8-8-8c-9.35 0-3.143.788-9.188-4.234-12.576-9.24-17.4-17.974-29.603-17.974-17.368 0-48.781 0-59.8 0-4.757-14.557-4.075-19.499-4.186-20.997 17.506-3.387 30.816-18.849 30.816-37.343v-125.202c46.499 24.792 94.128 39.706 141.76 44.368 4.406.43 8.312-2.786 8.741-7.183.431-4.397-2.785-8.311-7.183-8.741-49.466-4.841-99.04-21.31-147.346-48.948-5.311-3.039-11.973.788-11.973 6.944v138.764c0 12.169-10.018 22.34-22.671 22.021-11.895-.318-21.475-10.07-21.475-22.021v-7.085c4.189.466 6.168.302 20.459.327 4.418 0 8-3.582 8-8v-90.324c0-4.418-3.582-8-8-8-13.255.076-15.708-.202-20.459.327-.015-28.823-1.706-52.939 8.354-86.011 14.194-46.665 43.551-73.041 87.253-78.397 116.134-14.23 203.883 68.216 286.828 20.37 6.448-3.72 14.465 1.029 14.622 8.455.596 28.255-3.828 70.159-28.289 109.326-2.09 3.347-.853 4.756-1.215 26.257-5.492-.611-11.552-.187-20.46-.327-4.418 0-8 3.582-8 8v90.324c0 4.418 3.582 8 8 8 8.91-.141 14.968.284 20.462-.328zm-5.906-15.673h-6.554v-74.324c6.19.031 6.715-.069 9.161.101 19.362 1.346 34.61 17.491 34.61 37.06.001 20.51-16.729 37.163-37.217 37.163z"/><path d="m245.818 265.752c4.043 1.793 8.766-.029 10.558-4.066 1.793-4.039-.027-8.766-4.065-10.558-27.324-12.129-59.485-.7-60.842-.208-4.152 1.508-6.296 6.098-4.788 10.25 1.508 4.153 6.097 6.296 10.251 4.789.269-.098 27.393-9.749 48.886-.207z"/><path d="m309.572 251.128c-4.038 1.792-5.858 6.52-4.065 10.558 1.792 4.037 6.518 5.858 10.558 4.066 22.409-9.949 48.345.69 51.616.69 8.916 0 11.11-12.479 2.732-15.521-1.357-.492-33.522-11.921-60.841.207z"/><path d="m231.642 275.868h-4.382c-4.418 0-8 3.582-8 8s3.582 8 8 8h4.382c4.418 0 8-3.582 8-8s-3.582-8-8-8z"/><path d="m334.621 275.868h-4.383c-4.418 0-8 3.582-8 8s3.582 8 8 8h4.383c4.418 0 8-3.582 8-8s-3.582-8-8-8z"/><path d="m328.968 213.255c3.965 3.964 10.824 2.738 13.04-2.6 1.938-4.646-.896-9.951-5.83-10.9-7.685-1.568-12.809 7.9-7.21 13.5z"/><path d="m305.083 423.151-7.239 3.091c-21.097 9.01-37.598-2.217-41.046-3.091-4.062-1.735-8.764.153-10.499 4.216s.152 8.764 4.216 10.499c4.647 1.612 14.396 7.811 30.426 7.811 16.039 0 25.839-6.22 30.426-7.811 4.063-1.735 5.951-6.436 4.216-10.499-1.736-4.064-6.435-5.952-10.5-4.216z"/></svg>