<svg id="Layer_1" enable-background="new 0 0 511.996 511.996" height="512" viewBox="0 0 511.996 511.996" width="512" xmlns="http://www.w3.org/2000/svg"><path d="m457.908 101.869c-39.198-70.954-138.572-103.334-219.99-88.806-5.533-8.742-15.635-14.021-26.633-12.918-2.789.28-5.291.585-7.647.931-21.263 3.125-38.096 19.518-42.183 40.517-43.745 26.646-71.367 67.672-76.59 123.676-4.056 43.473 6.554 83.274 13.239 103.13 1.01 3.001 3.183 5.36 5.913 6.66 2.585 17.477 7.081 36.348 13.151 55.163l-80.229 152.321c-5.177 9.829-1.409 21.971 8.425 27.144 9.806 5.159 21.986 1.381 27.148-8.421l18.229-34.611c2.631-4.993 8.303-7.545 13.785-6.216 6.403 1.553 13.016-1.431 16.084-7.258l27.358-51.941c28.043 50.297 74.419 104.646 132.266 104.646 89.386 0 156.774-128.898 173.948-217.562 5.979-5.946 46.716-108.663 3.726-186.455zm-348.432 149.116c-2.413-8.588-4.874-19.03-6.689-30.696 1.759-6.494 10.123-34.9 27.859-59.515 2.583-3.584 1.771-8.584-1.813-11.167-3.585-2.583-8.584-1.771-11.167 1.813-7.331 10.174-13.153 20.797-17.679 30.499.759-51.138 20.321-93.014 61.975-121.627 5.026 37.991 24.624 74.897 49.675 103.646.988 1.402-69.762 17.254-102.161 87.047zm31.38 129.426c-40.895 77.643-32.61 61.912-33.816 64.204-12.221-2.389-24.604 3.478-30.454 14.584l-18.229 34.612c-1.055 2.001-3.543 2.77-5.543 1.717-2.001-1.053-2.772-3.522-1.718-5.527 7.504-14.247 86.453-164.141 90.446-171.722 18.436 32.206-.499 61.389-.686 62.132zm139.379 109.476c-53.919 0-98.368-57.717-123.287-105.698 12.977-25.022 11.268-55.108-4.39-78.487-5.705-8.516-18.384-7.775-23.118 1.219l-1.625 3.084c-3.856-14.019-6.727-27.797-8.454-40.667 5.728-12.957 14.509-46.244 64.933-75.287 12.711-7.285 26.518-13.185 40.002-17.428 37.316 30.56 90.631 59.519 138.819 62.511 31.941 1.983 59.808 15.985 72.555 45.614 0 .1.847 1.938 2.244 3.395-16.371 80.474-78.854 201.744-157.679 201.744zm165.334-220.888c-17.137-29.005-47.009-43.697-81.46-45.835-45.122-2.801-98.386-32.102-132.585-61.359-28.784-28.188-52.803-74.426-54.718-114.999 2.023-15.412 13.93-27.662 29.158-29.9 2.112-.311 4.377-.585 6.922-.841 6.667-.678 12.444 4.073 13.321 10.574 7.859 58.384 35.403 104.598 89.595 130.024 59.033 27.696 113.825 47.378 142.157 66.565-3.329 18.6-8.329 34.619-12.39 45.771zm14.872-63.193c-50.428-30.79-141.911-56.165-176.463-90.214-23.913-23.56-36.293-54.19-41.33-87.107 93.493-15.665 200.019 30.821 216.472 125.053 3.011 17.214 3.153 34.89 1.321 52.268z"/><path d="m211.02 384.23c-3.338-4.984-6.588-10.258-9.661-15.678-2.179-3.843-7.061-5.191-10.905-3.013-3.844 2.18-5.192 7.062-3.013 10.905 3.268 5.762 6.729 11.377 10.286 16.688 2.462 3.677 7.432 4.65 11.099 2.195 3.67-2.457 4.653-7.426 2.194-11.097z"/><path d="m192.823 352.19c-4.765-9.973-7.165-16.664-7.188-16.73-1.481-4.16-6.055-6.334-10.215-4.856-4.164 1.479-6.34 6.053-4.86 10.217.106.3 2.67 7.472 7.826 18.267 1.911 3.999 6.692 5.669 10.667 3.77 3.987-1.905 5.675-6.681 3.77-10.668z"/><path d="m221.837 399.027c-2.76-3.451-7.795-4.01-11.244-1.25-3.45 2.76-4.01 7.794-1.25 11.244 4.224 5.28 8.633 10.274 13.104 14.843 3.089 3.155 8.153 3.214 11.313.122 3.157-3.09 3.212-8.155.122-11.313-4.101-4.189-8.152-8.78-12.045-13.646z"/><path d="m385.05 330.604c-4.163-1.479-8.737.697-10.216 4.86-.023.066-2.387 6.677-7.188 16.726-1.904 3.987-.217 8.763 3.77 10.667s8.763.218 10.668-3.769c5.157-10.795 7.721-17.968 7.827-18.268 1.479-4.163-.697-8.737-4.861-10.216z"/><path d="m349.878 397.777c-3.448-2.76-8.483-2.2-11.244 1.25-3.893 4.865-7.944 9.457-12.045 13.646-3.09 3.158-3.035 8.223.122 11.313 3.155 3.089 8.22 3.038 11.313-.122 4.471-4.569 8.88-9.563 13.104-14.843 2.76-3.45 2.2-8.484-1.25-11.244z"/><path d="m370.018 365.54c-3.843-2.18-8.727-.83-10.905 3.013-3.073 5.419-6.323 10.694-9.661 15.678-2.459 3.671-1.477 8.64 2.194 11.099 3.664 2.453 8.635 1.484 11.099-2.195 3.558-5.312 7.019-10.926 10.286-16.688 2.179-3.845.829-8.727-3.013-10.907z"/><path d="m257.832 261.511c-2.421-2.81-6.456-3.586-9.746-1.878-1.434.393-20.872 14.308-44.251 2.173l-4.187-2.173c-3.154-1.638-7.01-.997-9.467 1.571l-7.614 7.961c-3.054 3.193-2.941 8.257.252 11.311 3.191 3.054 8.256 2.941 11.311-.251l3.479-3.638c1.844.907 3.728 1.697 5.635 2.402l-1.717 3.982c-2.285 5.301 1.638 11.169 7.343 11.169 3.098 0 6.046-1.81 7.351-4.835l2.942-6.824c2.672.211 5.353.26 8.028.111 1.659 2.565 2.512 10.458 9.837 10.458 5.756 0 9.654-5.942 7.313-11.236l-1.054-2.385c2.219-.766 4.403-1.66 6.539-2.695l2.744 3.185c2.888 3.352 7.94 3.718 11.282.838 3.348-2.884 3.723-7.936.839-11.283z"/><path d="m330.762 288.281 2.517-5.692c2.675.149 5.357.1 8.029-.111l2.942 6.825c1.305 3.025 4.253 4.834 7.351 4.834 5.706 0 9.628-5.868 7.342-11.169l-1.716-3.981c1.908-.705 3.792-1.495 5.635-2.402l3.479 3.638c3.054 3.193 8.117 3.306 11.311.252s3.306-8.118.252-11.311l-7.613-7.961c-2.454-2.568-6.311-3.209-9.466-1.572l-4.188 2.173c-12.542 6.51-27.521 6.51-40.064 0l-4.188-2.173c-3.29-1.707-7.325-.93-9.745 1.879l-6.859 7.961c-4.488 5.21-.709 13.222 6.057 13.222 4.314 0 6.044-2.754 8.809-5.963 2.136 1.036 4.321 1.93 6.54 2.695l-1.054 2.385c-2.343 5.296 1.559 11.237 7.313 11.237 3.066.001 5.994-1.777 7.316-4.766z"/><path d="m137.052 139.262c6.448 4.352 14.852-2.31 11.83-9.71-2.014-4.828-7.848-6.277-11.83-3.59-4.69 3.095-4.795 10.135 0 13.3z"/></svg>