<svg id="Layer_1" enable-background="new 0 0 512.024 512.024" height="512" viewBox="0 0 512.024 512.024" width="512" xmlns="http://www.w3.org/2000/svg"><path d="m472.009 197.672c0-29.147-23.12-52.978-51.962-54.106v-26.235c0-44.445-27.368-84.271-68.931-100.105-60.29-22.967-126.694-22.967-186.984 0-41.534 15.823-68.931 55.628-68.931 100.105v26.235c-28.842 1.128-51.962 24.959-51.962 54.106s23.12 52.978 51.962 54.106c1.202 18.733-5.172 54.379 14.852 100.757l-67.624 128.645c-5.394 10.263-1.442 23.008 8.809 28.413 10.277 5.417 22.985 1.482 28.4-8.82l19.617-37.318c2.96-5.631 9.337-8.515 15.508-7.013 6.621 1.608 13.462-1.479 16.633-7.514l19.625-37.334c24.371 23.432 52.203 34.277 81.837 34.277h49.532c27.429 0 53.976-9.875 74.751-27.807 39.977-34.504 62.905-84.603 62.905-137.451v-28.835c28.843-1.127 51.963-24.958 51.963-54.106zm-412.77 0c0-20.324 15.945-36.988 35.962-38.102v49.827c-4.756-3.135-7.046-10.28-7.143-15.834-.021-4.4-3.595-7.961-8-7.961-4.418 0-8 3.582-8 8 0 11.867 6.335 28.758 23.143 32.979v9.192c-20.017-1.113-35.962-17.777-35.962-38.101zm58.41 243.019c-13.037-2.757-26.319 3.452-32.557 15.318l-19.617 37.318c-1.292 2.456-4.319 3.407-6.777 2.111-2.456-1.295-3.401-4.352-2.107-6.814l97.835-186.116c11.598 19.55 12.654 44.148 1.662 65.058zm286.398-160.077c0 48.192-20.907 93.876-57.359 125.338-17.871 15.424-40.706 23.919-64.297 23.919h-49.532c-30.186 0-53.929-12.614-74.06-33.072l11.453-21.789c14.064-26.754 12.488-59.111-4.444-84.443-5.843-8.743-18.93-8.086-23.84 1.256l-22.033 41.914c-12.487-36.751-7.638-62.703-8.733-89.905 0 0 0-116.319 0-126.502 0-37.794 23.267-71.683 58.627-85.153 56.616-21.568 118.976-21.568 175.592 0 35.32 13.455 58.627 47.314 58.627 85.153-.001 21.61-.001 148.15-.001 163.284zm16-44.84v-9.106c17.051-4.084 23.46-21.122 23.46-33.065 0-4.439-3.602-7.976-8.001-7.976-4.378 0-7.948 3.547-7.999 7.931-.054 5.761-2.565 13.051-7.46 16.05v-50.038c20.017 1.114 35.962 17.778 35.962 38.102s-15.945 36.988-35.962 38.102z"/><path d="m311.277 321.773h-107.306c-7.875 0-14.041 7.048-13.072 15.109 3.959 32.929 30.008 58.522 61.925 60.087 38.828 1.897 66.568-24.721 71.33-58.68 1.426-10.165-5.397-16.516-12.877-16.516zm-80.051 52.219c16.987-8.75 34.793-9.244 52.731-.031-14.566 8.986-35.977 10.343-52.731.031zm65.437-11.197c-24.986-15.417-53.137-15.421-78.135.034-5.678-6.959-9.7-15.53-11.336-25.055h100.851c-1.636 9.496-5.681 18.06-11.38 25.021z"/><path d="m291.143 67.437c16.675 2.892 21.816 5.569 24.729 5.569 9.189 0 11.079-13.082 2.253-15.677-7.981-2.347-16.14-4.25-24.248-5.657-4.356-.75-8.495 2.163-9.25 6.515-.754 4.354 2.163 8.495 6.516 9.25z"/><path d="m244.687 64.955c1.309 0 10.282-.848 23.557-.124 4.415.232 8.183-3.142 8.423-7.553s-3.141-8.183-7.553-8.423c-8.274-.45-16.659-.412-24.928.116-4.41.282-7.756 4.084-7.475 8.493.27 4.236 3.79 7.491 7.976 7.491z"/><path d="m197.576 73.543c3.237 0 7.28-2.595 24.751-5.79 4.346-.795 7.225-4.962 6.431-9.309-.794-4.346-4.964-7.224-9.309-6.431-8.092 1.479-16.232 3.455-24.194 5.872-8.762 2.66-6.833 15.658 2.321 15.658z"/><path d="m178.185 81.117c4.063-1.736 5.95-6.437 4.214-10.5s-6.438-5.951-10.5-4.214c-8.179 3.494-12.994 6.064-22.059 10.433-3.971 1.938-5.619 6.728-3.681 10.698 1.938 3.972 6.728 5.618 10.698 3.681 10.207-4.981 14.74-7.284 21.328-10.098z"/><path d="m363.714 76.01c-8.983-4.384-14.216-7.05-22.16-10.365-4.079-1.703-8.763.225-10.464 4.302s.224 8.762 4.302 10.464c7.368 3.075 11.914 5.395 21.305 9.979 3.979 1.942 8.764.282 10.698-3.681 1.938-3.971.29-8.761-3.681-10.699z"/><path d="m355.154 168.151c-19.066-13.522-46.744-13.522-65.81 0-3.604 2.556-4.454 7.549-1.897 11.153 2.555 3.604 7.549 4.453 11.153 1.897 13.703-9.718 33.595-9.719 47.298 0 1.405.997 3.021 1.475 4.621 1.475 7.753.001 11-10.012 4.635-14.525z"/><path d="m227.801 179.304c2.556-3.604 1.707-8.598-1.897-11.153-19.066-13.522-46.743-13.522-65.81 0-3.604 2.556-4.454 7.549-1.897 11.153 2.556 3.604 7.55 4.454 11.153 1.897 13.703-9.719 33.595-9.718 47.298 0 3.595 2.551 8.592 1.715 11.153-1.897z"/><path d="m197.398 189.829c-5.476-1.116-10.509 3.697-9.41 9.41 2.052 9.532 15.85 7.915 15.85-1.57.001-3.779-2.711-7.112-6.44-7.84z"/><path d="m317.849 189.829c-9.573 1.871-7.908 15.84 1.57 15.84 3.783 0 7.112-2.716 7.84-6.43 1.107-5.779-3.997-10.514-9.41-9.41z"/><path d="m209.736 294.542c6.969 0 10.655-8.412 5.791-13.518-4.498-4.722-9.622-9.246-15.228-13.446-3.536-2.65-8.551-1.93-11.199 1.605-2.649 3.536-1.93 8.55 1.605 11.199 13.994 10.485 13.22 14.16 19.031 14.16z"/><path d="m183.462 256.681c-5.593-3.133-11.598-6.072-17.848-8.735-4.064-1.733-8.764.159-10.496 4.223s.158 8.764 4.223 10.496c15.881 6.769 16.162 8.998 20.203 8.998 8.219-.001 11.086-10.967 3.918-14.982z"/><path d="m147.075 241.069c-11.333-3.613-19.09-5.046-19.415-5.106-4.345-.79-8.506 2.084-9.302 6.428-.797 4.343 2.08 8.511 6.422 9.311 10.445 1.959 17.06 4.991 19.867 4.991 9.116 0 11.066-12.871 2.428-15.624z"/></svg>