<svg id="Layer_1" enable-background="new 0 0 512.005 512.005" height="512" viewBox="0 0 512.005 512.005" width="512" xmlns="http://www.w3.org/2000/svg"><path d="m220.076 119.811c-46.41 0-69.657 31.857-72.229 33.713-3.004 3.102-3.004 8.028 0 11.13 2.637 1.903 25.867 33.713 72.229 33.713 46.41 0 69.649-31.851 72.229-33.713 3.004-3.102 3.004-8.028 0-11.13-2.645-1.909-25.868-33.713-72.229-33.713zm0 48.843c-9.087 0-16.481-7.367-16.481-16.421s7.394-16.421 16.481-16.421 16.48 7.366 16.48 16.421-7.392 16.421-16.48 16.421zm-30.877-26.466c-4.885 14.925 1.674 31.275 15.72 38.707-15.203-2.989-29.112-10.469-40.187-21.805 7.119-7.287 15.415-12.968 24.467-16.902zm46.034 38.707c13.945-7.377 20.643-23.666 15.72-38.707 9.052 3.934 17.348 9.615 24.467 16.901-11.074 11.336-24.984 18.817-40.187 21.806z"/><path d="m153.616 124.107c29.007-16.92 96.189-24.575 133.244-9.386 11.437 4.685 23.47-5.69 19.747-17.276-2.447-7.617-7.809-13.948-15.099-17.828-44.533-23.702-105.831-15.779-138.405-8.948-17.991 3.773-30.577 19.434-29.277 36.429 1.332 17.442 17.592 24.125 29.79 17.009zm2.77-37.778c39.947-8.378 91.403-11.855 127.604 7.413 2.275 1.211 4.16 2.878 5.534 4.859-41.304-15.04-110.816-7.65-143.969 11.686-8.764 5.112-9.429-19.709 10.831-23.958z"/><path d="m297.972 215.792c3.867-2.138 5.269-7.005 3.13-10.872-2.137-3.867-7.005-5.268-10.872-3.131-33.743 18.656-68.478 24.021-103.239 15.948-26.149-6.073-42.568-17.899-42.731-18.018-3.558-2.608-8.555-1.844-11.171 1.709-2.62 3.558-1.859 8.565 1.699 11.186.751.553 18.726 13.621 47.836 20.532 36.616 8.694 76.629 4.053 115.348-17.354z"/><path d="m246.732 254.991c-61.737 13.836-96.418-8.886-96.974-9.258-3.627-2.492-8.593-1.585-11.104 2.037-2.517 3.631-1.613 8.615 2.018 11.132 1.246.863 24.596 16.614 67.034 16.614 12.535 0 26.738-1.375 42.526-4.914 4.312-.966 7.023-5.245 6.057-9.556-.967-4.309-5.244-7.023-9.557-6.055z"/><path d="m437.742 468.675-105.827-211.597c4.149-12.479 7.717-24.899 10.777-37.128 55.889-2.982 89.577-67.371 57.81-103.772-17.047-19.534-39.668-17.03-40.609-17.22 1.659-38.053-.407-74.155-2.951-92.084-.561-3.943-3.938-6.874-7.921-6.874h-269.028c-4.418 0-8 3.582-8 8v496c0 5.509 5.432 9.343 10.601 7.565 95.715-32.902 168.107-92.466 215.434-177.128l23.578 47.143c5.442 10.881 17.549 16.656 29.451 14.045 1.28-.281 2.587.336 3.172 1.504l45.31 90.594c5.691 11.379 19.913 15.173 30.496 8.505 9.315-5.868 12.629-17.714 7.707-27.553zm-78.73-353.716h3.581c20.786 0 36.753 18.305 33.957 38.778-3.562 26.075-24.412 46.323-49.981 49.799.853-3.904 1.66-7.838 2.436-11.791 4.442-1.171 29.005-11.629 33.086-30.546.932-4.319-1.813-8.576-6.132-9.507-4.318-.934-8.576 1.814-9.507 6.132-1.301 6.029-8.025 11.261-14.012 14.721 3.038-18.755 5.298-38.758 6.572-57.586zm-271.019 377.681v-476.64h253.894c2.62 25.809 9.281 120.452-20.269 220.492l-3.706-7.409c-4.759-9.514-17.953-10.466-24.049-1.792-7.237 10.294-11.94 21.843-14.045 33.786-3.781 21.453.772 38.499 9.485 55.92-43.493 83.039-111.169 142.079-201.31 175.643zm333.512-9.948c-2.687 1.693-6.246.696-7.657-2.125l-45.31-90.594c-3.858-7.715-12.449-11.833-20.912-9.976-4.735 1.039-9.55-1.253-11.711-5.574-5.073-10.143-29.482-58.946-34.166-68.312-10.984-21.962-9.032-47.284 3.36-66.858 4.513 9.023 113.824 227.586 118.322 236.578 1.225 2.449.397 5.398-1.926 6.861z"/></svg>