<svg id="Layer_1" enable-background="new 0 0 512 512" height="512" viewBox="0 0 512 512" width="512" xmlns="http://www.w3.org/2000/svg"><path d="m225.079 230.159c4.672-5.98 4.672-14.333 0-20.313-30-38.4-80.031-38.54-110.14 0-4.672 5.98-4.672 14.333 0 20.313 29.932 38.313 79.97 38.616 110.14 0zm-55.07-17.625c4.116 0 7.465 3.351 7.465 7.469s-3.349 7.469-7.465 7.469c-4.117 0-7.466-3.351-7.466-7.469s3.349-7.469 7.466-7.469zm42.461 7.163c.141.18.141.432 0 .611-9.799 12.542-22.291 20.232-35.719 22.171 22.236-6.685 22.226-38.271 0-44.953 13.428 1.939 25.921 9.629 35.719 22.171zm-84.923.612c-.141-.18-.141-.432 0-.611 9.799-12.543 22.292-20.233 35.72-22.171-22.238 6.685-22.227 38.272 0 44.953-13.428-1.939-25.921-9.629-35.72-22.171z"/><path d="m384.7 230.159c4.672-5.98 4.672-14.333 0-20.313-29.999-38.4-80.03-38.54-110.139 0-4.672 5.98-4.672 14.333 0 20.313 29.932 38.313 79.97 38.616 110.139 0zm-55.07-2.687c-4.116 0-7.466-3.351-7.466-7.469s3.35-7.469 7.466-7.469 7.466 3.351 7.466 7.469-3.349 7.469-7.466 7.469zm-42.462-7.163c-.141-.18-.141-.432 0-.611 9.8-12.542 22.292-20.232 35.719-22.171-22.236 6.685-22.227 38.271 0 44.953-13.427-1.939-25.92-9.629-35.719-22.171zm84.924 0c-9.799 12.542-22.292 20.232-35.719 22.171 22.236-6.685 22.227-38.271 0-44.953 13.427 1.939 25.919 9.629 35.719 22.171.141.179.141.431 0 .611z"/><path d="m337.916 278.111c-6.371.216-12.975-.15-19.523-1.097-4.384-.63-8.431 2.401-9.063 6.774s2.401 8.43 6.773 9.062c7.352 1.062 14.876 1.509 22.359 1.251 4.416-.151 7.873-3.854 7.722-8.269-.149-4.416-3.886-7.893-8.268-7.721z"/><path d="m273.396 279.021c.33.192 8.222 4.768 20.979 8.825 4.185 1.332 8.702-.964 10.049-5.199 1.339-4.21-.989-8.709-5.199-10.048-10.875-3.458-17.621-7.314-17.765-7.397-3.816-2.222-8.704-.934-10.932 2.875-2.231 3.813-.946 8.713 2.868 10.944z"/><path d="m386.183 273.53c-1.792-4.038-6.516-5.86-10.558-4.066-5.952 2.642-12.152 4.711-18.428 6.148-4.307.986-6.998 5.277-6.012 9.584.986 4.306 5.276 6.999 9.584 6.012 7.275-1.667 14.458-4.062 21.348-7.12 4.039-1.793 5.859-6.52 4.066-10.558z"/><path d="m218.182 265.2c-.067.039-6.829 3.92-17.766 7.399-8.679 2.76-6.662 15.625 2.422 15.625 3.842 0 18.535-6.354 23.405-9.204 3.808-2.227 5.087-7.112 2.869-10.925s-7.113-5.106-10.93-2.895z"/><path d="m190.309 283.788c-.632-4.373-4.692-7.402-9.062-6.774-6.81.984-13.335 1.306-19.524 1.097-4.426-.166-8.118 3.306-8.269 7.721-.151 4.416 3.306 8.118 7.721 8.269 7.055.243 14.567-.125 22.36-1.251 4.373-.632 7.405-4.689 6.774-9.062z"/><path d="m142.441 275.612c-6.274-1.438-12.475-3.506-18.429-6.149-4.039-1.792-8.765.029-10.558 4.067-1.792 4.039.029 8.765 4.067 10.558 6.892 3.058 14.074 5.454 21.347 7.12 4.314.988 8.599-1.712 9.584-6.012.987-4.306-1.704-8.597-6.011-9.584z"/><path d="m498.649 457.646c-37.102-54.904-22.293-32.934-65.314-96.926 8.595-33.108 5.745-54.277 6.301-67.838 27.869-1.751 50.011-24.973 50.011-53.281s-22.141-51.53-50.011-53.281v-13.702c0-95.182-77.382-172.618-172.497-172.618h-34.64c-95.114 0-172.496 77.436-172.496 172.618v13.702c-27.87 1.751-50.011 24.973-50.011 53.281s22.141 51.53 50.011 53.281c1.684 8.158-13.769 95.922 78.34 188.25 19.858 19.906 46.278 30.868 74.393 30.868h74.168c28.115 0 54.534-10.962 74.392-30.868 17.475-17.516 32.41-36.492 44.542-56.538l5.132 7.633c6.172 9.181 17.751 12.975 28.157 9.224 1.978-.717.99.331 27.031 38.066 6.469 9.623 19.849 11.534 28.754 4.145 7.768-6.445 9.379-17.622 3.737-26.016zm-25.002-218.045c0 19.483-14.971 35.534-34.011 37.248v-74.496c19.04 1.714 34.011 17.765 34.011 37.248zm-447.655 0c0-19.483 14.971-35.534 34.011-37.248v74.496c-19.04-1.714-34.011-17.765-34.011-37.248zm369.945 170.267c-12.084 21.33-27.531 41.483-45.969 59.964-16.834 16.875-39.23 26.168-63.064 26.168h-74.168c-23.834 0-46.231-9.293-63.066-26.168-46.816-46.928-73.667-104.151-73.667-156.997 0-17.93 0-124.731 0-140.217 0-86.359 70.204-156.618 156.496-156.618h34.64c86.293 0 156.497 70.259 156.497 156.618 0 157.995.571 151.537-2.65 169.732l-28.512-42.408c-5.608-8.341-18.07-7.629-22.717 1.247-10.518 20.091-11.188 43.568-2.384 63.929 3.649 8.438 5.211 10.013 28.564 44.75zm83.486 60.704-25.367-37.506c-4.444-6.612-12.802-9.388-20.354-6.668-3.497 1.26-7.383-.015-9.455-3.098l-37.047-55.105c.573 0-18.786-23.508-5.296-55.297.078.116 103.361 153.519 103.477 153.691 2.641 3.926-3.286 7.961-5.958 3.983z"/><path d="m313.877 365.652h-128.115c-13.915 0-23.617 13.856-18.854 26.941 13.432 36.899 41.141 54.882 69.238 54.882 25.609-.112 28.8.45 37.651-1.033 36.119-5.991 52.32-35.675 58.936-53.849 4.758-13.075-4.931-26.941-18.856-26.941zm-77.572 65.823c-10.448-.43-19.73-3.418-27.132-8.006 16.875-20.878 64.43-20.865 81.292 0-7.57 4.692-16.879 7.585-27.132 8.006zm81.392-44.354c-4.081 11.211-9.263 19.692-15.002 26.081-23.566-28.562-82.218-28.522-105.751 0-5.738-6.389-10.921-14.87-15.001-26.08-.973-2.674.995-5.468 3.819-5.468h128.116c2.825-.002 4.792 2.794 3.819 5.467z"/><path d="m122.015 174.246c.301-.24 30.618-23.826 73.862-12.153 4.267 1.153 8.657-1.373 9.808-5.639s-1.374-8.657-5.639-9.808c-50.967-13.756-86.505 13.896-87.993 15.08-3.458 2.75-4.03 7.784-1.279 11.241 2.742 3.447 7.773 4.038 11.241 1.279z"/><path d="m303.762 162.093c42.887-11.573 72.589 11.157 73.881 12.168 3.481 2.753 8.494 2.134 11.223-1.294 2.75-3.458 2.178-8.49-1.28-11.241-1.487-1.184-37.023-28.835-87.993-15.08-4.266 1.151-6.79 5.542-5.639 9.808s5.542 6.789 9.808 5.639z"/></svg>