<svg id="Layer_1" enable-background="new 0 0 511.991 511.991" height="512" viewBox="0 0 511.991 511.991" width="512" xmlns="http://www.w3.org/2000/svg"><path d="m450.524 3.858c-12.815-4.946-22.838-5.134-30.642-.575-10.84 6.333-14.897 20.217-17.655 39.115-.424 2.905-1.385 5.659-2.718 8.254l-6.532-7.813c-2.836-3.391-7.881-3.84-11.27-1.006-3.39 2.834-3.84 7.879-1.006 11.269l8.521 10.192c-3.163 2.796-6.515 5.204-9.604 7.181-44.437-40.343-129.452-59.622-205.421-26.357-31.2 13.664-48.908 30.547-49.647 31.259-1.155 1.116-12.647 12.719-8.972 29.319 1.807 8.161 6.965 15.84 15.397 23.006-4.561 22.064-7.8 50.644-.325 70.633 10.452 27.95-24.036 63.13-24.38 63.477-2.733 2.741-3.111 7.045-.899 10.222.465.667 11.471 16.161 35.785 24.856.475 9.201-8.141 33.524 7.481 54.673 13.828 18.722 54.766 4.77 79.725 4.32 8.155-.142 9.817 1.405 9.837 1.405 4.91 13.779 11.178 29.328 11.38 45.27.204 16.131-6.32 26.214-20.532 31.73-46.815 18.173-52.05 66.868-52.25 68.932-.455 4.69 3.235 8.771 7.963 8.771h227.88c6.289 0 10.122-6.948 6.766-12.269-18.036-28.589-63.575-109.831-61.025-146.803 22.07-38.546 51.661-98.677 62.05-143.111 7.449-31.862 3.849-69.207-11.031-99.637 3.971-3.454 8.036-6.884 11.244-9.298l5.581 6.675c2.826 3.379 7.871 3.848 11.27 1.006 3.008-2.515 3.695-6.769 1.832-10.065 7.724 1.084 18.125 2.329 33.575 1.399 44.513-2.678 21.517-79.087-22.378-96.03zm-52.107 492.133h-203.939c3.452-12.851 13.305-36.285 40.358-46.787 20.398-7.918 31.029-24.118 30.742-46.848-.231-18.342-6.848-35.135-12.307-50.437-5.614-15.763-27.593-12.645-50.863-9.342-14.603 2.072-36.672 5.204-40.901-.521-1.8-2.437-3.126-4.94-4.086-7.478 6.037-1.253 14.303-3.343 21.861-6.534 4.07-1.719 5.977-6.412 4.258-10.482-1.718-4.07-6.407-5.977-10.482-4.258-5.968 2.52-12.665 4.266-17.829 5.378.147-3.745.608-7.434 1.052-10.969 4.243-33.793-10.254-18.12-33.565-40.241 10.851-12.756 34.098-44.854 22.921-74.742-4.498-12.027-4.57-31.314-.301-55.044 11.714 6.716 25.576 12.171 38.286 16.357 24.899 8.201 50.823 28.402 77.05 60.042 3.699 4.463 10.737 3.618 13.313-1.523 4.189-8.364 11.523-19.088 20.831-19.963 3.581-.322 6.319 3.426 7.624 5.701 9.123 15.909 3.001 39.862-7.391 54.321-1.904 2.649-2.009 6.188-.265 8.945 17.446 27.587 33.93 58.754 47.64 90.171-2.724 40.399 38.579 114.849 55.993 144.254zm6.433-289.826c-10.273 43.936-39.408 100.608-53.446 126.39-11.563-25.112-25.679-51.515-40.332-75.127 23.977-38.643 8.315-88.085-22.627-79.872-8.491 2.253-16.219 8.255-22.81 17.725-56.79-64.184-84.74-50.81-121.11-77.154-9.264-6.903-12.375-12.815-13.287-16.729-1.906-8.182 4.144-14.234 4.408-14.494.164-.158 16.794-15.908 45.573-28.393 69.652-30.217 151.007-13.136 191.647 27.585 31.035 31.08 41.837 77.935 31.984 120.069zm-3.492-110.194c-.183-.259-4.116-6.54-10.354-13.816 3.186-2.168 6.008-4.358 8.515-6.548l10.853 12.98c-2.738 2.091-5.808 4.633-9.014 7.384zm79.411-20.42c-.872 5.617-3.431 8.041-8.829 8.366-25.881 1.558-36.019-3.667-46.62-2.395l-14.959-17.891c4.807-6.984 6.914-13.545 7.698-18.922 1.723-11.801 4.244-24.31 9.895-27.611 3.283-1.918 8.938-1.351 16.809 1.687 23.344 9.01 38.487 40.795 36.006 56.766z"/><path d="m71.424 270.479c-.362-4.403-4.215-7.676-8.628-7.319-4.403.361-7.68 4.224-7.319 8.627.665 8.1 4.66 16.467 11.874 24.871 2.888 3.362 7.94 3.728 11.281.858 3.353-2.878 3.737-7.929.859-11.281-4.9-5.708-7.69-11.157-8.067-15.756z"/><path d="m96.145 221.118c3.944 1.989 8.755.407 10.746-3.539 6.396-12.678 9.286-22.118 9.406-22.514 1.281-4.229-1.107-8.695-5.336-9.977s-8.695 1.107-9.977 5.336c-.025.083-2.601 8.495-8.379 19.947-1.99 3.945-.405 8.756 3.54 10.747z"/><path d="m67.644 257.063c3.122 3.123 8.188 3.127 11.313.002 5.52-5.517 10.768-11.824 15.599-18.745 2.529-3.623 1.643-8.61-1.98-11.139-3.622-2.529-8.611-1.642-11.139 1.981-4.295 6.153-8.935 11.733-13.79 16.587-3.125 3.123-3.126 8.189-.003 11.314z"/><path d="m113.751 310.084c-5.914-2.288-12.502-5.852-18.551-10.035-3.633-2.512-8.616-1.606-11.13 2.029-2.514 3.633-1.605 8.617 2.028 11.13 7.156 4.95 14.723 9.03 21.881 11.799 4.12 1.593 8.753-.454 10.347-4.576 1.595-4.12-.454-8.752-4.575-10.347z"/><path d="m334.194 84.117c-51.914-29.16-95.231-24.943-122.432-16.269-4.209 1.342-6.533 5.843-5.191 10.052 1.343 4.209 5.843 6.535 10.053 5.191 24.174-7.708 62.834-11.369 109.734 14.976 3.853 2.164 8.729.795 10.893-3.057 2.163-3.852.795-8.729-3.057-10.893z"/><path d="m191.033 206.705h-6.256c-4.418 0-8 3.582-8 8s3.582 8 8 8h6.256c4.418 0 8-3.582 8-8s-3.582-8-8-8z"/><path d="m52.701 214.465-5.145 8.933c-2.205 3.828-.889 8.72 2.939 10.925 3.852 2.217 8.733.868 10.926-2.939l12.053-20.925c1.423-2.472 1.423-5.515 0-7.986l-12.053-20.925c-2.206-3.828-7.097-5.145-10.926-2.939-3.828 2.205-5.145 7.097-2.939 10.925l5.145 8.933h-29.67c-4.418 0-8 3.582-8 8s3.582 8 8 8h29.67z"/><path d="m66.662 306.509c-2.204-3.829-7.093-5.144-10.926-2.94-3.828 2.205-5.145 7.097-2.939 10.925l5.145 8.933h-29.67c-4.418 0-8 3.582-8 8s3.582 8 8 8h29.67l-5.145 8.933c-2.205 3.829-.889 8.72 2.939 10.925 3.852 2.217 8.734.866 10.926-2.94l12.052-20.925c1.423-2.472 1.423-5.514 0-7.985z"/><path d="m184.778 78.472c-4.418 0-8 3.582-8 8s3.582 8 8 8c4.54 0 8.013-3.667 8.013-8-.001-4.419-3.595-8-8.013-8z"/></svg>