<svg id="Layer_1" enable-background="new 0 0 512 512" height="512" viewBox="0 0 512 512" width="512" xmlns="http://www.w3.org/2000/svg"><path d="m453.428 303.618c23.568-41.698 47.913-303.618-121.898-303.618-78.07 0-88.291 12.624-184.696 23.452-3.912.439-6.923 3.659-7.1 7.591-.867 19.284 8.293 38.137 22.064 52.33-10.179 23.559-14.442 43.909-13.01 62.063 3.279 41.527-19.979 111.13-20.214 111.828-1.634 4.85 1.649 9.975 6.744 10.512 5.529.582 21.791 3.135 32.104 8.011 5.341 13.646-15.567 74.974 15.604 85.502 13.164 4.448 69.633-.745 94.117-3.276-.652 25.426-7.063 101.082-58.724 139.573-6.152 4.583-2.904 14.414 4.781 14.414h213.873c5.656 0 9.521-5.719 7.432-10.96-26.174-65.708-32.204-122.169-34.046-164.984 16.225-5.262 33.044-14.879 42.969-32.438zm-28.006 192.382h-181.229c20.259-21.307 34.88-50.718 42.729-86.298 7.318-33.171 6.271-59.817 6.223-60.935-.199-4.638-4.286-8.114-8.872-7.607-41.035 4.544-88.211 7.644-96.126 4.97-5.548-1.874-6.831-11.828-6.655-22.962 7.749.357 15.787.027 23.444-1.064 4.374-.623 7.415-4.674 6.792-9.048s-4.678-7.417-9.048-6.792c-7.88 1.121-15.138 1.149-20.244.923 1.763-20.196 4.811-39.388-7.065-45.326-8.946-4.473-20.618-7.14-28.737-8.58 6.421-20.96 20.938-73.241 18.106-109.104-1.132-14.334 2.068-30.676 9.765-49.734 50.72 37.452 82.617 10.126 102.241 63.069 12.842 34.864 8.301 77.769 8.475 79.545.845 8.696 13.471 10.212 15.828.747 4.506-17.635 16.868-50.199 33.255-58.07 4.922-2.364 9.771-2.275 15.255.279 20.807 9.691 12.591 58.17-16.31 75.717-2.115 1.284-3.518 3.475-3.797 5.934-3.009 26.443 15.205 59.135 31.305 77.816 2.553 2.966 5.511 2.834 9.04 2.834 4.75 0 13.974-.321 24.82-2.297 1.952 41.257 7.919 94.401 30.805 155.983zm-54.761-169.711c-12.226-15.641-25.941-39.352-25.547-59.212 35.008-24.605 45.017-85.819 11.201-101.569-23.836-11.103-42.952 5.636-55.503 28.633-3.829-40.069-18.488-81.251-58.109-89.002-25.268-4.943-52.749-15.079-70.364-33.857-9.284-9.897-15.037-21.532-16.365-32.777 91.047-10.79 101.001-22.505 175.556-22.505 152.378 0 127.51 245.175 107.968 279.745-15.655 27.698-56.649 30.375-68.837 30.544z"/><path d="m94.912 242.065c3.555 0 6.801-2.388 7.736-5.989 1.676-6.442 3.895-13.638 6.596-21.388 1.455-4.172-.748-8.733-4.92-10.188-4.178-1.454-8.733.749-10.188 4.921-2.844 8.156-5.189 15.769-6.973 22.628-1.315 5.061 2.507 10.016 7.749 10.016z"/><path d="m132.472 303.119c-5.97-3.072-11.566-7.133-16.636-12.069-3.167-3.082-8.231-3.015-11.313.151-3.083 3.166-3.015 8.23.15 11.313 6.206 6.042 13.095 11.033 20.476 14.832 3.943 2.029 8.76.461 10.774-3.452 2.023-3.93.478-8.753-3.451-10.775z"/><path d="m103.191 274.724c-3.932-6.981-4.759-10.006-4.313-17.539.265-4.411-3.097-8.2-7.508-8.464-4.372-.253-8.199 3.098-8.463 7.508-.664 11.084 1.105 17.042 6.343 26.346 2.167 3.85 7.045 5.213 10.896 3.045 3.85-2.168 5.213-7.047 3.045-10.896z"/><path d="m106.837 197.924c4.067 1.653 8.749-.282 10.423-4.401 4.917-12.106 8.948-20.699 8.988-20.785 1.88-3.998.163-8.763-3.835-10.644-3.999-1.88-8.763-.164-10.644 3.834-.171.363-4.243 9.04-9.334 21.573-1.662 4.095.308 8.761 4.402 10.423z"/><path d="m210.885 195.191h-15.076c-4.418 0-8 3.582-8 8s3.582 8 8 8h15.076c4.418 0 8-3.582 8-8s-3.582-8-8-8z"/><path d="m410.115 110.92c4.208-1.349 6.525-5.853 5.177-10.06-13.271-41.408-41.01-57.201-61.942-63.159-22.416-6.379-41.629-3.005-42.437-2.858-4.339.789-7.21 4.939-6.433 9.28s4.934 7.235 9.275 6.466c2.649-.468 65.192-10.702 86.3 55.155 1.353 4.221 5.867 6.521 10.06 5.176z"/><path d="m72.559 288.379c-4.328-1.183-13.324-8.705-23.348-2.117-4.58 3.011-7.314 8.081-7.314 13.563v187.086c0 11.534 9.384 20.917 20.917 20.917s20.917-9.383 20.917-20.917v-58.237c9.551-3.875 15.833-13.097 15.833-23.553v-75.659c0-17.869-10.6-33.996-27.005-41.083zm11.005 116.742c0 4.134-2.649 7.749-6.591 8.994-5.528 1.746-9.242 6.813-9.242 12.61v60.186c0 2.711-2.206 4.917-4.917 4.917s-4.917-2.206-4.917-4.917v-187.086c0-.512.007-.347 8.316 3.243 0-.384 17.351 7.26 17.351 26.395z"/><path d="m343.678 194.303c-2.447-3.678-7.412-4.676-11.092-2.228-3.679 2.448-4.676 7.414-2.229 11.092 6.51 9.783-5.494 27.199-13.275 35.04-5.034 5.047-1.405 13.65 5.664 13.65 2.047 0 4.095-.781 5.657-2.343 1.275-1.275 31.051-31.504 15.275-55.211z"/><path d="m414.906 124.14c-4.845-.987-9.56 2.732-9.56 7.84 0 4.922 4.485 8.842 9.56 7.85 8.523-1.673 8.569-14.008 0-15.69z"/></svg>