<svg id="Layer_1" enable-background="new 0 0 511.993 511.993" height="512" viewBox="0 0 511.993 511.993" width="512" xmlns="http://www.w3.org/2000/svg"><path d="m254.283 250.326c4.418 0 8-3.582 8-8v-13.835c0-4.418-3.582-8-8-8s-8 3.582-8 8v13.835c0 4.419 3.582 8 8 8z"/><path d="m254.283 285.747c4.418 0 8-3.582 8-8v-13.834c0-4.418-3.582-8-8-8s-8 3.582-8 8v13.834c0 4.418 3.582 8 8 8z"/><path d="m254.283 414.43c-4.418 0-8 3.582-8 8v13.834c0 4.418 3.582 8 8 8s8-3.582 8-8v-13.834c0-4.418-3.581-8-8-8z"/><path d="m254.283 452.817c-4.418 0-8 3.582-8 8v13.834c0 4.418 3.582 8 8 8s8-3.582 8-8v-13.834c0-4.419-3.581-8-8-8z"/><path d="m449.747 208.226c1.523-66.755 1.483-62.77 1.423-63.543-3.429-43.626-17.875-74.286-42.938-91.129-29.22-19.638-63.516-14.026-75.618-11.144-115.626-97.345-274.169-14.718-274.169 122.339v45.312c-35.184 18.666-35.224 68.94 0 87.627v24.72c0 18.463 14.471 33.28 32.946 33.73 1.909.045 3.132.079 3.948.093 12.158 58.495 44.885 110.287 92.752 146.459 7.938 5.999 17.792 9.302 27.745 9.302h80.353c9.954 0 19.807-3.304 27.745-9.302 48.773-36.856 81.739-89.768 93.362-149.562 16.416-1.929 29.48-15.866 29.868-32.728l.462-20.036c42.006-15.598 43.448-74.576 2.121-92.138zm-401.735 45.649c0-14.134 8.843-26.477 21.647-31.37 7.843-2.992 13.362-2.027 18.189-2.211v67.161h-6.208c-18.416 0-33.628-14.963-33.628-33.58zm383.538 49.566-.382 16.591c-.248 10.791-10.317 19.202-21.35 16.97-7.562-1.553-13.337-7.894-14.096-15.619-.17-1.713-.056 3.484-.089-88.153 0-2.317-1.016-4.53-2.765-6.049-.306-.266-30.62-27.022-34.308-66.67-.591-6.349-7.966-9.429-12.905-5.552-41.438 32.521-86.124 45.729-132.815 39.249-4.379-.607-8.416 2.449-9.023 6.825s2.449 8.416 6.825 9.023c47.113 6.534 92.179-5.077 134.146-34.527 7.209 31.825 27.382 53.894 34.846 61.179.039 88.421-.101 83.119.137 85.867 1.134 13.006 9.681 24.084 21.612 28.597-11.057 55.462-41.785 104.515-87.095 138.753-5.177 3.913-11.605 6.067-18.098 6.067h-80.353c-6.493 0-12.921-2.155-18.099-6.068-44.827-33.874-75.468-82.394-86.797-137.189 11.317-5.576 18.732-17.255 18.732-30.237v-142.389c5.507 3.47 11.603 6.924 18.154 10.193 5.452 2.72 11.778-1.427 11.568-7.431-.099-2.837-1.707-5.531-4.426-6.887-17.61-8.785-28.121-17.312-28.217-17.391-5.213-4.285-13.08-.563-13.08 6.181-.033 168.31.076 157.692-.083 159.399-.865 9.306-8.83 16.266-18.122 16.06l-3.687-.09c-9.721-.237-17.336-8.028-17.336-17.735v-19.474c5.682.83 9.583.41 21.403.521 4.418 0 8-3.582 8-8v-83.161c0-4.418-3.582-8-8-8-9.324.191-14.97-.419-21.403.521v-40.065c0-123.913 144.878-200.522 250.881-107.506 2.101 1.843 5.026 2.451 7.692 1.613.372-.117 37.497-11.461 66.397 8.049 20.664 13.951 32.698 40.404 35.771 78.63l-1.356 58.879c-2.649-.185-17.545-.121-17.655-.12-4.418 0-8 3.582-8 8v83.161c0 4.418 3.582 8 8 8 15.535-.001 14.532.005 15.376-.015zm6.322-16.836c-4.976 1.13-8.518.837-13.696.85v-67.161h6.208c18.234 0 33.628 14.794 33.628 33.581 0 15.945-11.191 29.321-26.14 32.73z"/><path d="m220.958 407.685c4.781 2.199 11.25 2.486 19.773.876 23.476-4.431 34.533 4.8 46.877-.876 5.169-2.377 8.513-5.84 9.938-10.293 3.186-9.956-4.588-20.307-11.25-32.522-5.268-9.658-8.729-27.674-9.745-50.731-.518-11.726-10.299-20.911-22.269-20.911s-21.751 9.186-22.268 20.911c-1.017 23.056-4.478 41.073-9.745 50.731-6.839 12.541-14.408 22.651-11.25 32.522 1.426 4.453 4.769 7.916 9.939 10.293zm15.359-35.154c8.218-15.068 10.889-39.688 11.683-57.687.139-3.149 2.899-5.616 6.284-5.616s6.145 2.467 6.284 5.616c.793 18 3.465 42.62 11.683 57.687 4.107 7.53 9.936 16.744 10.038 19.833-4.26 3.356-12.723-1.077-28.004-1.077-15.298 0-23.752 4.444-28.004 1.077.074-2.341 5.949-12.339 10.036-19.833z"/><path d="m180.036 186.831c-4.54 0-8.013 3.667-8.013 8 0 4.418 3.594 8 8.013 8s8-3.582 8-8-3.582-8-8-8z"/></svg>