<svg id="Layer_1" enable-background="new 0 0 511.947 511.947" height="512" viewBox="0 0 511.947 511.947" width="512" xmlns="http://www.w3.org/2000/svg"><path d="m445.993 491.26c-13.114-21.697-76.869-132.558-44.006-184.406 83.547-131.807 20.27-365.599-212.713-293.269-39.088 12.135-66.846 36.973-82.504 73.823-12.256 28.844-13.16 56.733-12.98 67.385.135 7.941 4.597 12.271 10.284 16.305-4.089 23.795.513 40.061-12.347 70.057-6.83 15.93-14.789 28.393-23.654 37.044-5.98 5.833-5.331 15.669 1.357 20.71 6.758 5.093 20.005 13.394 37.281 16.032 3.959 28.806 15.134 73.122 39.815 88.716 20.712 13.086 39.383 2.334 63.278-8.775 17.942-8.341 18.578-8.784 19.498-7.359 16.375 25.326 12.63 64.051 10.26 79.526-1.333 8.711 5.433 16.544 14.234 16.544h54.054c1.296 3.585 2.273 6.129 2.821 7.41 3.642 8.496 14.063 11.627 21.82 6.575 8.242-5.371 26.788-12.31 58.386 1.552 11.355 4.982 31.061 12.817 43.453 12.817 10.607-.001 17.148-11.61 11.663-20.687zm-48.689-6.782c-37.221-16.33-61.002-8.031-72.428-1.015-4.185-10.702-10.648-30.747-14.223-42.427-3.048-9.965-18.45-5.619-15.301 4.679 2.174 7.107 4.545 14.57 6.974 21.878h-46.672c4.144-28.93 2.959-64.204-12.918-88.757-4.586-7.092-13.615-9.884-21.468-6.643-35.306 14.58-50.396 27.913-66.188 17.944-9.056-5.717-15.976-17.671-21.114-31.049 8.816-.743 20.867-3.633 31.619-12.707 3.376-2.85 3.804-7.897.954-11.273s-7.897-3.804-11.273-.954c-9.278 7.83-20.282 9.131-26.453 9.15-4.008-14.456-6.198-28.447-6.959-36.397-.374-3.929-3.556-6.998-7.495-7.229-14.644-.86-26.429-7.32-33.158-11.997 9.574-9.966 18.054-23.48 25.231-40.221 13.301-31.022 10.247-50.67 12.6-68.391 20.468 7.923 42.554 5.85 63.165-1.438 1.306-.461 2.766.45 2.904 1.888 1.582 16.438 17.744 71.211 38.817 65.429 17.869-4.894 18.114-52.682 49.937-48.764 24.331 3.006 34.621 35.769 8.926 59.767-17.856 16.675-19.508 56.981-5.05 123.222.944 4.326 5.224 7.053 9.522 6.11 4.316-.942 7.052-5.205 6.11-9.522-17.007-77.915-7.089-101.182.337-108.116 33.719-31.488 21.623-77.011-11.735-86.127-41.441-11.33-54.77 35.37-61.745 46.561-8.442-8.669-18.106-38.813-19.192-50.092-.776-8.066-6.654-14.309-14.047-16.024-8.252-1.914-11.098 2.248-26.39 4.917-17.499 3.105-36.595.387-50.219-11.115-.367-.31-.574-.752-.583-1.244-.163-9.63.652-34.837 11.708-60.857 13.733-32.322 38.134-54.124 72.522-64.8 219.551-68.162 269.182 151.531 194.455 269.425-35.546 56.08 19.673 160.417 41.404 197.194-6.224-1.008-16.345-3.884-32.574-11.005z"/><path d="m287.988 127.063c-7.313-.701-14.884-.328-22.193 1.091-4.338.842-7.171 5.041-6.329 9.378.839 4.321 5.022 7.172 9.378 6.329 5.812-1.128 11.83-1.426 17.621-.871 4.391.413 8.304-2.804 8.726-7.202.42-4.397-2.804-8.304-7.203-8.725z"/><path d="m244.764 135.533c-6.959 3.692-13 8.356-17.956 13.863-2.956 3.284-2.688 8.343.596 11.298 3.276 2.949 8.335 2.696 11.298-.596 3.698-4.11 8.261-7.62 13.56-10.432 3.903-2.07 5.389-6.913 3.318-10.816s-6.915-5.388-10.816-3.317z"/><path d="m343.635 197.428c-4.418.046-7.962 3.665-7.917 8.083.07 6.153-.426 12.688-1.248 18.786-.645 4.777 3.06 9.071 7.938 9.071 3.943 0 7.377-2.916 7.918-6.931.936-6.931 1.459-14.072 1.393-21.092-.047-4.419-3.661-7.974-8.084-7.917z"/><path d="m343.31 193.406c4.323-.912 7.089-5.155 6.178-9.479-1.591-7.541-4.052-14.552-7.316-20.837-2.036-3.919-6.862-5.45-10.787-3.413-3.921 2.036-5.448 6.866-3.412 10.787 2.597 5 4.568 10.641 5.859 16.765.918 4.352 5.189 7.086 9.478 6.177z"/><path d="m328.638 145.039c-5.505-5.194-11.873-9.381-18.93-12.442-4.05-1.758-8.765.101-10.523 4.154s.102 8.765 4.154 10.523c5.35 2.321 10.166 5.484 14.316 9.401 3.206 3.025 8.269 2.893 11.31-.328 3.032-3.212 2.886-8.275-.327-11.308z"/><path d="m282.832 219.121c0-4.418-3.582-8.024-8-8.024s-8 3.558-8 7.976c-.001.057-.102 5.726-2.829 11.036-3.193 6.22-8.675 9.243-16.758 9.243-4.418 0-8 3.582-8 8s3.582 8 8 8c26.109-.001 35.587-21.668 35.587-36.231z"/><path d="m293.603 402.561c-4.418 0-8 3.582-8 8s3.582 8 8 8c4.54 0 8.013-3.667 8.013-8 0-4.418-3.595-8-8.013-8z"/></svg>