<svg id="Layer_1" enable-background="new 0 0 504.003 504.003" height="512" viewBox="0 0 504.003 504.003" width="512" xmlns="http://www.w3.org/2000/svg"><path d="m278.212 59.334c27.743 6.76 64.19 24.036 80.268 67.951 1.188 3.242 4.251 5.251 7.514 5.251 5.534 0 9.426-5.523 7.512-10.752-18.506-50.545-59.976-70.313-91.506-77.995-4.283-1.044-8.62 1.585-9.666 5.879-1.047 4.292 1.585 8.62 5.878 9.666z"/><path d="m472.545 407.753c-2.575-3.591-7.572-4.415-11.163-1.841l-14.612 10.476-11.417-15.915 11.426-8.191c3.59-2.574 4.415-7.575 1.839-11.165-69.378-96.711 27.697 38.61-84.698-118.068 6.773-14.904 14.63-29.474 23.418-43.373 54.928-86.868 7.194-207.873-148.576-219.318-69.588-5.114-108.22 46.379-182.722 39.016-4.614-.456-8.657 3.101-8.783 7.744-.029 1.07-.587 26.516 10.397 53.486 4.55 11.173 11.501 23.503 22.081 34.281-3.546 12.764-5.406 26.56-5.515 41.098-.248 33.499-13.78 70.226-40.22 109.16-.86 1.267-1.531 2.258-1.977 2.952-10.24 15.948 19.794 36.945 42.016 33.791-.044 16.559-9.368 54.096 11.114 80.45 15.334 19.729 62.734 11.04 87.044 4.929 25.081 13.88 25.963 67.796 24.096 87.993-.439 4.683 3.246 8.745 7.965 8.745h111.16c6.082 0 9.945-6.54 7.003-11.869-10.601-19.187-10.88-55.533-.88-105.462 2.423 1.094 5.724 2.818 9.638.2 7.031-4.701-.119-8.506 9.374-53.253l59.205 82.531c2.561 3.571 7.554 4.425 11.161 1.839l11.429-8.194 11.417 15.915-14.608 10.473c-3.591 2.575-4.415 7.572-1.841 11.163 2.566 3.579 7.562 4.423 11.163 1.841 8.27-5.928-9.941 7.127 42.224-30.271 3.592-2.574 4.416-7.572 1.842-11.163zm-93.945-96.791-22.854 16.385c-28.465-40.502-29.116-38.744-28.841-42.557l1.422-19.782c16.881 4.809 20.319 4.196 22.531 7.284.1.049-1.143-1.595 27.742 38.67zm-75.227 177.041h-90.638c.782-22.506-.757-81.186-36.533-96.573-1.668-.717-3.533-.844-5.285-.364-24.673 6.786-64.978 11.941-73.13 1.452-4.289-5.519-6.841-11.935-8.278-18.679 17.943 1.289 34.573-4.299 46.675-17.742 2.956-3.284 2.69-8.342-.593-11.298-3.285-2.957-8.343-2.69-11.298.593-11.923 13.244-28.051 13.312-36.406 12.239-.248-24.248 6.543-41.989-2.794-49.832-1.766-1.484-5.619-3.73-11.615-2.097-10.75 2.933-24.342-5.986-27.064-10.357 23.964-35.424 43.486-76.065 43.807-119.243.077-10.429 1.137-20.399 3.158-29.776 14.25 9.706 30.634 14.84 47.502 16.655 31.639 3.403 49.475 78.186 53.758 109.745 1.179 8.823 13.812 9.37 15.74.675 2.802-12.832 11.972-35.062 24.582-40.436 5.718-2.438 12.117-1.413 19.566 3.124 12.983 7.907 9.144 46.271-19.891 53.911-3.577.941-6.043 4.212-5.963 7.91.769 35.241 46.758 65.208 78.019 81.508-9.985 47.944-11.092 84.354-3.319 108.585zm24.794-171.649c-5.743 22.399-7.997 40.381-8.878 51.516-24.708-12.313-67.541-37.916-73.874-64.637 36.305-14.896 41.524-66.137 17.435-80.809-23.538-14.336-44.175-5.063-57.691 19.782-8.205-35.8-26.059-91.207-62.566-95.133-49.767-5.351-75.162-42.191-79-91.121 73.451 3.269 112.141-44.183 173.998-39.637 142.786 10.491 185.106 117.505 136.224 194.811-8.742 13.827-16.614 28.287-23.456 43.084-19.718-5.134-19.975-5.502-23.634-5.163l-3.224-4.495c-2.575-3.59-7.572-4.413-11.163-1.837-3.59 2.576-4.413 7.574-1.837 11.164l3.222 4.492c-1.202 2.698-1.242 4.706-1.343 5.318-2.264 32.09-4.818 23.94 15.787 52.665zm79.931 83.971-43.026-59.978 22.854-16.385 43.026 59.978c-18.011 12.913 6.401-4.589-22.854 16.385z"/><path d="m325.445 178.971c-1.454-4.171-6.011-6.376-10.188-4.919-4.172 1.455-6.374 6.016-4.919 10.188 1.841 5.28 3.02 11.17 3.503 17.508.319 4.199 3.826 7.393 7.968 7.393 4.673 0 8.339-3.968 7.985-8.608-.588-7.72-2.051-14.975-4.349-21.562z"/><path d="m314.567 159.151c-4.77-5.923-10.584-10.912-17.282-14.827-3.813-2.231-8.715-.945-10.943 2.869-2.23 3.814-.945 8.714 2.869 10.944 5.012 2.93 9.35 6.647 12.896 11.05 2.757 3.425 7.791 3.997 11.248 1.213 3.44-2.772 3.983-7.808 1.212-11.249z"/><path d="m232.618 138.624c-7.927 2.685-14.889 6.589-20.131 11.291-3.29 2.95-3.564 8.008-.615 11.297 2.954 3.293 8.012 3.561 11.297.615 3.646-3.269 8.688-6.052 14.582-8.048 4.185-1.417 6.428-5.958 5.011-10.144-1.417-4.185-5.959-6.429-10.144-5.011z"/><path d="m276.367 136.273c-6.94-1.514-14.442-2.144-22.008-1.743-4.412.233-7.8 3.999-7.567 8.411s3.99 7.813 8.411 7.566c5.815-.307 11.857.111 17.754 1.398 4.336.944 8.584-1.813 9.521-6.111.942-4.316-1.794-8.579-6.111-9.521z"/><path d="m254.375 45.334c0-4.342-3.497-8-8.025-8-4.418 0-7.987 3.582-7.987 8s3.595 8 8.013 8 7.999-3.582 7.999-8z"/></svg>