<svg id="Layer_1" enable-background="new 0 0 512.003 512.003" height="512" viewBox="0 0 512.003 512.003" width="512" xmlns="http://www.w3.org/2000/svg"><path d="m479.356 260.239c18.353-51.587 5.444-97.995-21.963-125.616-1.178-28.222-16.477-56.504-40.521-74.513-27.012-20.231-62.434-25.902-100.229-16.169-16.598-19.987-43.73-43.941-91.496-43.941-28.396 0-54.694 15.302-69.866 40.292-46.793-3.705-74.156 33.572-64.092 75.205-7.472 4.07-19.393 12.508-29.403 28.435-19.86 31.599-23.323 76.709-10.297 134.102-1.504 11.716-10.396 86.131-.767 137.043l-16.363 9.659c-9.922 5.857-13.236 18.702-7.39 28.634 5.872 9.975 18.682 13.267 28.622 7.399l10.927-6.45c3.681 4.363 7.88 7.588 12.545 9.623 20.866 9.096 80.241 12.106 115.834 13.099 11.676 10.549 24.509 19.523 38.464 26.862 20.638 10.854 45.337 10.797 66.063-.148 14.799-7.814 28.289-17.423 40.465-28.766 39.055-2.222 88.673-6.66 109.907-15.307 50.713-20.654 38.328-145.688 29.56-199.443zm-359.858 66.498c-15.26 0-27.416-12.401-27.416-27.417 0-12.88 8.911-23.714 20.881-26.639 1.231 19.357 3.583 38.021 6.535 54.056zm-72.039 120.253c-2.328 1.373-5.323.603-6.701-1.737-1.376-2.338-.599-5.361 1.734-6.739 133.164-78.606 161.202-95.347 161.267-94.833.898 7.744 1.378 9.481 1.3 12.892-.223 9.844-5.483 19.002-14.125 24.104l-65.086 38.42c-3.616 2.134-8.072 1.579-11.059-1.111-4.314-3.884-10.576-4.497-15.556-1.559zm38 2.283c-1.685-.734-3.3-1.831-4.837-3.28l25.058-14.791c7.007 5.358 16.447 6.766 24.838 3.383 3.085-1.244 3.362-1.752 21.537-12.378 7.558 13.707 16.428 26.605 26.582 38.272-46.963-1.897-81.148-5.96-93.178-11.206zm206.496 40.332c-16.06 8.48-35.18 8.531-51.145.135-32.71-17.202-57.219-43.428-74.962-75.677l33.219-19.61c15.378-9.077 23.87-26.398 21.649-44.122-1.178-4.329.736-15.907-10.032-21.193-4.916-2.415-10.668-2.193-15.383.592l-51.463 30.378c-10.33-35.085-15.063-73.294-15.845-110.31 33.984-10.476 61.912-42.24 65.325-79.39 24.194 12.398 54.397 11.103 78.181-5.98 13.342 62.752 81.548 92.293 132.881 58.636 3.001 100.245-21.403 218.48-112.425 266.541zm127.591-216.929c11.982 2.917 20.904 13.756 20.904 26.645 0 15.118-12.277 27.417-27.367 27.417-.489-.001 4.208-18.718 6.463-54.062zm43.692-11.823c7.388 42.607 20.037 167.919-19.476 184.01-13.188 5.371-44.61 10.018-87.632 13.06 27.556-32.698 44.179-73.649 53.583-115.186h3.369c23.913 0 43.367-19.477 43.367-43.417 0-21.468-15.648-39.336-36.123-42.799.383-11.704.366-23.385.043-34.027 0-11.844-13.96-19.928-24.635-12.893-46.728 30.794-107.425-3.255-110.267-61.438-.349-7.181-9.123-10.115-13.835-5.073-22.233 23.788-56.91 25.812-81.322 6.421-5.505-4.374-13.606.008-12.939 7.022 3.547 37.279-24.718 68.922-54.092 77.976-6.749 2.08-11.416 8.456-11.268 15.563.045 2.161.112 4.307.182 6.45-20.469 3.468-36.111 21.333-36.111 42.798 0 23.94 19.454 43.417 43.366 43.417h3.344c1.847 8.122 4.339 17.637 6.84 25.758l-64.176 37.883c-8.014-51.652 1.97-126.847 2.079-127.656.69-5.088-21.837-77.495 7.153-125.234 12.396-20.412 27.987-25.815 28.588-26.016 4.439-1.409 6.744-6.305 4.995-10.626-.11-.271-10.755-27.344 7.844-47.892 15.428-17.043 41.71-12.269 41.947-12.222 3.477.683 6.992-.998 8.637-4.137 11.823-22.573 34.22-36.595 58.448-36.595 44.164 0 68.106 23.963 82.273 41.988 2.021 2.57 5.402 3.655 8.54 2.734 44.573-13.064 74.263-.58 91.319 12.195 21.087 15.793 34.187 40.78 34.187 65.208 0 2.347 1.031 4.576 2.819 6.096.464.394 46.061 40.239 19.331 112.489-.488 1.323-.619 2.753-.378 4.143z"/><path d="m319.676 402.765c-11.5-5.021-20.268-9.226-24.687-11.837-10.188-6.022-22.594-2.593-28.724-.21-6.129-2.383-18.538-5.812-28.724.21-4.415 2.609-13.182 6.813-24.687 11.837-9.57 4.178-10.539 17.407-1.665 22.921 5.57 3.462 13.925 8.447 22.087 12.529 10.165 5.084 22.356 5.97 32.988 3.686 5.417 1.164 19.39 3.115 32.989-3.687 8.17-4.087 16.52-9.069 22.085-12.528 8.874-5.512 7.911-18.741-1.662-22.921zm-27.578 21.14c-11.175 5.589-23.435 2.129-23.514 2.106-1.512-.458-3.125-.458-4.637 0-.119.037-12.336 3.485-23.514-2.106-5.516-2.758-11.179-5.992-15.89-8.813 7.564-3.386 16.025-7.369 21.14-10.391 4.566-2.701 13.412.104 16.953 1.872 2.279 1.161 4.979 1.161 7.258 0 3.386-1.724 12.356-4.589 16.952-1.872.298 0 2.806 2.185 21.141 10.391-4.707 2.82-10.369 6.052-15.889 8.813z"/><path d="m246.165 361.495 12.86 7.304c4.272 2.428 9.582 2.428 13.856.001l12.861-7.305c3.842-2.182 5.188-7.065 3.005-10.907-2.182-3.841-7.063-5.188-10.907-3.006l-3.887 2.208v-23.513c0-4.418-3.582-8-8-8s-8 3.582-8 8v23.513l-3.887-2.208c-3.844-2.182-8.725-.837-10.907 3.006-2.182 3.841-.836 8.725 3.006 10.907z"/><path d="m318.866 379.895c2.16 4.413 6.543 7.408 11.437 7.815l14.734 1.229c4.385.369 8.269-2.89 8.638-7.308.367-4.403-2.905-8.27-7.308-8.637l-4.47-.373 13.248-19.432c2.488-3.65 1.547-8.627-2.104-11.116-3.651-2.488-8.628-1.548-11.117 2.104l-13.23 19.406-1.968-4.019c-1.943-3.968-6.733-5.61-10.703-3.667-3.968 1.943-5.609 6.735-3.666 10.703z"/><path d="m233.493 38.504c-30.926 1.748-50.849 27.107-51.682 28.186-2.7 3.497-2.055 8.521 1.442 11.222 3.483 2.688 8.509 2.07 11.222-1.442.159-.207 16.209-20.651 39.92-21.991 15.547-.874 31.25 6.75 46.705 22.673 3.076 3.17 8.142 3.247 11.312.169 3.171-3.077 3.246-8.142.169-11.313-18.83-19.401-38.694-28.657-59.088-27.504z"/><path d="m179.007 86.95c-1.426-3.489-5.153-5.526-8.95-4.79-5.785 1.252-8.14 7.615-5.09 12.29 1.76 2.669 5.116 4.057 8.22 3.4 4.956-.973 7.747-6.281 5.82-10.9z"/></svg>