<svg id="Layer_1" enable-background="new 0 0 512.073 512.073" height="512" viewBox="0 0 512.073 512.073" width="512" xmlns="http://www.w3.org/2000/svg"><path d="m292.555 414.59c-12.092-4.96-21.314-9.114-25.968-11.697-10.579-5.873-23.553-2.361-29.751-.057-6.197-2.305-19.171-5.816-29.75.057-4.653 2.583-13.876 6.737-25.969 11.697-9.989 4.096-10.961 17.557-1.672 22.979 5.836 3.406 14.586 8.309 23.13 12.322 10.613 4.985 23.337 5.794 34.261 3.542 5.435 1.121 20.04 3.138 34.261-3.542 8.549-4.016 17.297-8.917 23.13-12.322 9.288-5.423 8.317-18.884-1.672-22.979zm-28.261 20.818c-12.016 5.645-25.175 2.142-25.271 2.116-1.431-.407-2.945-.407-4.376 0-.128.037-13.272 3.52-25.271-2.116-5.638-2.648-11.421-5.738-16.289-8.467 7.827-3.296 16.497-7.137 21.762-10.06 5.479-3.041 15.485.396 18.534 1.829 2.183 1.043 4.719 1.043 6.901 0 2.477-1.184 12.884-4.967 18.535-1.829.664 0 .915 1.281 21.762 10.06-4.864 2.729-10.646 5.818-16.287 8.467z"/><path d="m216.346 377.045c22.676 12.863 18.388 12.816 40.98 0 3.843-2.18 5.191-7.063 3.011-10.906-2.18-3.844-7.063-5.192-10.906-3.011l-4.596 2.607v-25.132c0-4.418-3.582-8-8-8s-8 3.582-8 8v25.132l-4.595-2.607c-3.843-2.18-8.725-.832-10.906 3.011-2.179 3.843-.831 8.726 3.012 10.906z"/><path d="m180.558 380.979c2.031-3.924.497-8.751-3.427-10.782-3.923-2.032-8.75-.497-10.782 3.427l-2.429 4.692-13.71-21.059c-2.411-3.703-7.367-4.749-11.069-2.34-3.703 2.411-4.75 7.367-2.34 11.069l13.712 21.063-5.275.324c-4.41.271-7.766 4.064-7.495 8.475.26 4.243 3.783 7.511 7.978 7.511.379 0 5.013-.293 15.912-.961 4.994-.306 9.525-3.257 11.826-7.702z"/><path d="m491.858 392.96c-.021-.102-10.877-52.739-10.938-53.023-.893-4.328-5.127-7.112-9.451-6.219-4.327.893-7.111 5.124-6.219 9.451l3.853 18.677-20.648 4.261-3.028-14.68c-.892-4.328-5.131-7.116-9.46-6.217l-39.411 8.176c.978-5.174 1.783-10.365 2.42-15.548 16.683-2.852 30.189-17.299 30.189-36.155 32.593-17.957 32.631-64.713 0-82.691v-42.653c18.494-14.137 32.597-33.604 41.449-57.502 9.544-25.766 9.654-47.496 9.654-48.409 0-5.797-5.99-9.672-11.276-7.298-.417.188-42.628 18.236-112.843-27.997-104.455-68.778-295.132-36.865-320.457 98.305-5.71 30.474.314 48.072 8.815 58.23v27.324c-32.593 17.957-32.632 64.713 0 82.691 0 18.75 13.41 33.283 30.181 36.153 8.002 65.354 42.352 125.195 94.975 165.013 7.86 5.948 17.618 9.224 27.475 9.224h79.394c9.857 0 19.615-3.275 27.476-9.224 28.46-21.535 52.164-49.563 68.786-81.217 10.834-2.25 55.851-11.601 75.711-15.726 4.323-.896 7.102-5.125 6.21-9.449l-3.028-14.681 20.648-4.261 3.853 18.676c.888 4.306 5.103 7.115 9.451 6.219 4.327-.892 7.112-5.123 6.219-9.45zm-144.099 15.961c-20.032-10.699-18.559-9.97-18.449-10.106l13.003-16.3c2.607-3.267 1.991-1.415 52.679-12.412l6.046 29.31c-50.767 9.994-49.556 11.498-53.279 9.508zm58.724-117.411h-4.132v-62.346c4.689.013 8.708-.295 14.601 1.815 12.173 4.352 20.697 15.98 20.697 29.358 0 17.09-13.901 31.173-31.166 31.173zm6.682-104.852v26.979c-5.925-.844-10.958-.305-18.814-.472-4.418 0-8 3.582-8 8v78.346c0 4.418 3.582 8 8 8 9.439-.096 13.237.246 18.169-.384-2.343 9.061-10.845 15.821-20.97 15.175-10.699-.667-19.034-9.568-19.034-20.264v-99.201c11.297-3.521 29.472-10.194 40.649-16.179zm-357.2 44.606c7.669-2.964 13.46-1.848 15.356-2.1v62.346c-4.503-.012-4.467.038-6.169-.074-16.398-1.058-29.129-14.762-29.129-31.099 0-13.231 8.289-24.556 19.942-29.073zm5.187 75.862c4.186.538 7.421.358 18.169.384 4.418 0 8-3.582 8-8v-78.346c0-4.418-3.582-8-8-8-7.64.162-12.894-.372-18.813.472v-10.508c12.564 5.037 27.493 4.464 40.648 1.765-.038 104.299.098 97.232-.116 99.293-.794 7.518-5.738 13.892-12.47 16.64-11.385 4.712-24.34-1.797-27.418-13.7zm233.202 182.964c-5.099 3.858-11.428 5.983-17.821 5.983h-79.394c-6.394 0-12.722-2.125-17.821-5.982-48.874-36.981-80.883-92.439-88.613-153.075 13.528-3.773 23.88-15.158 26.038-29.505.929-6.211.097-6.708.413-107.011 11.219-3.816 23.442-9.609 33.94-16.309 10.349 2.922 84.94 22.959 92.254 21.324 8.48-1.892 8.237-14.123-.306-15.681-22.858-4.167-46.93-9.993-69.463-16.045-27.023-7.904-49.009-23.413-58.31-34.285-2.841-3.37-7.876-3.807-11.256-.973-3.385 2.839-3.828 7.885-.989 11.271.668.796 11.388 13.343 32.286 25.163-20.737 11.503-59.129 24.506-76.564 8.485-9.128-8.426-11.611-24.211-7.329-47.066 22.946-122.479 200.041-151.025 295.931-87.888 55.929 36.826 96.856 36.189 116.057 32.647-6.155 48.623-31.179 81.804-75.559 99.27-27.17 10.688-49.983 16.131-80.949 16.131-4.406 0-7.985 3.565-8 7.974-.014 4.418 3.556 8.012 7.974 8.026 16.867.058 33.078-1.511 49.643-5.349.018 100.796-.152 96.697.424 100.395 2.15 14.17 12.404 25.626 26.023 29.424-.851 6.644-2.005 13.302-3.451 19.907-5.923 1.229-35.622 7.389-36.726 7.622-5.289 1.11-9.83 4.044-12.982 7.994-12.305 15.911-14.177 16.619-15.731 21.401l-5.84 1.205c-4.327.893-7.111 5.125-6.218 9.452.78 3.782 4.111 6.385 7.827 6.385 1.373 0 1.799-.25 7.465-1.372 1.378 1.567 2.855 2.713 4.525 3.604 19.532 10.409 22.303 12.886 30.381 12.433-14.978 24.895-34.748 46.958-57.859 64.445zm122.35-93.927-6.057-29.36 20.727-4.3 6.056 29.36z"/><path d="m274.031 210.54c4.54 0 8.012-3.667 8.012-8 0-4.418-3.594-8-8.012-8s-8 3.582-8 8 3.582 8 8 8z"/></svg>