<svg id="Layer_1" enable-background="new 0 0 511.967 511.967" height="512" viewBox="0 0 511.967 511.967" width="512" xmlns="http://www.w3.org/2000/svg"><path d="m498.605 296.563c7.844-20.178 17.606-45.291 11.388-99.133-2.115-18.31-7.78-34.295-16.836-47.511-2.5-3.645-7.478-4.575-11.122-2.077-3.645 2.498-4.574 7.477-2.077 11.121 7.569 11.046 12.327 24.606 14.141 40.303 12.813 110.941-44.747 84.232-4.695 190.59 3.563 9.46 7.601 20.183 5.506 22.784-.834 1.035-3.275 3.223-9.891 5.229-.259-3.421-.792-10.453-1.065-14.061-1.885-24.881-22.91-44.375-47.87-44.375h-8.494c0-14.962-.063-14.19.037-14.272 26.919-22.063 39.915-51.54 46.077-72.383 7.918-26.78 8.287-51.276 5.993-65.271-.334-2.041-1.446-3.873-3.103-5.112-1.693-1.268-17.772-12.064-59.904-.879-11.669 3.095-21.973-.878-31.508-12.152-7.857-9.289-11.877-19.995-11.911-20.087-2.64-7.207-12.969-6.893-15.173.45-7.146 23.778-32.396 31.306-32.621 31.371-2.996.839-5.234 3.339-5.738 6.41-6.219 37.923 8.473 101.904 52.107 137.684v14.243h-8.494c-24.952 0-45.985 19.485-47.87 44.375l-1.065 14.061c-6.618-2.005-9.057-4.193-9.891-5.229-2.095-2.601 1.943-13.323 5.506-22.784 39.986-106.184-17.48-79.894-4.695-190.59 3.833-33.188 20.514-56.127 49.577-68.182 24.045-9.973 54.629-11.472 81.223-3.053 4.209 1.335 8.707-1 10.041-5.212 1.333-4.212-1-8.708-5.213-10.042-30.685-9.713-64.706-7.701-91.626 3.3-24.18 9.881-54.198 32.015-59.896 81.354-6.219 53.842 3.544 78.955 11.388 99.133 8.221 21.149 14.076 34.947-5.771 87.654-7.751 20.58-16.464 41.19 18.128 49.903.071 1.078-1.135 4.878 1.948 8.201 4.506 4.861.769 1.629 163.301 2.561 4.65 0 8.329-3.96 7.978-8.604l-.163-2.158c10.027-2.526 16.974-6.295 21.121-11.444 7.829-9.72 3.054-22.402-2.993-38.458-19.919-52.891-13.86-66.858-5.775-87.658zm-87.017 72.947c0 6.544-5.326 11.868-11.872 11.868s-11.871-5.324-11.871-11.868c0-4.047 0-11.937 0-15.992 7.763 2.182 15.98 2.183 23.743 0zm-76.645-154.843c7.474-3.062 21.404-10.304 30.981-24.499 12.638 19.971 31.786 32.939 54.87 26.811 25.109-6.666 38.358-4.427 43.653-2.75 2.704 26.65-4.973 84.14-46.965 118.556-10.409 8.534-25.371 8.331-35.532 0-41.766-34.23-49.585-91.283-47.007-118.118zm-5.315 214.215c.635-8.386 1.137-15.005 1.808-23.866 1.258-16.616 15.301-29.583 31.915-29.583h9.128c2.746 12.654 14.071 21.945 27.238 21.945 13.115 0 24.477-9.223 27.237-21.945h9.128c16.64 0 30.659 12.995 31.915 29.583.552 7.292 1.135 14.989 1.808 23.867h-140.177z"/><path d="m207.867 173.799c-27.126-79.742-175.842-79.749-202.97 0-14.255 41.905 8.025 93.852-.612 116.676-10.197 26.942-.643 48.319 22.203 59.321 17.063 8.219 37.711-2.706 44.656-6.952h4.592c.897.78 1.807 1.553 2.738 2.315.1.082.037-.68.037 14.272h-8.494c-24.958 0-45.985 19.492-47.87 44.375l-2.459 32.471c-.352 4.637 3.32 8.604 7.977 8.604h157.434c4.651 0 8.329-3.96 7.977-8.604-2.849-37.622-2.459-31.94-2.459-32.471-1.885-24.883-22.912-44.375-47.87-44.375h-8.494v-14.243c.102-.085 1.058-.853 2.774-2.344h4.592c13.111 8.015 30.732 13.659 44.656 6.952 22.824-10.992 32.408-32.357 22.203-59.321-8.68-22.938 13.706-74.587-.611-116.676zm-135.279 16.369c11.322 17.89 27.936 30.812 49.006 27.979 7.016-.918 31.99-9.472 49.513-3.92 3.768 37.871-11.889 89.812-46.959 118.558-10.228 8.383-25.19 8.477-35.532 0-34.739-28.472-50.592-79.897-47.001-118.122 13.196-5.406 24.158-14.393 30.973-24.495zm45.665 179.342c0 6.544-5.326 11.868-11.872 11.868s-11.872-5.324-11.872-11.868c0-4.047 0-11.94 0-15.993 7.763 2.183 15.983 2.182 23.744 0zm56.41 35.506 1.807 23.867h-140.177l1.807-23.867c1.256-16.588 15.275-29.583 31.916-29.583h9.127c2.531 11.674 12.512 20.831 24.982 21.846 14.18 1.143 26.619-8.533 29.495-21.846h9.127c16.64 0 30.659 12.994 31.916 29.583zm18.852-108.877c6.885 18.192 2.113 31.396-14.182 39.243-8.733 4.206-22.477-2.064-28.991-5.96 28.19-32.778 42.111-84.754 36.018-121.916-.341-2.079-1.497-3.989-3.308-5.26-1.437-1.021-6.009-3.765-15.12-5.082-20.817-3.012-43.199 4.361-48.178 5.07-18.615 2.648-32.777-15.428-39.621-32.449-3.379-8.407-13.308-6.93-15.373-.059-2.792 9.291-8.574 16.823-16.162 22.613-16.688 12.734-21.175 4.697-22.789 19.583-4.028 36.154 8.55 84.8 36.596 117.484-7.833 4.617-20.781 9.924-28.977 5.976-16.295-7.848-21.066-21.051-14.182-39.243 10.918-28.845-12.193-79.001.796-117.187 22.18-65.206 150.496-65.198 172.675 0 12.999 38.207-10.144 88.275.798 117.187z"/><path d="m305.653 128.408c3.356 0 6.373-2.102 7.521-5.28l10.496-29.035c1.502-4.155-.648-8.741-4.804-10.243-4.153-1.501-8.74.648-10.243 4.804l-4.656 12.88c-9.691-12.888-30.775-34.651-62.639-34.651-43.094 0-67.638 41.931-68.662 43.716-2.198 3.833-.873 8.722 2.96 10.92 3.832 2.198 8.721.873 10.92-2.96.205-.357 20.853-35.676 54.782-35.676 25.29 0 42.66 18.681 50.3 28.95l-16.507-.67c-4.418-.173-8.14 3.255-8.317 7.669-.18 4.415 3.254 8.139 7.669 8.318 31.656 1.284 30.915 1.258 31.18 1.258z"/><path d="m465.936 141.685c4.418 0 8-3.582 8-8s-3.582-8-8-8c-4.533 0-8.012 3.662-8.012 8 0 4.418 3.594 8 8.012 8z"/></svg>