<svg id="Layer_1" enable-background="new 0 0 511.949 511.949" height="512" viewBox="0 0 511.949 511.949" width="512" xmlns="http://www.w3.org/2000/svg"><path d="m466.112 243.891c-7.482-10.87-15.376-20.931-18.67-25.057-2.273-25.139-11.043-61.951-25.06-92.009 10.974-10.644 5.698-24.378-3.851-36.159-70.346-86.79-155.925-111.899-247.486-72.612-12.638 5.422-24.148 12.016-34.511 19.713-22.809-38.3-80.563-43.78-101.336-7.842-18.752 32.433 6.747 75.647 47.426 82.797-25.175 75.699 6.882 160.906 53.018 187.818 5.804 3.403 16.595 7.974 28.692 9.731 8.352 7.913 15.932 14.18 20.966 18.145 4.258 3.353 6.781 8.419 6.926 13.898 1.659 63.297-25.35 106.15-38.33 126.744-7.13 11.313-10.709 16.991-6.694 22.944 1.329 1.97 4.573 5.093 11.367 3.87 70.433-12.677 146.02 30.965 171.409 10.546 5.185-4.171 7.822-10.363 7.839-18.403.01-4.994 1.03-16.453 2.927-33.194 8.775 2.912 15.26-8.423 8.238-14.492-2.067-1.786-4.011-3.699-5.84-5.714 1.549-12.575 3.411-26.994 5.558-42.99.354-2.63 3.042-4.282 5.568-3.37 9.645 3.484 25.754 7.887 47.732 9.075 31.099 1.677 42.959-26.456 45.08-57.805 4.339-3.134 4.925-9.603.401-13.48-.048-8.486-.613-16.101-1.174-21.642 18.49-1.332 27.654-9.662 34.178-17.954 5.802-7.375 1.906-18.91-14.373-42.558zm-377.541-146.473c-30.919-3.309-53.221-35.783-39.521-59.485 15.008-25.963 59.488-19.474 74.959 10.207-15.011 13.831-26.98 30.484-35.438 49.278zm88.782-64.66c90.183-38.695 167.111-8.063 228.748 67.982 7.055 8.704 6.536 12.224 6.209 13.095-2.834 7.558-37.984 12.739-46.045 14.136-46.701 8.098-65.722 9.556-88.748 66.168-.716 1.761-1.501 3.69-2.261 5.465-18.425-28.733-51.06-49.281-75.996-26.604-34.915 31.748 12.324 78.906.384 106.404-5.808 13.376-16.661 16.449-31.041 15.292-84.055-9.181-127.717-203.384 8.75-261.938zm260.297 255.746c-5.007-.257-9.093 4.201-8.283 9.258.66 4.125 1.364 10.241 1.773 17.31-1.186-.609-2.382-1.2-3.598-1.753-4.271-1.942-9.313-.053-11.255 4.222-1.942 4.274-.052 9.313 4.222 11.255 3.786 1.721 7.396 3.795 10.796 6.185-1.021 22.144-6.306 47.561-28.442 46.372-20.031-1.083-34.526-5.027-43.159-8.146-12.107-4.376-25.152 3.542-26.862 16.288-1.252 9.325-2.762 20.777-4.259 32.601-6.324.549-9.886 7.677-6.395 13.08 1.275 1.973 2.64 3.881 4.073 5.737-2.459 20.533-4.43 39.362-4.445 47.07-.009 4.473-1.408 5.598-1.868 5.968-13.574 10.923-89.214-22.172-153.121-15.402 26.277-41.827 42.825-82.043 41.393-136.654-.485-18.508-13.257-26.013-20.908-32.505 12.267-3.215 21.642-11.256 27.01-23.613 15.401-35.468-29.382-78.129-4.297-100.939 17.549-15.954 42.429 6.877 53.858 26.853 2.83 4.952 6.737 9.012 12.479 8.629 7.997-.534 11.344-8.763 15.977-20.152 7.131-17.533 17.907-44.029 44.146-50.144 26.836-6.253 54.543-8.715 72.005-15.15 19.244 41.954 23.036 85.333 23.179 87.208.033 1.783.662 3.515 1.8 4.91 17.262 21.164 32.007 43.693 33.398 50.838-9.124 10.683-19.416 11.144-29.217 10.674z"/><path d="m420.641 450.589c-5.801 2.651-11.946 4.453-18.269 5.355-4.647.663-7.877 4.968-7.214 9.615.66 4.626 4.947 7.88 9.616 7.214 7.935-1.132 15.65-3.394 22.933-6.722 4.27-1.952 6.149-6.995 4.197-11.264-1.95-4.27-6.995-6.15-11.263-4.198z"/><path d="m383.297 455.954c-6.323-.896-12.473-2.69-18.277-5.335-4.269-1.946-9.312-.062-11.259 4.21s-.063 9.313 4.21 11.26c10.511 4.79 21.536 6.783 24.146 6.783 4.166 0 7.805-3.065 8.405-7.31.658-4.648-2.577-8.949-7.225-9.608z"/><path d="m467.617 376.466c4.502-1.333 7.07-6.062 5.738-10.563-2.271-7.671-5.634-14.975-9.997-21.709-2.554-3.941-7.815-5.063-11.756-2.512-3.939 2.553-5.064 7.815-2.512 11.755 3.477 5.366 6.156 11.184 7.964 17.292 1.334 4.507 6.068 7.068 10.563 5.737z"/><path d="m460.919 423.35c-3.944-2.542-9.204-1.408-11.75 2.537-3.46 5.365-7.665 10.208-12.499 14.395-5.932 5.137-2.274 14.925 5.568 14.925 1.972 0 3.953-.683 5.561-2.075 6.055-5.244 11.322-11.311 15.657-18.032 2.544-3.944 1.408-9.205-2.537-11.75z"/><path d="m468.291 381.06c-4.502 0-8.5 3.555-8.5 8.662 0 6.417-.907 12.762-2.695 18.857-1.321 4.504 1.259 9.228 5.764 10.549 4.504 1.322 9.228-1.259 10.549-5.763 2.245-7.651 3.383-15.606 3.383-23.644-.001-5.088-3.982-8.661-8.501-8.661z"/><path d="m357.805 313.431c-7.267 3.33-14.022 7.684-20.078 12.94-3.545 3.077-3.924 8.446-.847 11.991s8.445 3.924 11.991.847c4.832-4.195 10.221-7.668 16.016-10.324 4.268-1.956 6.142-7 4.187-11.269-1.958-4.267-7.002-6.141-11.269-4.185z"/><path d="m404.593 306.645c-7.852-1.104-16.015-1.089-23.862.038-4.646.668-7.872 4.977-7.203 9.624.669 4.661 4.993 7.871 9.623 7.204 6.267-.902 12.803-.913 19.077-.03 4.657.652 8.947-2.586 9.6-7.235.652-4.649-2.586-8.947-7.235-9.601z"/><path d="m333.837 341.869c-3.948-2.539-9.208-1.398-11.747 2.551-4.343 6.751-7.683 14.066-9.928 21.744-1.317 4.506 1.267 9.227 5.772 10.544 4.504 1.316 9.225-1.264 10.544-5.772 1.787-6.112 4.448-11.939 7.908-17.319 2.541-3.949 1.399-9.208-2.549-11.748z"/><path d="m325.805 389.796c-.007-8.204-9.274-8.835-8.508-8.492-4.694.004-8.496 3.813-8.492 8.508.008 8.04 1.154 15.995 3.409 23.644 1.323 4.489 6.04 7.081 10.557 5.75 4.503-1.328 7.077-6.054 5.75-10.557-1.797-6.093-2.711-12.436-2.716-18.853z"/><path d="m150.676 238.161c-37.473-33.629-26.44-87.695-26.324-88.237.93-4.313-1.808-8.565-6.12-9.503-4.32-.938-8.578 1.799-9.518 6.117-.561 2.578-13.224 63.598 31.274 103.532 3.289 2.951 8.346 2.677 11.298-.611 2.951-3.289 2.678-8.347-.61-11.298z"/><path d="m122.933 125.758c4.418 0 8-3.582 8-8s-3.582-8-8-8c-4.54 0-8.013 3.667-8.013 8 .001 4.418 3.595 8 8.013 8z"/></svg>