<svg id="Layer_1" enable-background="new 0 0 511.911 511.911" height="512" viewBox="0 0 511.911 511.911" width="512" xmlns="http://www.w3.org/2000/svg"><path d="m155.64 324.473c8.528-5.835 18.193-12.449 24.085-20.495 17.333-23.669 19.67-53.044 19.67-78.657v-65.849c20.334-9.8 34.763-25.006 42.662-45.293 1.877-4.822-1.257-10.147-6.397-10.832-.325-.043-32.776-4.493-60.541-18.733-55.229-28.328-126.461-41.037-159.949 11.063-25.35 39.438-15.498 84.817 4.495 103.25-.243 28.251.484 23.44-.655 42.764-1.072 18.162-2.18 36.942 7.16 53.039 9.421 16.238 32.784 25.927 45.81 35.784 1.826 1.382 3.823 2.522 5.925 3.409v10.844l-22.76 7.269c-21.913 6.998-36.636 27.156-36.636 50.162v41.73c0 4.418 3.582 8 8 8h159.916c4.418 0 8-3.582 8-8v-41.791c0-22.963-14.688-43.11-36.547-50.134l-22.411-7.2v-9.177c7.826-1.479 10.465-4.509 20.173-11.153zm-127.011-220.145c28.547-44.412 93.196-29.064 139.188-5.477 20.296 10.41 42.357 15.937 55.076 18.499-39.143 68.922-179.772 24.971-164.701 29.158-5.209-1.447-9.525 1.8-10.335 6.153-1.796 9.657-7.609 29.698-14.697 36.451-11.155-5.674-29.803-45.467-4.531-84.784zm11.38 182.373c-6.923-11.932-6.002-27.542-5.027-44.067 1.159-19.664.457-16.751.683-37.37 13.719-1.825 22.604-27.841 26.051-41.339 37.359 8.89 85.127 13.04 121.679 1.808 0 64.837 3.648 101.172-16.579 128.793-4.276 5.838-12.743 11.632-20.212 16.743-9.855 6.744-11.194 8.856-16.239 8.856-45.444 0-44.55.794-48.731-2.371-13.347-10.097-34.792-19.276-41.625-31.053zm79.458 65.559c0 7.047-5.733 12.781-12.781 12.781s-12.781-5.734-12.781-12.781c0-2.678 0-9.805 0-16.134h25.562zm58.958 49.878v33.791h-21.181v-18.034c0-4.418-3.582-8-8-8s-8 3.582-8 8v18.034h-69.554v-18.034c0-4.418-3.582-8-8-8s-8 3.582-8 8v18.034h-21.181v-33.73c0-16.016 10.249-30.049 25.503-34.921l19.287-6.159c8.551 26.402 46.122 26.552 54.76.039l18.923 6.08c15.219 4.888 25.443 18.914 25.443 34.9z"/><path d="m504.969 103.348c-.088-.012-8.914-1.215-21.155-4.333-4.282-1.09-8.636 1.496-9.727 5.778-1.091 4.281 1.496 8.637 5.778 9.727 4.667 1.189 8.855 2.116 12.339 2.82-36.918 65.04-163.63 29.48-164.957 29.098-4.836-1.393-9.273 1.886-10.083 6.219-1.918 10.253-7.36 29.051-14.718 36.446-10.637-5.165-30.105-44.955-4.51-84.775 25.844-40.21 80.011-31.254 123.784-12.665 4.065 1.728 8.763-.168 10.49-4.236 1.727-4.066-.169-8.763-4.236-10.49-159.369-67.683-184.637 86.826-137.028 123.663v24.721c0 41.083 19.557 80.407 52.315 105.192 2.693 2.038 5.758 3.539 8.988 4.479v9.774l-22.76 7.269c-21.913 6.998-36.636 27.156-36.636 50.162v41.73c0 4.418 3.582 8 8 8h159.917c4.418 0 8-3.582 8-8v-41.791c0-22.963-14.688-43.11-36.547-50.134l-22.411-7.2v-9.938c3.068-.948 5.978-2.406 8.55-4.352 32.758-24.786 52.315-64.11 52.315-105.192v-66.844c19.289-9.821 33.047-24.677 40.686-44.297 1.872-4.807-1.247-10.139-6.394-10.831zm-111.157 248.912c0 7.058-5.744 12.781-12.781 12.781-7.033 0-12.781-5.719-12.781-12.781 0-2.678 0-9.805 0-16.134h25.562zm58.958 49.878v33.791h-21.181v-18.034c0-4.418-3.582-8-8-8s-8 3.582-8 8v18.034h-69.554v-18.034c0-4.418-3.582-8-8-8s-8 3.582-8 8v18.034h-21.181v-33.73c0-16.016 10.249-30.049 25.503-34.921l19.287-6.159c8.559 26.426 46.134 26.516 54.76.039l18.923 6.08c15.219 4.888 25.443 18.914 25.443 34.9zm1.907-176.816c0 36.099-17.185 70.654-45.97 92.433-4.241 3.21-3.502 2.371-48.731 2.371-2.533 0-5.04-.842-7.06-2.371-28.785-21.779-45.97-56.333-45.97-92.433v-20.483c12.503-3.737 20.846-28.265 24.075-40.913 37.756 8.984 86.616 13.252 123.656 1.195z"/><path d="m365.86 202.1c0-4.418-3.582-8-8-8h-21.452c-4.418 0-8 3.582-8 8s3.582 8 8 8h21.452c4.418 0 8-3.582 8-8z"/><path d="m350.107 216.159c-4.878-.995-9.56 2.761-9.56 7.85 0 4.427 3.605 8 8 8 3.68 0 7.09-2.616 7.84-6.44.872-4.531-2.121-8.599-6.28-9.41z"/><path d="m395.764 202.1c0 4.418 3.582 8 8 8h21.452c4.418 0 8-3.582 8-8s-3.582-8-8-8h-21.452c-4.419 0-8 3.581-8 8z"/><path d="m411.517 216.159c-4.453.869-7.154 5.29-6.28 9.41.812 4.161 4.889 7.15 9.41 6.28 3.794-.744 6.43-4.123 6.43-7.84 0-5.062-4.652-8.851-9.56-7.85z"/><path d="m392.79 277.378c-8.111 3.765-16.077 3.478-23.056.067-3.97-1.94-8.761-.295-10.7 3.675-1.94 3.97-.294 8.76 3.675 10.7 11.429 5.585 24.621 5.735 36.201.356 10.668-4.956 3.292-19.17-6.12-14.798z"/><path d="m93.905 202.1c0-4.418-3.582-8-8-8h-21.452c-4.418 0-8 3.582-8 8s3.582 8 8 8h21.452c4.418 0 8-3.582 8-8z"/><path d="m83.977 227.058c1.667-3.998-.175-8.711-4.33-10.44-5.286-2.205-11.06 1.734-11.06 7.39 0 8.689 12.09 11.125 15.39 3.05z"/><path d="m131.809 210.1h21.452c4.418 0 8-3.582 8-8s-3.582-8-8-8h-21.452c-4.418 0-8 3.582-8 8s3.582 8 8 8z"/><path d="m139.557 216.159c-4.863.949-7.773 6.217-5.82 10.9 2.103 5.158 8.926 6.713 13.04 2.6 5.588-5.589.499-15.038-7.22-13.5z"/><path d="m87.946 280.837c-4.007 1.86-5.748 6.618-3.887 10.625s6.617 5.748 10.625 3.887c.263-.058 10.883-6.019 23.058-.068 3.971 1.941 8.76.295 10.7-3.675s.294-8.76-3.675-10.7c-19.244-9.405-36.577-.122-36.821-.069z"/><path d="m255.91 225.933c-2.495-3.647-7.473-4.582-11.12-2.085-3.646 2.495-4.581 7.473-2.085 11.12l3.177 4.644h-20.054c-4.418 0-8 3.582-8 8s3.582 8 8 8h20.054l-3.177 4.644c-2.495 3.646-1.561 8.625 2.085 11.12 3.63 2.484 8.614 1.577 11.12-2.085l11.74-17.161c1.863-2.723 1.863-6.311 0-9.034z"/><path d="m452.805 105.26c4.54 0 8.013-3.667 8.013-8 0-4.418-3.594-8-8.013-8s-8 3.582-8 8 3.581 8 8 8z"/></svg>