<svg id="Layer_1" enable-background="new 0 0 512.013 512.013" height="512" viewBox="0 0 512.013 512.013" width="512" xmlns="http://www.w3.org/2000/svg"><path d="m511.068 301.743c-4.996-14.938-9.757-41.744-4.067-84.608 12.857-96.868-7.677-160.55-108.421-166.108-.293-.017-.588-.017-.881 0-64.636 3.566-104.32 32.028-111.038 95.907-5.957 56.634 15.782 103.281-1.45 154.808-3.938 11.774 4.917 23.82 17.207 23.82h65.362c-5.477 5.491-11.383 7.129-11.436 7.236-13.71 5.423 4.121-1.739-16.764 6.942-15.819 6.266-25.417 22.422-23.34 39.29l9.229 74.963c.494 4.01 3.9 7.022 7.94 7.022h133.987c4.04 0 7.446-3.013 7.94-7.022l9.176-74.533c2.116-17.19-7.745-33.448-23.979-39.537-.1-.1 1.611.629-16.628-6.419-2.413-.603-8.004-3.762-11.86-7.941h61.817c12.322-.001 21.132-12.082 17.206-23.82zm-148.829-160.489c14.164 10.309 47.059 29.236 102.66 34.267-.026 28.041-9.846 79.269-48.503 110.905-10.559 8.64-25.915 8.675-36.514 0-38.701-31.67-49.956-85.032-48.391-116.126 9.026-4.884 21.549-13.845 30.748-29.046zm48.138 219.039c-5.515 5.515-14.489 5.516-20.005 0l-17.899-17.9c11.694-8.021 18.768-20.728 19.909-33.803 5.427.712 10.894.38 15.872-.781.69 13.882 7.689 26.907 19.472 35.137zm44.536-5.389c9.287 3.483 14.928 12.776 13.718 22.601l-8.312 67.511h-15.025v-20.275c0-4.418-3.582-8-8-8s-8 3.582-8 8v20.275h-57.839v-20.275c0-4.418-3.582-8-8-8s-8 3.582-8 8v20.275h-14.972l-8.364-67.941c-1.187-9.64 4.303-18.875 13.352-22.459 13.533-5.361 1.601-.698 11.662-4.935l21.926 21.926c11.674 11.674 30.746 11.886 42.632 0l21.214-21.214c.248.104-.668-.243 12.008 4.511zm38.948-45.342h-69.373c-.501-3.64-.202-5.905-.292-8.983 38.153-27.252 59.53-86.598 56.458-133.003-.265-4.002-3.453-7.19-7.455-7.454-38.946-2.574-66.215-12.495-82.232-20.363-17.232-8.466-25.493-16.435-25.657-16.595-3.98-3.945-10.703-2.673-12.957 2.473-7.945 18.129-21.726 27.576-31.888 32.309-2.57 1.197-4.315 3.666-4.586 6.488-2.778 28.956 4.906 94.305 53.871 134.375 2.152 1.761 4.432 3.286 6.805 4.586-.023.846.122 2.938-.437 6.169h-73.7c-1.442 0-2.489-1.38-2.033-2.745 5.531-16.54 10.846-45.89 4.755-91.788-11.74-88.446 3.173-142.873 93-148.002 89.267 5.097 104.843 58.775 93 148.002-8.237 62.062 4.755 89.907 4.755 91.788.46 1.375-.607 2.743-2.034 2.743z"/><path d="m346.524 195.461c2.246 3.799 7.15 5.06 10.953 2.819.076-.044 7.646-4.472 15.769-6.438 4.294-1.039 6.933-5.363 5.894-9.657s-5.36-6.936-9.657-5.894c-10.515 2.544-19.768 7.99-20.157 8.221-3.797 2.251-5.047 7.149-2.802 10.949z"/><path d="m369.797 198.04c-8.536 1.666-8.508 14.019 0 15.68 4.19.889 8.544-1.87 9.41-6.28 1.12-5.707-3.945-10.514-9.41-9.4z"/><path d="m222.737 217.135c5.13-38.651 8.172-87.39-14.028-121.498-2.411-3.703-7.366-4.75-11.069-2.341-3.703 2.411-4.751 7.366-2.341 11.069 10.158 15.605 20.653 42.287 11.577 110.664-6.091 45.897-.776 75.248 4.755 91.788.461 1.377-.606 2.745-2.033 2.745h-71.615c-.391-2.848-.271-4.235-.292-7.476 1.577-.987 3.107-2.077 4.575-3.279 10.803-8.839 26.232-14.736 34.567-28.067 8.278-13.239 7.904-31.214 11.488-42.56 6.347-20.093 9.288-42.183 8.069-60.604-.265-4.002-3.453-7.19-7.455-7.454-38.947-2.574-66.215-12.495-82.233-20.363-26.851-13.192-25.163-20.212-32.771-18.772-2.596.49-4.783 2.23-5.843 4.65-7.945 18.129-21.726 27.576-31.888 32.309-2.57 1.197-4.315 3.666-4.586 6.488-1.734 18.078.8 40.291 6.955 60.943 3.348 11.233 1.382 30.03 9.716 43.782 5.674 9.365 15.158 15.241 24.329 20.924 14.34 8.886 11.628 8.356 17.435 11.997-.068 1.398.212 3.729-.437 7.483h-71.458c-1.429 0-2.493-1.369-2.033-2.745 5.532-16.539 10.847-45.889 4.755-91.788-11.74-88.446 3.173-142.873 93-148.002 15.517.887 29.266 3.35 40.876 7.32 4.182 1.43 8.728-.801 10.158-4.98 1.43-4.181-.8-8.729-4.98-10.158-16.826-5.755-40.324-8.531-46.494-8.182-41.018 2.263-69.99 14.266-88.573 36.696-28.126 33.947-25.657 85.653-19.849 129.411 5.689 42.866.929 69.67-4.067 84.608-3.939 11.778 4.918 23.819 17.207 23.819h63.12c-6.515 6.533-12.532 7.109-22.513 11.924l-5.687 2.253c-15.819 6.266-25.417 22.422-23.34 39.29l9.229 74.963c.494 4.01 3.9 7.022 7.94 7.022h133.987c4.04 0 7.446-3.013 7.94-7.022l9.176-74.533c2.116-17.19-7.745-33.448-23.979-39.537-.1-.1 1.38.517-11.491-4.31-5.35-2.347-11.237-3.806-16.998-10.051h64.059c12.323 0 21.133-12.081 17.207-23.819-4.995-14.938-9.757-41.743-4.067-84.607zm-98.864 143.158c-5.528 5.528-14.476 5.529-20.005 0l-17.899-17.9c11.599-7.955 18.865-20.667 19.938-34.152 5.29.965 10.69.947 15.866.014.806 13.577 7.66 26.455 19.449 34.689zm-61.904-99.426c-5.893-9.725-4.21-27.119-8.066-40.06-5.016-16.833-7.436-35.349-6.676-50.508 9.025-4.883 21.549-13.844 30.748-29.045 14.167 10.311 47.069 29.243 102.687 34.269.071 14.998-2.61 32.046-7.599 47.837-3.929 12.437-3.779 29.271-9.798 38.897-5.853 9.361-19.818 14.905-31.134 24.167-10.503 8.594-25.895 8.691-36.514 0-11.912-9.747-27.693-15.729-33.648-25.557zm106.439 94.037c9.287 3.483 14.928 12.776 13.718 22.601l-8.312 67.511h-15.024v-20.275c0-4.418-3.582-8-8-8s-8 3.582-8 8v20.275h-57.839v-20.275c0-4.418-3.582-8-8-8s-8 3.582-8 8v20.275h-14.973l-8.364-67.941c-1.187-9.64 4.303-18.875 13.352-22.459 12.43-4.94 3.85-1.645 11.662-4.935l21.926 21.926c11.781 11.781 30.85 11.783 42.632 0l21.214-21.214c.249.104-.744-.275 12.008 4.511z"/><path d="m421.372 191.842c8.122 1.966 15.692 6.393 15.768 6.438 3.783 2.236 8.69 1.008 10.952-2.806 2.254-3.8 1-8.708-2.8-10.962-.389-.23-9.642-5.676-20.156-8.221-4.296-1.043-8.618 1.599-9.657 5.894-1.04 4.294 1.599 8.618 5.893 9.657z"/><path d="m421.687 198.04c-8.56 1.673-8.497 14.019 0 15.68 4.2.891 8.546-1.88 9.41-6.28 1.115-5.683-3.911-10.51-9.41-9.4z"/><path d="m385.667 266.722c9.345 4.157 20.067 4.158 29.415 0 4.037-1.796 5.854-6.524 4.058-10.561-1.796-4.038-6.526-5.854-10.561-4.058-5.214 2.32-11.195 2.32-16.409 0-4.037-1.796-8.766.021-10.561 4.058s.021 8.765 4.058 10.561z"/><path d="m265.4 213.257c-2.346-3.743-7.283-4.876-11.027-2.528-3.744 2.347-4.875 7.284-2.528 11.027l3.418 5.451h-19.248c-4.418 0-8 3.582-8 8s3.582 8 8 8h19.248l-3.418 5.451c-2.347 3.743-1.215 8.68 2.528 11.027 3.767 2.362 8.695 1.191 11.027-2.528l11.098-17.701c1.629-2.599 1.629-5.9 0-8.499z"/><path d="m102.548 271.543c1.411 0 2.839-.374 4.134-1.157 4.611-2.79 10.341-2.79 14.953 0 3.782 2.289 8.699 1.077 10.986-2.704s1.077-8.699-2.704-10.986c-9.721-5.881-21.798-5.88-31.518 0-6.911 4.184-3.926 14.847 4.149 14.847z"/><path d="m95.267 182.185c-1.04-4.294-5.361-6.936-9.657-5.894-10.515 2.544-19.768 7.99-20.156 8.221-6.959 4.128-4.037 14.877 4.095 14.877 4.522 0 7.715-4.616 19.825-7.547 4.294-1.039 6.933-5.363 5.893-9.657z"/><path d="m89.057 198.04c-5.474-1.116-10.524 3.697-9.41 9.4 1.506 7.671 12.173 8.846 15.23 1.5 1.943-4.657-.905-9.94-5.82-10.9z"/><path d="m137.5 191.842c12.15 2.941 15.311 7.552 19.832 7.552 8.1 0 11.074-10.739 4.088-14.882-.389-.23-9.642-5.676-20.157-8.221-4.296-1.043-8.618 1.599-9.657 5.894-1.039 4.294 1.6 8.618 5.894 9.657z"/><path d="m140.947 213.72c4.288-.838 7.136-5.033 6.28-9.4-.988-4.582-5.298-7.118-9.41-6.28-10.663 2.082-6.946 17.818 3.13 15.68z"/><path d="m181.954 87.127c4.418 0 8-3.582 8-8s-3.582-8-8-8c-4.54 0-8.012 3.667-8.012 8 0 4.418 3.594 8 8.012 8z"/></svg>