<svg id="Layer_1" enable-background="new 0 0 512.002 512.002" height="512" viewBox="0 0 512.002 512.002" width="512" xmlns="http://www.w3.org/2000/svg"><path d="m421.499 168.667c5.4-47.929-5.119-86.904-31.268-115.844-47.673-52.763-129.605-52.86-134.225-52.82-4.608-.05-86.551.056-134.226 52.82-26.148 28.94-36.668 67.915-31.268 115.843 1.824 16.184-53.002 86.624-7.098 146.922 32.526 42.727 104.237 31.923 119.384 29.081 2.619 2.404 5.307 4.723 8.066 6.954.76 16.457 1.263 26.36 1.615 32.396-17.972.036-13.916-.087-19.266.107-36.219 1.884-65.538 29.507-69.714 65.684l-6.15 53.274c-.548 4.745 3.165 8.917 7.947 8.917h261.417c4.777 0 8.496-4.167 7.947-8.917l-6.15-53.274c-4.14-35.864-33.388-64.367-71.017-65.737-2.739-.1-2.531-.034-17.963-.054.348-5.972.844-15.732 1.591-31.878 2.948-2.36 5.817-4.82 8.606-7.376 40.61 7.465 93.466 4.192 118.868-29.177 45.88-60.264-8.91-130.792-7.096-146.921zm-176.091-52.88c17.377 12.819 61.815 41.209 116.769 43.192 1.013 19.79-2.047 52.174-10.388 82.306-27.294-14.445-59.42-24.222-90.049-23.537-15.61.345-50.534-3.283-100.986 23.257-7.832-28.457-12.176-64.382-10.725-100.612 27.305 20.844 70.995 15.5 95.379-24.606zm24.167 238.322c-10.383 5.781-13.968 7.965-32.814-3.704-23.539-14.583-42.464-34.919-56.735-60.971 7.43-2.257 40.759-20.874 89.251-17.015 4.397.349 8.259-2.936 8.609-7.34.35-4.382-2.915-8.258-7.34-8.61-53.61-4.264-90.284 16.45-98.794 19.047l-9.928-16.84c48.728-28.093 84.375-24.577 100.27-24.932 30.135-.677 62.644 10.239 88.091 24.933-3.318 5.627-6.623 11.234-9.927 16.839-10.53-4.046-11.519-5.11-14.26-5.062-8.686.152-10.906 12.18-2.85 15.423l9.356 3.766c-15.745 28.655-36.921 49.97-62.929 64.466zm107.753-164.893c7.153 1.281 12.601 7.584 12.601 15.145 0 8.482-6.857 15.382-15.287 15.382-3.337 0-.451 3.351 2.686-30.527zm-237.853 30.527h-2.104c-8.429 0-15.287-6.9-15.287-15.382 0-7.761 5.742-14.196 13.175-15.234.897 9.66 2.246 19.959 4.216 30.616zm233.142 231.903 5.121 44.356h-35.602v-21.365c0-4.418-3.582-8-8-8s-8 3.582-8 8v21.365h-140.261v-21.365c0-4.418-3.582-8-8-8s-8 3.582-8 8v21.365h-35.601l5.121-44.356c3.057-26.479 23.256-47.118 48.998-50.972 12.528 30.452 34.047 59.871 66.769 63.349.549.058 1.109.062 1.689 0 32.768-3.482 54.292-33.028 66.769-63.349 25.74 3.854 45.94 24.492 48.997 50.972zm-89.564-61.119c-.936 4.919 2.84 9.493 7.859 9.493h15.584c-8.324 18.564-32.662 51.799-53.522 47.479-22.64-4.695-37.957-26.317-47.459-47.479h15.585c5.018 0 8.797-4.573 7.859-9.495-.129-1.103-.504-6.015-1.519-27.061 22.462 14.091 32.118 15.929 57.113.399-1.001 20.721-1.372 25.572-1.5 26.664zm.143-.619c-.048.175-.09.351-.126.528.043-.239.095-.414.126-.528zm-54.381-.003c.031.114.083.289.125.527-.035-.176-.077-.352-.125-.527zm187.052-84.008c-21.85 28.701-69.022 27.376-92.341 24.691 11.131-12.826 20.673-27.552 28.573-44.108 1.458-1.714 12.381-20.546 12.319-20.441 2.319-3.944 2.856-8.979.839-13.679 1.298-4.265 3.094-10.798 4.487-16.617h4.896c17.252 0 31.287-14.078 31.287-31.382 0-16.09-12.136-29.383-27.708-31.171.745-22.588-1.913-25.462-3.615-27.291-1.686-1.812-3.95-2.81-6.376-2.81-66.478 0-119.654-45.095-120.178-45.546-4.087-3.53-10.46-2.082-12.6 2.943-.12.282-12.254 28.21-37.445 34.179-19.989 4.739-36.292-1.553-47.742-16.52-4.26-5.569-14.146-3.543-15.085 4.907-1.299 11.678-2.033 30.255-1.056 50.095-15.732 1.634-28.041 15.009-28.041 31.213 0 17.304 14.035 31.382 31.287 31.382h5.495c1.254 5.226 2.668 10.501 4.262 15.794-2.381 4.761-2.062 10.216.475 14.519 10.3 16.944 10.465 18.852 13.547 21.711 7.764 16.003 17.078 30.279 27.898 42.756-23.118 2.729-70.877 4.305-92.901-24.625-40.544-53.258 13.058-114.25 10.267-139.022-4.86-43.136 4.285-77.878 27.182-103.261 43.112-47.792 121.55-47.608 122.325-47.612 41.41.376 93.336 15.282 122.5 47.612 40.136 44.493 25.394 103.261 27.182 103.261-2.794 24.797 50.827 85.742 10.267 139.022z"/><path d="m207.996 188.462c-6.863-1.334-12.155 6.113-8.22 12.29 2.954 4.335 8.866 4.654 12.31 1.21 4.365-4.365 2.411-12.1-4.09-13.5z"/><path d="m183.05 188.696c1.35 0 2.718-.341 3.972-1.056.629-.36 15.59-8.709 30.993-1.379 3.988 1.898 8.763.204 10.662-3.786s.204-8.763-3.786-10.662c-23.179-11.032-44.998 1.459-45.916 1.997-6.989 4.093-4.086 14.886 4.075 14.886z"/><path d="m307.145 188.462c-5.045-.98-9.57 2.895-9.57 7.85 0 6.994 8.549 10.754 13.66 5.65 4.373-4.342 2.397-12.102-4.09-13.5z"/><path d="m293.996 186.261c15.354-7.307 30.271.968 30.987 1.375 1.263.731 2.642 1.08 4.003 1.08 8.127 0 11.077-10.791 4.05-14.905-.917-.538-22.736-13.03-45.915-1.997-3.99 1.898-5.685 6.672-3.786 10.662 1.897 3.989 6.672 5.683 10.661 3.785z"/><path d="m273.505 310.714c-15.005 5.76-15.326 5.025-28.417 0-4.122-1.581-8.752.477-10.335 4.602s.477 8.752 4.602 10.335c15.171 5.823 19.699 7.748 39.884 0 4.125-1.583 6.185-6.211 4.602-10.335-1.584-4.126-6.21-6.186-10.336-4.602z"/><path d="m297.919 260.992c-4.418 0-8 3.594-8 8.012s3.582 8 8 8c4.342 0 8-3.497 8-8.025 0-4.418-3.582-7.987-8-7.987z"/></svg>