<svg id="Layer_1" enable-background="new 0 0 512.188 512.188" height="512" viewBox="0 0 512.188 512.188" width="512" xmlns="http://www.w3.org/2000/svg"><path d="m407.758 169.734c8.42-40.758 7.167-92.168-14.521-118.886-26.841-33.067-61.075-39.076-89.965-25.863-55.314-46.95-164.116-28.632-192.116 62.604-9.335 30.424-11.54 57.974-6.58 81.98-11.378 12.92-9.214 27.133-9.48 28.773 0 20.942 17.048 37.98 38.002 37.98h3.271c.271 2.049.558 4.102.865 6.157-.518.354-1.014.699-1.47 1.024-5.468 3.895-8.016 10.868-6.339 17.352l4.721 18.263c1.802 6.973 7.828 11.754 14.744 12.174 11.861 33.46 32.353 61.529 67.276 67.095v19.875h-22.417c-39.569 0-72.844 29.622-77.4 68.902l-6.508 56.101c-.552 4.746 3.163 8.922 7.946 8.922h276.619c4.778 0 8.499-4.17 7.946-8.922l-6.508-56.101c-4.557-39.281-37.831-68.902-77.4-68.902h-22.417v-19.875c34.928-5.568 55.424-33.646 67.285-67.122 6.917-.419 12.936-5.189 14.74-12.17l4.715-18.24c1.677-6.484-.871-13.457-6.34-17.353-.456-.325-.951-.669-1.469-1.023.307-2.055.594-4.108.865-6.157h3.271c20.954 0 38.002-17.038 38.002-37.98-.263-1.631 1.848-15.759-9.338-28.608zm-281.305-77.451c25.734-83.859 126.429-94.172 169.999-51.894 2.644 2.565 6.731 2.972 9.853 1.017 1.587-.994 39.287-23.867 74.511 19.526 14.908 18.367 19.745 57.796 12.628 98.526-4.26-1.736-9.1-2.766-14.025-2.809-.317-10.365-.913-19.582-1.354-24.338-.459-4.914-5.225-8.249-10.001-6.993-73.769 19.407-120.337-13.941-136.936-29.179-6.883-6.32-17.93-3.949-21.71 4.549-7.441 16.725-20.367 26.622-38.254 28.098-14.4 1.188-26.42-3.318-27.164-3.501-4.342-1.065-9.401 1.569-9.925 7.638-.212 2.415-.914 11.082-1.3 23.726-4.568.04-9.303.933-13.73 2.693-2.695-19.723-.215-42.22 7.408-67.059zm-15.357 106.06v-3.714c0-11.911 9.541-21.634 21.42-21.955-.026 13.902.462 30.351 2.062 47.649-15.293 0-23.482-11.064-23.482-21.98zm168.93 192.363c0 13.183-10.735 23.908-23.931 23.908-13.195 0-23.931-10.725-23.931-23.908 0-8.027 0-23.31 0-31.318h47.861c.001 8.008.001 23.291.001 31.318zm99.925 58.303 5.473 47.179h-38.654v-22.923c0-4.418-3.582-8-8-8s-8 3.582-8 8v22.923h-149.348v-22.923c0-4.418-3.582-8-8-8s-8 3.582-8 8v22.923h-38.654l5.473-47.179c3.621-31.21 30.063-54.746 61.508-54.746h22.574c1.826 20.364 18.979 36.351 39.773 36.351 20.826 0 37.951-16.024 39.773-36.351h22.574c31.445 0 57.887 23.536 61.508 54.746zm-17.39-173.917c-.754 2.927-57.598-15.525-137.789-9.807-4.407.314-7.725 4.142-7.41 8.549.314 4.406 4.128 7.735 8.549 7.41 53.328-3.804 89.35 2.846 121.168 7.866-11.6 30.798-30.715 54.278-63.733 54.278h-54.5c-33.045 0-52.143-23.541-63.711-54.218l11.336-1.753c4.366-.675 7.358-4.762 6.684-9.128-.676-4.367-4.765-7.359-9.129-6.684-25.484 3.94-24.29 3.9-24.39 3.509-4.887-19.237-4.933-18.335-4.59-18.578 54.81-39.026 167.531-38.855 222.099 0 .345.244.291-.629-4.584 18.556zm-105.324-64.19c-.104.01-57.279-1.25-105.067 22.846-3.735-28.663-4.408-61.58-2.769-90.482 31.2 6.24 58.969-4.083 73.292-33.205 34.91 30.499 84.534 44.889 140.083 32.966 1.63 28.473 1.056 61.48-2.755 90.721-30.773-15.517-72.109-22.846-102.784-22.846zm143.859-12.559c0 11.062-8.321 21.98-23.482 21.98 1.601-17.298 2.088-33.747 2.063-47.649 12 .315 21.42 10.183 21.42 21.954v3.715z"/><path d="m206.302 179.69c-4.418 0-8 3.582-8 8s3.582 8 8 8c4.54 0 8.013-3.667 8.013-8-.001-4.418-3.595-8-8.013-8z"/><path d="m224.314 158.836c-29.93-6.375-47.722 7.992-48.463 8.607-3.403 2.818-3.91 7.887-1.093 11.291 2.813 3.397 7.824 3.908 11.232 1.086.518-.412 12.972-10.024 34.991-5.334 4.321.917 8.569-1.837 9.49-6.158.922-4.323-1.835-8.572-6.157-9.492z"/><path d="m305.889 179.69c-4.54 0-8.013 3.667-8.013 8 0 4.418 3.595 8 8.013 8s8-3.582 8-8-3.582-8-8-8z"/><path d="m336.34 167.443c-.742-.615-18.525-14.982-48.463-8.607-4.321.92-7.079 5.169-6.158 9.491.921 4.321 5.17 7.079 9.49 6.158 21.894-4.662 34.326 4.811 34.981 5.326 3.397 2.765 8.404 2.285 11.21-1.104 2.818-3.403 2.343-8.446-1.06-11.264z"/><path d="m236.501 318.665c12.451 5.239 26.736 5.239 39.189 0 4.072-1.713 5.984-6.404 4.271-10.477-1.714-4.072-6.4-5.986-10.477-4.271-8.51 3.58-18.27 3.58-26.779 0-4.075-1.713-8.763.199-10.477 4.271-1.712 4.073.201 8.764 4.273 10.477z"/><path d="m200.139 267.799c-4.476 0-8.01 3.612-8.01 8 0 4.418 3.592 8 8.01 8s8-3.582 8-8-3.582-8-8-8z"/></svg>