<svg id="Layer_1" enable-background="new 0 0 512.083 512.083" height="512" viewBox="0 0 512.083 512.083" width="512" xmlns="http://www.w3.org/2000/svg"><path d="m363.058 372.719c-9.431-2.266-33.792-9.582-70.006-13.039-.844-10.531-1.246-20.564-1.195-30.009 27.951-9.61 58.589-41.427 69.261-82.987 13.29-.447 23.668-11.144 23.668-24.46v-12.421c27.348-12.205 27.355-50.955 0-63.164v-37.754c0-88.405-102.323-145.341-179.366-81.856-9.186-1.96-30.75-4.614-49.323 7.87-16.826 11.309-26.508 31.682-28.778 60.555-.048.617-.094-2.619 1.035 51.224-27.981 12.578-26.928 52.353 1.334 63.653l.223 10.622c.248 11.868 9.139 21.744 20.532 23.635 10.205 42.711 41.366 75.315 69.781 85.084.052 9.445-.351 19.478-1.195 30.009-28.265 2.698-43.009 6.552-70.006 13.039-30.606 7.815-51.983 35.31-51.983 66.863v64.501c0 4.418 3.582 8 8 8h302c4.418 0 8-3.582 8-8v-64.501c.002-31.554-21.375-59.049-51.982-66.864zm10.679-176.168v-36.66c8.736 1.434 15.598 9.03 15.598 18.33 0 9.32-6.882 16.902-15.598 18.33zm-249.844-18.33c0-9.189 6.741-16.872 15.598-18.33v36.66c-8.895-1.464-15.598-9.165-15.598-18.33zm22.016 42.396-.164-7.818h1.746c4.418 0 8-3.582 8-8v-53.156c0-4.418-3.582-8-8-8h-3.196l-.992-47.326c1.911-23.48 9.185-39.651 21.619-48.07 17.335-11.734 39.911-4.896 40.112-4.834 2.677.853 5.6.242 7.707-1.608 66.405-58.254 156.047-9.591 156.047 67.08v34.758h-3.051c-4.418 0-8 3.582-8 8v53.156c0 4.418 3.582 8 8 8h3.051v9.424c0 4.64-3.644 8.363-8.292 8.477l-2.399.058c-4.847.072-8.709-3.745-8.709-8.476v-113.728c0-6.735-7.874-10.457-13.078-6.181-.162.133-16.485 13.379-41.598 19.799-33.464 8.557-65.469 1.096-95.121-22.17-4.977-3.903-12.318-.745-12.904 5.553-2.251 24.193-20.83 40.66-20.999 40.808-1.764 1.52-2.777 3.732-2.777 6.06-.071 71.477.206 68.445-.32 70.292-2.68 9.387-16.48 7.555-16.682-2.098zm20.341 21.268c6.458-3.524 11.017-9.819 12.289-17.227.775-4.46.144-3.984.372-68.818 9.248-9.374 17.297-22.097 21.225-35.729 43.225 28.542 91.657 27.367 133.253 3.361.022 105.881-.087 99.855.23 102.151 1.021 7.543 5.506 14.018 11.834 17.761-9.389 35.653-40.175 74.552-78.908 74.552-19.512-.109-24.468.555-33.5-1.291-32.361-6.717-58.692-42.168-66.795-74.76zm109.603 91.488c.106 16.243 1.46 33.26 3.53 49.5.668 5.247-1.564 10.431-5.827 13.53-16.838 12.241-43.008 3.174-40.845-13.625 2.029-15.938 3.412-33.129 3.519-49.404 5.419.656 31.188 1.022 39.623-.001zm-162.811 106.209c0-24.235 16.425-45.355 39.942-51.36 7.511-1.838 17.191-4.693 33.641-7.799l29.058 115.66h-38.257v-27.339c0-4.418-3.582-8-8-8s-8 3.582-8 8v27.339h-48.384zm286 56.501h-48.384v-27.339c0-4.418-3.582-8-8-8s-8 3.582-8 8v27.339h-38.258l7.176-28.565c1.076-4.285-1.524-8.631-5.81-9.708-4.283-1.079-8.632 1.524-9.708 5.81l-8.156 32.463h-47.724l-29.722-118.306c2.971-.45 9.199-1.253 14.959-1.849-.562 4.799-.855 6.446-.833 9.049.215 25.256 29.592 38.631 53.438 30.953 13.039-4.203 23.214-13.251 25.169-26.889.704-4.909.057-8.138-.525-13.113 6.219.643 12.887 1.525 14.959 1.849l-6.93 27.585c-1.076 4.285 1.524 8.632 5.81 9.708 4.282 1.077 8.632-1.524 9.708-5.81l7.245-28.838c16.51 3.118 26.371 6.02 33.641 7.799 23.518 6.005 39.942 27.125 39.942 51.36v56.502z"/><path d="m134.939 332.135c-.435 4.397 2.778 8.313 7.176 8.747l25.192 2.486-2.86 3.648c-2.726 3.478-2.117 8.506 1.36 11.232 3.495 2.741 8.521 2.097 11.231-1.36l11.85-15.115c1.915-2.443 2.244-5.773.845-8.543l-8.658-17.138c-1.993-3.944-6.806-5.524-10.748-3.533-3.943 1.992-5.525 6.804-3.533 10.748l2.091 4.139-25.199-2.487c-4.374-.434-8.313 2.779-8.747 7.176z"/><path d="m377.144 332.135c-.434-4.397-4.36-7.609-8.746-7.176l-25.199 2.487 2.091-4.139c1.992-3.944.41-8.756-3.533-10.748-3.946-1.992-8.756-.41-10.748 3.533l-8.658 17.138c-1.399 2.771-1.07 6.101.845 8.543l11.85 15.115c2.712 3.459 7.738 4.099 11.231 1.36 3.478-2.726 4.086-7.754 1.36-11.232l-2.86-3.648 25.192-2.486c4.397-.434 7.61-4.35 7.175-8.747z"/><path d="m241.535 183.264c2.073-3.902.591-8.746-3.312-10.818-22.21-11.801-44.102 4.587-45.022 5.29-3.512 2.682-4.185 7.702-1.503 11.213 2.687 3.518 7.708 4.18 11.214 1.502.036-.027 3.822-2.816 9.205-4.649 6.934-2.362 13.189-2.101 18.601.773 3.901 2.074 8.744.591 10.817-3.311z"/><path d="m221.891 193.963c-6.242-1.213-11.404 4.997-8.95 10.91 1.294 3.102 4.285 4.94 7.391 4.94 9.486 0 11.092-13.796 1.559-15.85z"/><path d="m281.366 186.576c12.995-6.902 27.5 3.65 27.831 3.896 3.505 2.654 8.507 1.987 11.188-1.522 2.682-3.512 2.009-8.532-1.503-11.213-.922-.704-22.813-17.09-45.022-5.29-3.902 2.073-5.385 6.917-3.312 10.818s6.917 5.384 10.818 3.311z"/><path d="m290.191 193.973c-3.705.714-6.439 4.001-6.439 7.84 0 4.483 3.674 8 8 8 5.148 0 8.851-4.807 7.84-9.57-.858-4.387-5.162-7.134-9.401-6.27z"/><path d="m233.032 270.419c-2.13 3.871-.719 8.735 3.151 10.866 1.684.718 8.753 6.068 20.084 6.068 11.326 0 18.422-5.359 20.085-6.068 3.87-2.13 5.281-6.995 3.151-10.866-2.131-3.872-6.994-5.279-10.866-3.152l-3.008 1.655c-11.272 6.207-20.585-1.303-21.731-1.655-3.87-2.128-8.735-.719-10.866 3.152z"/><path d="m302.915 429.424c-4.54 0-8.013 3.667-8.013 8 0 4.418 3.595 8 8.013 8s8-3.582 8-8-3.582-8-8-8z"/></svg>