<svg id="Layer_1" enable-background="new 0 0 512 512" height="512" viewBox="0 0 512 512" width="512" xmlns="http://www.w3.org/2000/svg"><path d="m378.475 366.285c-16.118-3.909-42.573-12.213-83.118-16.074-1.018-11.264-1.573-22.073-1.661-32.261 4.805-4.153 9.519-9.115 14.121-14.874h52.865c14.522 0 26.337-12.219 26.337-27.237v-138.781c0-75.575-58.775-137.058-131.019-137.058s-131.019 61.483-131.019 137.058v138.781c0 15.019 11.815 27.237 26.337 27.237h54.062c4.211 5.224 8.53 9.803 12.929 13.723-.054 10.526-.61 21.722-1.666 33.412-39.762 3.787-65.358 11.767-83.118 16.074-27.111 6.933-44.751 33.074-41.033 60.81l10.454 77.969c.533 3.972 3.922 6.937 7.929 6.937h290.249c4.007 0 7.396-2.965 7.929-6.937l10.454-77.969c3.719-27.736-13.921-53.877-41.032-60.81zm-176.7 81.759c35.083 12.543 73.367 12.543 108.45 0l-1.747 47.956h-104.956zm78.956-140.184c-54.115 42.62-103.504-72.437-110.625-140.997 26.001-3.553 49.025-17.964 58.342-42.51 16.827 15.174 54.271 42.947 113.05 54.856-6.512 40.399-28.744 103.352-60.767 128.651zm-129.413-20.784c-5.7 0-10.337-5.041-10.337-11.237v-138.781c0-66.751 51.597-121.058 115.019-121.058s115.019 54.307 115.019 121.058v138.781c0 6.196-4.637 11.237-10.337 11.237h-41.632c12.834-20.62 22.501-44.258 29.414-67.355 3.239-10.868 9.794-37.893 10.046-46.739.112-3.959-2.706-7.421-6.632-8.102-52.756-9.135-101.298-37.605-121.546-61.185-4.473-5.237-12.965-2.725-13.993 3.981-3.6 23.485-22.332 41.504-52.582 43.781-2.699.191-5.62-.07-8.199 2.78-1.44 1.59-2.181 3.692-2.056 5.834 2.324 39.926 18.358 91.569 40.545 127.004h-42.729zm73.272 78.503c3.845-.304 6.926-3.308 7.327-7.144 1.103-10.551 1.829-20.773 2.172-30.543 14.07 7.151 28.917 7.76 43.843.6.351 9.589 1.071 19.61 2.151 29.943.401 3.836 3.482 6.84 7.327 7.144 8.594.679 17.214 1.64 25.715 2.867-.305 8.377-1.286 35.284-2.269 62.284-34.793 13.136-68.781 15.453-109.711 0-.578-15.854-2.092-57.427-2.269-62.284 8.5-1.227 17.12-2.188 25.714-2.867zm-53.031 130.421v-29.769c0-4.418-3.582-8-8-8s-8 3.582-8 8v29.769h-37.685l-9.523-71.032c-2.641-19.694 9.886-38.259 29.138-43.181 15.272-3.777 26.331-7.153 45.471-10.713 1.514 41.547 3.039 83.405 4.551 124.926zm232.09-71.032-9.524 71.032h-37.685v-29.769c0-4.418-3.582-8-8-8s-8 3.582-8 8v29.769h-15.953c.532-14.613 4.014-110.179 4.551-124.926 19.183 3.568 30.464 7.001 45.471 10.713 19.254 4.922 31.781 23.486 29.14 43.181z"/><path d="m128.617 339.776h28.065l-2.07 3.104c-2.451 3.676-1.458 8.643 2.217 11.095 3.67 2.446 8.638 1.466 11.094-2.218l10.364-15.542c1.824-2.735 1.789-6.309-.089-9.008l-10.364-14.896c-2.524-3.627-7.51-4.521-11.136-1.998-3.627 2.523-4.521 7.51-1.998 11.137l1.619 2.327h-27.704c-4.418 0-8 3.582-8 8s3.584 7.999 8.002 7.999z"/><path d="m362.663 321.318c2.451-3.676 1.458-8.643-2.217-11.095-3.677-2.45-8.644-1.458-11.094 2.218l-10.364 15.542c-1.824 2.735-1.789 6.309.089 9.008l10.364 14.896c2.517 3.617 7.501 4.527 11.136 1.998 3.627-2.523 4.521-7.51 1.998-11.137l-1.619-2.327h27.704c4.418 0 8-3.582 8-8s-3.582-8-8-8h-28.065z"/><path d="m236.484 191.681c4.32.909 8.566-1.856 9.477-6.181.91-4.323-1.857-8.565-6.181-9.476-19.932-4.195-37.958 4.403-38.715 4.771-3.964 1.926-5.611 6.688-3.7 10.658 1.904 3.958 6.669 5.648 10.665 3.747.137-.065 14.005-6.56 28.454-3.519z"/><path d="m275.516 191.681c14.359-3.022 28.151 3.376 28.451 3.519 3.997 1.924 8.755.23 10.669-3.712 1.931-3.974.274-8.761-3.701-10.691-.758-.368-18.788-8.97-38.715-4.771-4.323.91-7.091 5.152-6.181 9.476.911 4.322 5.156 7.089 9.477 6.179z"/><path d="m235.12 204.71c0-4.976-4.554-8.821-9.57-7.851-4.586.993-7.092 5.273-6.28 9.41 2.055 9.554 15.85 7.916 15.85-1.559z"/><path d="m292.27 201.649c-3.369-8.07-15.39-5.623-15.39 3.061 0 7.074 8.618 10.692 13.66 5.649 2.18-2.119 3.014-5.621 1.73-8.71z"/><path d="m267.106 269.688-3.255 1.82c-4.843 2.704-10.86 2.706-15.702 0l-3.256-1.82c-3.857-2.155-8.73-.776-10.886 3.08s-.777 8.73 3.08 10.887c1.821.791 8.226 5.867 18.913 5.867 10.69 0 17.107-5.082 18.914-5.867 3.857-2.156 5.235-7.03 3.08-10.887-2.157-3.858-7.032-5.237-10.888-3.08z"/><path d="m317.836 132.901c4.29 1.086 8.636-1.513 9.72-5.79 1.085-4.283-1.507-8.635-5.79-9.72-27.318-6.921-48.465-22.754-56.732-33.912-2.593-3.561-7.581-4.358-11.153-1.774-3.581 2.588-4.386 7.589-1.798 11.17.843 1.168 21.188 28.736 65.753 40.026z"/><path d="m345.584 138.824c4.418 0 8-3.582 8-8s-3.582-8-8-8c-4.531 0-8.013 3.66-8.013 8 0 4.418 3.595 8 8.013 8z"/></svg>