<svg id="Layer_1" enable-background="new 0 0 512.07 512.07" height="512" viewBox="0 0 512.07 512.07" width="512" xmlns="http://www.w3.org/2000/svg"><path d="m168.995 234.312c-8.673 1.876-8.401 14.034 0 15.69 5.727 1.097 10.49-3.897 9.41-9.4-.818-4.261-4.985-7.142-9.41-6.29z"/><path d="m341.504 250.162c9.487 0 11.103-13.787 1.57-15.851-5.04-.97-9.57 2.876-9.57 7.851 0 4.303 3.513 8 8 8z"/><path d="m126.13 108.304c5.77-9.896 27.806-17.609 58.945-20.632 27.339-2.652 47.242-23.961 49.526-53.024.669-8.528.434-17.804-.7-27.568-.51-4.389-4.482-7.542-8.87-7.023-4.389.51-7.533 4.48-7.024 8.869 1.015 8.738 1.231 16.972.642 24.47-1.655 21.062-15.769 36.475-35.121 38.352-47.841 4.644-65.137 18.062-71.222 28.499-42.035 72.097-29.835 253.38-29.296 261.062.296 4.217 3.809 7.439 7.972 7.439 4.663 0 8.312-3.946 7.989-8.561-.127-1.833-12.399-184.035 27.159-251.883z"/><path d="m399.761 100.245c-6.085-10.438-23.381-23.855-71.223-28.499-19.351-1.877-33.465-17.29-35.12-38.351-.589-7.499-.373-15.732.642-24.471.509-4.389-2.635-8.359-7.024-8.869-4.385-.515-8.359 2.635-8.87 7.023-1.134 9.765-1.369 19.04-.7 27.569 2.284 29.063 22.187 50.371 49.526 53.023 31.14 3.022 53.176 10.735 58.946 20.632 39.558 67.849 27.286 250.05 27.157 251.882-.324 4.613 3.325 8.561 7.989 8.561 4.163 0 7.676-3.223 7.972-7.439.541-7.681 12.74-188.964-29.295-261.061z"/><path d="m249.504 459.402c-3.678.726-6.44 3.997-6.44 7.841 0 4.403 3.589 8 8 8 4.428 0 8-3.597 8-8 .001-5.115-4.707-8.83-9.56-7.841z"/><path d="m230.331 314.58-14.128-5.827c-3.111-1.282-6.693-.482-8.961 2.004l-10.292 11.284c-2.978 3.265-2.745 8.325.52 11.302 3.232 2.949 8.238 2.759 11.238-.456l3.893 17.365c.964 4.299 5.232 7.025 9.556 6.057 4.312-.967 7.023-5.245 6.056-9.557l-3.889-17.348c4.062 1.619 8.682-.323 10.354-4.378 1.683-4.084-.262-8.761-4.347-10.446z"/><path d="m304.681 310.757c-2.268-2.485-5.85-3.287-8.961-2.004l-14.128 5.827c-4.084 1.685-6.03 6.361-4.345 10.445 1.672 4.053 6.292 6 10.354 4.378l-3.889 17.348c-1.119 4.991 2.677 9.752 7.813 9.752 3.661 0 6.964-2.53 7.799-6.252l3.893-17.365c2.985 3.2 7.991 3.418 11.238.456 3.264-2.977 3.497-8.037.52-11.302z"/><path d="m393.526 218.285c0-36.35-31.72-63.862-36.641-87.904-.885-4.328-5.113-7.116-9.441-6.233-4.329.887-7.12 5.113-6.233 9.442 2.688 13.136 9.729 24.283 16.538 35.063 8.723 13.811 19.778 32.784 19.778 49.632 0 24.415-15.266 47.133-36.669 56.384-.357.127-.699.278-1.029.45-49.759 20.29-97.41-43.973-65.539-89.319 2.541-3.615 1.67-8.605-1.945-11.146-3.614-2.541-8.604-1.669-11.145 1.944-1.932 2.748-3.647 5.61-5.165 8.559-1.518-2.948-3.233-5.81-5.165-8.559-2.541-3.615-7.53-4.485-11.145-1.944-3.615 2.54-4.486 7.53-1.945 11.146 27.117 38.583-3.465 93.125-46.491 93.125-30.009 0-56.746-28.259-56.746-60.64 0-16.774 11.033-35.787 19.778-49.632 6.809-10.78 13.849-21.928 16.538-35.063.886-4.329-1.905-8.556-6.233-9.442-4.332-.882-8.556 1.905-9.441 6.233-6.22 30.39-54.157 64.825-29.798 119.372-8.204 30.753-6.903 107.762-6.841 111.139.08 4.367 3.645 7.854 7.996 7.854 4.483 0 8.083-3.676 8.001-8.146-.455-24.218.219-65.959 3.438-91.054 6.376 7.367 14.612 14.2 23.384 18.317 15.611 97.337-23.417 97.734-23.411 175.354 0 3.022 1.704 5.787 4.404 7.146l57.645 29.006c32.105 16.154 69.531 17.056 102.695 1.81l66.762-30.693c2.839-1.305 4.658-4.144 4.658-7.268.006-77.11-38.979-78.394-23.413-175.378 7.852-3.895 14.822-9.131 20.849-15.464 9.082 33.251 9.971 87.856 9.98 88.485.06 4.221 3.427 7.886 8.112 7.886 4.417-.063 7.948-3.694 7.886-8.111-.041-2.96-1.142-70.22-14.32-103.999 6.659-11.758 10.314-25.083 10.314-38.352zm-35.473 239.832-62.04 28.522c-28.462 13.085-60.836 12.517-88.82-1.565l-53.182-26.76c1.6-65.568 36.867-73.41 24.384-164.67 32.251 6.361 63.129-11.673 77.639-41.442 14.412 29.568 45.179 47.844 77.639 41.442-12.487 91.304 22.714 98.987 24.38 164.473z"/></svg>