<svg id="Layer_1" enable-background="new 0 0 512.006 512.006" height="512" viewBox="0 0 512.006 512.006" width="512" xmlns="http://www.w3.org/2000/svg"><path d="m415.233 139.853c-1.581-8.318-5.981-15.911-12.389-21.377-5.265-4.491-10.475-9.051-15.489-13.554-71.786-64.51-77.442-95.139-77.753-97.29.06-3.862-2.925-7.632-7.998-7.632h-198.79c-5.826 0-9.711 6.052-7.263 11.354.179.387 17.948 39.314 26.366 96.048 10.581 71.313 2.544 142.706-30.078 206.359-78.904 153.965-56.505 189.46-49.687 195.903 1.392 1.325 2.994 2.077 4.749 2.278.794.091-11.148.058 236.323.058 3.949 0 7.307-2.882 7.907-6.784.892-5.802 20.825-137.434 10.125-231.756 68.326 15.526 126.404-68.262 113.977-133.607zm-30.861-16.194c9.793 8.569 13.92 10.122 15.705 22.616.667 4.709.893 9.579.729 14.53-13.462-5.33-20.928-22.501-16.434-37.146zm-278.294 197.399c34.585-67.485 42.574-142.481 31.665-216.005-6.116-41.222-16.82-73.052-22.975-89.053h180.434c4.261 13.546 19.835 44.51 76.523 96.352-12.47 25.097 1.217 57.703 27.19 64.677-4.904 24.848-18.76 49.729-38.075 65.575-30.374 24.919-61.774 20.166-93.502-3.285-3.556-2.629-8.563-1.875-11.188 1.679-2.626 3.553-1.875 8.563 1.679 11.188 10.341 7.643 19.842 12.578 26.59 15.56 6.219 46.128 4.038 104.572.329 150.784-91.205-11.682-165.004-13.311-219.787-4.873 8.487-23.945 21.481-54.284 41.117-92.599zm-53.834 174.942c-6.258-15.997 2.06-48.771 7.051-65.188 53.44-9.582 130.622-8.318 224.073 3.67-.43 4.677-1.023 10.704-1.512 15.416-105.935-1.804-196.79 39.441-210.744 46.102zm61.002 0c52.047-18.832 110.849-30.812 166.862-30.115-1.53 13.304-2.926 23.778-3.811 30.115z"/><path d="m340.041 305.998c-6.317 2.06-10.21 2.685-10.32 2.702-4.358.658-7.365 4.72-6.719 9.083.589 3.973 4.005 6.828 7.904 6.828 2.882 0 11.083-2.419 14.094-3.4 4.2-1.369 6.496-5.885 5.127-10.086-1.37-4.201-5.885-6.498-10.086-5.127z"/><path d="m375.113 288.432c-5.509 3.758-11.229 7.139-16.998 10.049-3.945 1.989-5.53 6.801-3.54 10.745 1.996 3.958 6.812 5.525 10.745 3.54 6.394-3.225 12.722-6.965 18.809-11.115 3.649-2.489 4.591-7.467 2.102-11.117-2.491-3.65-7.466-4.592-11.118-2.102z"/><path d="m439.534 227.318c-3.798-2.257-8.708-1.005-10.964 2.792-3.455 5.816-7.167 11.443-11.031 16.725-2.609 3.565-1.834 8.571 1.731 11.181 3.556 2.6 8.561 1.847 11.181-1.731 4.165-5.691 8.16-11.748 11.875-18.002 2.257-3.8 1.007-8.708-2.792-10.965z"/><path d="m404.936 262.313c-4.497 4.957-9.263 9.654-14.167 13.96-3.32 2.915-3.648 7.97-.733 11.29 2.923 3.327 7.976 3.642 11.29.733 5.357-4.704 10.56-9.83 15.462-15.235 2.968-3.272 2.722-8.332-.552-11.3-3.271-2.968-8.331-2.724-11.3.552z"/><path d="m476.635 205.3-13.616-19.931c-1.82-2.664-5.059-3.972-8.218-3.323l-23.631 4.862c-4.327.891-7.114 5.121-6.224 9.448.891 4.328 5.12 7.111 9.448 6.224l9.059-1.864c-.024.039-4.033 8.873-5.371 11.647-1.92 3.979-.251 8.762 3.729 10.682 3.978 1.921 8.763.249 10.682-3.729.784-1.624 5.215-10.937 5.598-12.796 5.109 7.478 6.616 11.293 11.945 11.293 6.324 0 10.261-7.152 6.599-12.513z"/></svg>