<svg id="Layer_1" enable-background="new 0 0 512.003 512.003" height="512" viewBox="0 0 512.003 512.003" width="512" xmlns="http://www.w3.org/2000/svg"><path d="m480.474 367.585c-6.361-16.218-19.581-30.688-25.277-36.443 1.713-61.858 1.323-240.823-50.653-274.108-53.23-34.085-100.892-13.574-114.339-51.691-1.47-4.167-6.04-6.354-10.205-4.883-4.167 1.47-6.353 6.038-4.884 10.205 17.5 49.611 70.156 27.413 120.799 59.844 44.081 28.227 45.126 210.815 43.184 263.601-.088 2.337.852 4.597 2.57 6.182.172.158 17.175 15.965 23.911 33.138 6.303 16.068.692 54.424-17.443 55.431-3.623-3.681-8.088-21.788-9.558-39.112-.625-7.409-9.633-9.919-14.012-4.575-1.964 2.131-6.03 4.982-11.484.646-5.035-4.004-1.844-20.147 2.392-30.253.618-1.465.786-3.081.482-4.642-13.973-71.7-14.72-123.607-14.392-142.597.267-15.537-3.962-8.207-22.816-78.411-3.833-14.27-24.049-14.376-28.051-.157-1.802 6.405-3.981 13.07-6.478 19.808-11.743 31.697 2.511 130.329 9.999 175.661h-196.432c26.442-161.405 10.346-171.253 3.533-195.474-4.009-14.25-24.226-14.082-28.049.163-18.866 70.225-23.087 62.887-22.817 78.41.328 18.989-.419 70.897-14.392 142.597-.303 1.554-.134 3.172.479 4.632 4.239 10.115 7.431 26.259 2.396 30.263-5.456 4.337-9.521 1.485-11.484-.646-4.363-5.322-13.38-2.861-14.012 4.573-1.47 17.326-5.935 35.434-9.558 39.114-18.235-1.016-23.67-39.558-17.443-55.432 6.702-17.086 23.744-32.982 23.911-33.137 1.719-1.586 2.658-3.845 2.57-6.182-1.94-52.632-.921-235.36 43.183-263.603 50.782-32.52 103.258-10.118 120.799-59.844 1.469-4.167-.717-8.735-4.884-10.205-4.166-1.47-8.735.718-10.205 4.883-13.398 37.977-61.335 17.751-114.339 51.691-52.06 33.34-52.351 212.828-50.653 274.108-5.696 5.755-18.916 20.226-25.277 36.442-9.387 23.928-1.146 77.297 33.15 77.297 15.894 0 20.811-25.831 23.188-41.521 6.232 1.614 13.667.82 21.011-5.02 14.838-11.798 6.509-38.191 3.319-46.66 13.834-72.007 14.572-124.34 14.239-143.631-.181-10.269 3.713-5.989 20.92-68.995 1.599 5.265 3.415 10.649 5.423 16.069 9.932 26.806-3.489 126.063-12.985 180.488-2.767 15.852-9.485 115.633-.253 169.737.655 3.844 3.986 6.654 7.886 6.654h81.916c4.295 0 7.823-3.391 7.994-7.682 2.098-52.703 1.258-29.993 2.578-63.242.344-8.665 7.407-15.453 16.079-15.453s15.734 6.788 16.078 15.453c1.112 27.986.452 9.814 2.579 63.242.171 4.291 3.699 7.682 7.994 7.682h81.916c3.899 0 7.23-2.811 7.886-6.654 8.57-50.223 3.144-150.265-.253-169.738-9.496-54.424-22.917-153.682-12.985-180.487 2.008-5.421 3.825-10.806 5.423-16.068 17.278 63.27 21.099 58.647 20.92 68.995-.332 19.29.405 71.622 14.239 143.63-3.189 8.469-11.519 34.862 3.319 46.66 7.346 5.841 14.779 6.635 21.011 5.02 2.389 15.776 7.337 41.469 23.08 41.521 34.577.001 42.552-53.603 33.257-77.294zm-192.338 72.858c-.688-17.281-14.8-30.817-32.127-30.817s-31.438 13.536-32.127 30.817l-.634 15.932h-71.819c-1.071-30.943.291-63.424 1.714-86.194h125.554c4.418 0 8-3.582 8-8s-3.582-8-8-8h-124.442c.277-3.605.775-10.13 1.146-12.955h201.215c.359 2.717.892 9.631 1.146 12.955h-17.931c-4.418 0-8 3.582-8 8s3.582 8 8 8h19.043c1.423 22.771 2.784 55.252 1.714 86.194h-71.819zm-133.837 55.56c-1.036-7.419-1.803-15.378-2.353-23.628h70.664l-.941 23.628zm136.049 0-.941-23.628h70.664c-.549 8.25-1.316 16.209-2.353 23.628z"/><path d="m264.284 271.504c6.929-.3 13.915-.985 20.764-2.037 4.367-.671 7.363-4.755 6.692-9.122-.67-4.366-4.759-7.368-9.122-6.692-6.275.964-12.677 1.592-19.025 1.867-4.414.19-7.838 3.924-7.646 8.338.194 4.523 4.068 7.859 8.337 7.646z"/><path d="m216.227 259.492c-.77 4.351 2.134 8.502 6.484 9.271 9.652 1.706 19.622 2.522 21.246 2.522 4.179 0 7.696-3.244 7.975-7.475.291-4.408-3.048-8.218-7.457-8.508-6.342-.418-12.727-1.19-18.977-2.296-4.346-.761-8.5 2.135-9.271 6.486z"/><path d="m192.324 243.765c-4.155-1.505-8.742.648-10.243 4.804-1.502 4.155.648 8.741 4.804 10.243 2.747.961 7.818 2.96 15.513 5.206 4.268 1.241 8.689-1.217 9.922-5.438 1.238-4.241-1.196-8.684-5.438-9.922-7.267-2.12-11.97-3.986-14.558-4.893z"/><path d="m303.391 265.455c3.726 0 21.643-6.608 21.743-6.643 4.155-1.502 6.306-6.088 4.804-10.243s-6.089-6.305-10.243-4.804c-2.49.858-8.898 3.425-18.367 5.96-8.997 2.407-7.234 15.73 2.063 15.73z"/><path d="m256.009 304.302c-6.454 0-10.169-7.216-6.65-12.44 2.707-4.101 8.66-4.851 12.311-1.21 5.003 5.017 1.469 13.65-5.661 13.65z"/><path d="m309.29 370.18c-4.418 0-8.013-3.582-8.013-8s3.57-8 7.988-8c4.533 0 8.024 3.662 8.024 8 .001 4.418-3.581 8-7.999 8z"/></svg>