<svg id="Layer_1" enable-background="new 0 0 512.002 512.002" height="512" viewBox="0 0 512.002 512.002" width="512" xmlns="http://www.w3.org/2000/svg"><path d="m472.431 371.558c-6.146-15.772-12.238-30.313-14.252-35.084 1.885-62.164 1.546-245.09-50.778-278.819-53.489-34.483-96.24-13.456-109.849-52.299-1.46-4.168-6.022-6.364-10.195-4.904-4.169 1.461-6.365 6.025-4.904 10.195 17.453 49.814 65.653 27.817 116.28 60.455 44.305 28.563 45.412 213.622 43.399 266.572-.133 3.577.933 2.592 15.392 39.693 6.253 16.049 10.492 55.237-6.348 56.175-3.653-3.716-8.152-22.059-9.631-39.615-.592-7.072-9.451-9.922-14.057-4.526-.012.015-1.494 1.565-3.542 2.408-1.767.728-4.269 1.181-7.971-1.782-5.096-4.079-1.891-20.468 2.378-30.721.611-1.457.776-3.063.476-4.613-14.034-72.497-14.783-124.982-14.454-144.183.094-5.497-.959-10.917-3.13-16.11-2.771-6.629-17.328-40.923-31.834-65.165-7.199-12.032-23.58-11.229-27.244 1.882-1.314 4.708-9.371 13.333-6.8 24.584 35.418 155.031 41.342 202.282-10.48 212.929-133.785-.359-136.647 1.823-149.837-3.553-39.778-16.212-29.344-73.991 1.586-209.377 2.564-11.222-5.5-19.925-6.8-24.582-3.661-13.103-20.039-13.925-27.244-1.883-14.506 24.242-29.063 58.536-31.834 65.164-2.171 5.194-3.225 10.614-3.13 16.11.329 19.201-.42 71.687-14.454 144.184-.3 1.551-.135 3.156.476 4.613 4.186 9.983 7.441 26.668 2.379 30.72-3.566 2.854-5.955 2.52-7.637 1.912-2.128-.77-3.663-2.319-3.912-2.581-4.357-5.328-13.394-2.885-14.021 4.568-1.479 17.559-5.979 35.901-9.631 39.617-16.899-.941-12.552-40.251-6.348-56.175 14.366-36.864 15.524-36.14 15.392-39.693-2.013-52.946-.906-238.01 43.399-266.572 50.38-32.478 98.837-10.67 116.28-60.455 1.461-4.17-.735-8.734-4.904-10.195-4.169-1.46-8.734.734-10.195 4.904-13.669 39.007-56 17.581-109.852 52.299-52.4 33.779-52.661 216.712-50.778 278.819-2.014 4.771-8.105 19.312-14.252 35.085-5.131 13.169-12.091 48.288.653 66.863 4.957 7.225 12.29 11.143 21.529 11.143 15.823-.054 20.77-26.098 23.153-41.977 6.264 1.636 13.736.841 21.121-5.071 14.867-11.9 6.48-38.568 3.295-47.072 13.897-72.804 14.637-125.709 14.303-145.21-.057-3.271.581-6.523 1.894-9.665 7.284-17.424 19.431-43.837 30.075-61.896 2.268 5.236 6.185 10.218 5.443 13.462-24.208 105.963-39.099 174.267-16.717 208.109-5.03 29.114-13.21 94.798 3.646 146.247 1.077 3.286 4.144 5.509 7.603 5.509h85.333c4.418 0 8-3.582 8-8v-42.068c0-3.95 3.185-7.163 7.1-7.163s7.1 3.213 7.1 7.163v42.068c0 4.418 3.582 8 8 8h85.333c3.458 0 6.525-2.223 7.603-5.509 20.752-63.339 3.063-145.328 3.88-146.587 21.524-33.152 8.291-97.279-16.952-207.769-.742-3.244 3.173-8.222 5.442-13.464 10.646 18.059 22.792 44.472 30.076 61.897 1.313 3.141 1.951 6.393 1.894 9.665-.334 19.5.406 72.405 14.303 145.209-3.185 8.504-11.572 35.172 3.295 47.073 7.387 5.911 14.857 6.706 21.121 5.07 2.37 15.788 7.289 41.977 23.261 41.977 9.013 0 16.419-3.852 21.421-11.143 12.744-18.573 5.785-53.692.653-66.862zm-121.914 124.444h-71.417v-34.068c0-12.772-10.362-23.163-23.1-23.163-12.737 0-23.1 10.391-23.1 23.163v34.068h-71.417c-11.82-41.442-7.547-91.898-3.194-121.752 7.803 5.211 17.314 8.426 26.482 10.23 1.459.285-7.713.097 140.91.15 2.637 0 17.301-3.217 28.029-10.381 4.354 29.855 8.627 80.311-3.193 121.753z"/><path d="m261.66 350.221c5.559-5.559.521-15.059-7.22-13.51-4.605.987-7.151 5.363-6.28 9.41 1.234 6.282 9.008 8.594 13.5 4.1z"/><path d="m176.031 345.827c1.843 4.03 6.596 5.78 10.602 3.948 4.019-1.837 5.786-6.584 3.949-10.603-2.122-4.64-3.692-10.375-4.669-17.046-.64-4.371-4.698-7.384-9.075-6.757-4.372.641-7.396 4.703-6.756 9.075 1.196 8.171 3.197 15.365 5.949 21.383z"/><path d="m184.688 303.349c.004-5.95.321-12.433.939-19.268.398-4.4-2.846-8.291-7.246-8.689-4.403-.391-8.291 2.847-8.689 7.246-.662 7.31-1 14.273-1.005 20.699-.003 4.418 3.576 8.003 7.994 8.006 4.438 0 8.004-3.59 8.007-7.994z"/><path d="m185.258 235.954c-4.331-.888-8.555 1.912-9.437 6.241-1.398 6.862-2.612 13.619-3.608 20.082-.673 4.366 2.322 8.452 6.688 9.124 4.331.676 8.449-2.296 9.125-6.688.957-6.21 2.125-12.711 3.472-19.322.884-4.33-1.911-8.555-6.24-9.437z"/><path d="m195.836 226.182c2.821-11.399 5.109-18.835 5.131-18.908 1.303-4.222-1.062-8.7-5.283-10.004-4.22-1.305-8.7 1.06-10.004 5.28-.098.317-2.436 7.907-5.376 19.788-1.253 5.062 2.59 9.924 7.772 9.924 3.593 0 6.858-2.436 7.76-6.08z"/><path d="m336.18 242.195c-.882-4.328-5.103-7.118-9.437-6.241-4.329.882-7.124 5.107-6.241 9.437 1.347 6.611 2.516 13.112 3.472 19.322.675 4.386 4.788 7.366 9.125 6.688 4.367-.672 7.361-4.758 6.688-9.124-.995-6.463-2.209-13.22-3.607-20.082z"/><path d="m326.321 202.55c-1.304-4.221-5.784-6.586-10.004-5.28-4.221 1.304-6.586 5.782-5.283 10.004.022.073 2.31 7.509 5.131 18.908 1.069 4.319 5.432 6.9 9.688 5.844 4.289-1.062 6.905-5.398 5.844-9.688-2.941-11.88-5.278-19.47-5.376-19.788z"/><path d="m342.308 282.638c-.398-4.4-4.289-7.641-8.689-7.246-4.4.398-7.644 4.289-7.246 8.689.619 6.835.935 13.317.939 19.268.003 4.416 3.585 7.994 8 7.994 4.421 0 8.003-3.585 8-8.006-.004-6.425-.341-13.389-1.004-20.699z"/><path d="m335.164 315.37c-4.372-.642-8.435 2.385-9.075 6.757-.977 6.671-2.548 12.406-4.669 17.046-1.837 4.019-.07 8.766 3.949 10.603 4.003 1.831 8.758.083 10.602-3.948 2.752-6.018 4.753-13.212 5.95-21.382.639-4.373-2.386-8.436-6.757-9.076z"/></svg>