<svg id="Layer_1" enable-background="new 0 0 512 512" height="512" viewBox="0 0 512 512" width="512" xmlns="http://www.w3.org/2000/svg"><path d="m394.243 240.405c27.029-69.274 24.44-175.33 16.005-233.553-.57-3.934-3.942-6.852-7.917-6.852h-159.291c-5.338 0-9.224 5.179-7.648 10.347.059.192 5.844 19.507 4.94 46.992-1.201 36.522-13.013 69.466-35.104 97.913-50.254 64.711-53.982 123.469-31.917 172.01 13.257 29.47 33.861 50.022 38.341 56.491 6.601 9.531 9.292 68.528 8.08 120.059-.106 4.502 3.52 8.188 7.998 8.188h146.214c3.739 0 6.979-2.59 7.804-6.237 15.708-69.557 15.358-193.265 12.495-265.358zm-182.623 118.031c-31.454-39.369-43.703-81.198-28.926-128.96 10.987 2.444 22.186 4.765 33.413 6.903 4.339.831 8.529-2.021 9.355-6.361.827-4.34-2.021-8.528-6.361-9.355-10.355-1.973-20.695-4.096-30.852-6.334 2.555-6.041 5.186-11.47 8.793-17.981 52.514 13.429 129.803 30.78 184.164 33.24-.722 2.001-1.277 3.444-1.549 4.152-26.178 2.637-59.222 1.551-98.346-3.236-4.389-.548-8.376 2.583-8.912 6.969-.537 4.386 2.583 8.376 6.969 8.912 31.696 3.879 67.673 6.366 99.214 3.529.178 5.287.391 12.392.585 20.919-79.032 20.877-103.509 62.653-167.547 87.603zm41.519-342.436h142.143c3.085 26.264 12.231 122.677-9.003 197.753-52.601-1.777-129.737-18.888-180.564-31.714 3.65-5.555 7.674-11.209 12.15-16.973 34.465-44.379 44.782-100.036 35.274-149.066zm114.337 480h-131.615c.26-21.794 1.041-103.888-11.054-121.356-.679-.981-1.519-2.069-2.494-3.278 62.33-25.83 86.065-64.191 157.165-84.035.84 56.209.04 149.242-12.002 208.669z"/><path d="m132.32 279.271 5.659 5.287c3.228 3.017 8.29 2.844 11.307-.385s2.844-8.29-.385-11.307l-21.507-20.093c-3.47-3.243-8.985-2.76-11.843 1.022l-17.976 23.783c-2.664 3.524-1.967 8.541 1.559 11.205 3.545 2.682 8.56 1.942 11.205-1.559l5.948-7.87c.282 15.3 4.687 66.765 48.964 107.991 3.224 3.004 8.288 2.839 11.306-.403 3.012-3.233 2.831-8.295-.403-11.306-39.28-36.573-43.461-83.293-43.834-96.365z"/><path d="m248.773 225.975c-4.54 0-8.013 3.668-8.013 8 0 4.418 3.595 8 8.013 8s8-3.582 8-8-3.582-8-8-8z"/></svg>