<svg id="Layer_1" enable-background="new 0 0 512.109 512.109" height="512" viewBox="0 0 512.109 512.109" width="512" xmlns="http://www.w3.org/2000/svg"><path d="m498.778 244.81c-.13-.13-9.003-6.09-18.716-9.122-12.869-4.016-22.414.095-28.155 4.253-4.027 2.916-8.672 4.6-13.431 4.868-23.311 1.318-94.619 3.724-115.694-5.945-27.122-12.448-77.593-12.188-90.002-11.919-6.764-4.621-14.991-8.242-22.717-10.617-.451-2.894-.848-6.009-1.192-9.334 3.34-1.981 6.501-4.165 9.481-6.545h47.508c11.313 0 20.517-9.197 20.517-20.502v-89.376c0-74.281-85.852-111.441-154.061-78.485-29.933 14.462-49.274 45.27-49.274 78.485v89.376c0 11.305 9.203 20.502 20.516 20.502h43.062c2.98 2.38 6.141 4.564 9.481 6.544-.361 3.489-.779 6.755-1.257 9.768-7.367 2.383-16.079 6.2-22.45 10.49-37.423 6.193-71.786 29.4-78.216 67.939-6.887 41.271-18.908 105.928-23.757 131.81-1.241 6.625-4.516 12.721-9.467 17.629-33.012 32.716-12.068 70.173 16.374 67.326 12.479-1.247 18.642-12.01 21.196-21.92 14.726 1.169 20.259-9.668 21.478-24.331.378-4.55-.169-9.398-1.627-14.413-6.264-21.536 13.881-95.619 16.997-116.16 3.295-4.362 6.381-9.153 9.48-14.194 9.086 40.537 30.219 76.815 14.313 96.947-4.536 5.74-36.165 31.068-36.144 74.544.003 3.985.388 9.713 1.319 13.482.881 3.573 4.087 6.085 7.768 6.085h180.757c3.681 0 6.887-2.512 7.768-6.085.914-3.704 1.316-9.405 1.319-13.482.022-43.29-32.289-69.789-36.149-74.55-17.166-21.741 8.878-62.44 16.193-106.537 27.162-15.366 49.167-24.606 57.929-24.289 18.288.7 128.765.096 131.402 0 15.41-1.272 24.62 1.32 43.912-6.37 15.272-6.088 17.306-26.868 3.539-35.872zm-272.533 170.062h-87.519c7.216-22.289-4.605-50.563-12.876-77.508 1.8-.004 30.366 10.457 54.952-12.452l.496-.462c24.973 24.033 54.929 12.691 57.891 12.695-8.628 28.155-20.091 55.651-12.944 77.727zm-32.657-200.737c.975 7.521 2.254 14.01 3.824 19.374.666 2.273-.162 4.764-2.063 6.195-7.574 5.71-18.154 5.71-25.729-.001-4.816-3.627-.802-5.776 1.763-25.568 7.047 2.227 14.891 2.302 22.205 0zm-64.776-115.39c12.013.912 28.249-1.998 39.343-15.96 18.408 15.586 43.925 18.699 67.991 15.84 4.218 38.493-5.005 79.209-39.36 96.765-9.47 4.824-14.886 6.05-23.989 2.164-37.824-16.276-48.457-57.691-43.985-98.809zm84.817 135.936c3.957 3.331 46.958 14.885 30.313 85.198l-16.474 3.291c-12.838 2.563-26.067-1.382-35.393-10.558-5.872-5.777-15.202-5.913-21.236-.288-.32.181-14.031 15.34-36.147 10.577l-13.642-2.94c-7.303-30.892-6.307-59.703 19.182-78.631 3.409-2.428 7.119-4.509 11.108-6.151.102 15.488 15.897 24.789 31.146 24.789 14.987.001 31.427-9.243 31.143-25.287zm-114.587-54.734v-89.376c0-27.117 15.793-52.27 40.235-64.079 57.316-27.691 131.1 1.643 131.1 64.079v89.376c0 2.482-2.026 4.502-4.517 4.502h-32.275c8.963-12.379 14.96-27.688 17.735-45.614 4.15-26.817-.356-49.922-.551-50.893-.855-4.277-4.979-7.072-9.253-6.308-48.812 8.725-66.225-13.733-67.854-16.018-4.234-5.948-11.663-4.444-14.098.764-4.324 9.257-11.129 14.494-20.802 16.012-7.795 1.225-14.5-.57-14.529-.578-4.493-1.279-9.122 1.584-10.031 6.128-.194.971-4.701 24.075-.551 50.893 2.775 17.927 8.773 33.235 17.735 45.614h-27.829c-2.49 0-4.515-2.02-4.515-4.502zm-3.824 126.026c-14.444 23.973-14.968 20.924-15.437 25.063-2.068 18.247-24.817 97.068-16.771 124.724.909 3.127 1.261 6.027 1.045 8.62-.246 2.964-.925 6.996-2.313 9.598-.952.363-4.076-.068-6.415-1.104-5.149-2.358-11.048 1.246-11.32 6.888-.149 3.08-2.09 15.656-8.271 16.273-5.05.508-14.018-2.015-15.592-14.66-1.229-9.873 5.885-19.251 12.07-25.381 7.271-7.207 12.088-16.213 13.931-26.047 4.857-25.93 16.902-90.71 23.812-132.123 3.823-22.908 19.357-38.255 40.934-47.571-6.592 11.421-10.601 25.905-9.608 45.766-2.143 3.447-4.131 6.746-6.065 9.954zm170.661 190.023h-73.17v-22.417c0-4.418-3.582-8-8-8s-8 3.582-8 8v22.417h-77.591c-1.163-19.892 7.034-43.236 28.35-63.524.541-.515 1.073-1.049 1.595-1.6h106.845c.522.55 1.312 1.328 1.597 1.599 21.502 20.463 29.6 43.772 28.374 63.525zm223.435-230.177c-15.923 6.346-22.106 3.964-38.463 5.24-4.206.029-110.62.763-130.313.005-13.081-.503-36.149 9.918-56.723 20.99.276-18.051-3.495-34.655-14.253-49.057 19.476.449 49.329 2.507 66.547 10.408 26.496 12.16 107.335 8.28 123.272 7.379 21.044-1.19 21.62-14.28 35.914-9.822 4.637 1.447 9.592 3.883 14.726 7.239 2.947 1.928 2.54 6.324-.707 7.618z"/><path d="m330.079 307.338-17.204-10.46c-2.637-1.604-5.96-1.548-8.542.146l-15.959 10.46c-3.695 2.422-4.728 7.381-2.305 11.076 2.42 3.694 7.379 4.729 11.076 2.305l3.933-2.578c-.764 2.249-.281 1.83-.43 25.055 0 4.418 3.582 8 8 8s8-3.582 8-8c-.26-22.578.592-23.038-.784-25.921 5.949 3.617 7.158 4.754 10.051 4.754 8.059 0 11.063-10.642 4.164-14.837z"/><path d="m393.224 307.338-17.205-10.46c-2.637-1.604-5.96-1.548-8.542.146l-15.958 10.46c-3.695 2.422-4.728 7.381-2.305 11.076 2.421 3.694 7.378 4.729 11.076 2.305l3.933-2.578c-.764 2.249-.281 1.83-.43 25.055 0 4.418 3.582 8 8 8s8-3.582 8-8c-.26-22.578.592-23.038-.784-25.921 5.949 3.617 7.158 4.754 10.051 4.754 8.059 0 11.063-10.644 4.164-14.837z"/><path d="m456.37 307.338-17.205-10.46c-2.637-1.604-5.96-1.548-8.542.146l-15.958 10.46c-3.695 2.422-4.728 7.381-2.305 11.076 2.421 3.694 7.379 4.729 11.076 2.305l3.933-2.578c-.764 2.249-.281 1.83-.43 25.055 0 4.418 3.582 8 8 8s8-3.582 8-8c-.26-22.578.592-23.038-.784-25.921 4.951 2.726 6.536 4.754 10.051 4.754 8.059 0 11.063-10.644 4.164-14.837z"/><path d="m196.959 176.488c4.043-1.782 5.876-6.505 4.094-10.547-1.782-4.045-6.507-5.874-10.547-4.094-10.122 4.46-12.301 3.605-20.479 0-4.039-1.781-8.765.051-10.547 4.094-1.782 4.042.051 8.765 4.094 10.547 2.124.75 7.681 4.302 16.692 4.302 9.002 0 14.543-3.543 16.693-4.302z"/></svg>