<svg id="Layer_1" enable-background="new 0 0 511.868 511.868" height="512" viewBox="0 0 511.868 511.868" width="512" xmlns="http://www.w3.org/2000/svg"><path d="m502.556 214.005c-15.662-10.237-32.452-15.834-47.492-4.953-4.112 2.978-8.855 4.695-13.719 4.97-24.013 1.361-96.289 3.748-117.655-6.052-18.162-8.331-46.557-11.096-68.619-11.888-9.508-12.75-20.972-14.036-38.659-18.848 28.567-21.576 38.098-58.001 36.935-93.809 4.05-2.605 8.114-5.688 12.162-9.353 1.754-1.588 2.715-3.87 2.625-6.234-.022-.584-.631-14.456-8.269-29.143-7.183-13.811-22.043-31.027-52.051-34.62-23.962-2.87-53.689-1.019-71.969 14.868-22.302-2.569-42.999 5.119-47.333 27.024-7.422 37.516 15.603 58.036 16.587 58.892 1.434 1.246 3.265 1.941 5.165 1.962 1.251.014.867 43.524 36.075 70.291l-18.807 5.117c-11.563 3.146-20.654 11.533-24.995 22.16-21.172 9.017-45.988 26.691-51.668 60.713-6.997 41.915-19.217 107.615-24.147 133.917-1.266 6.754-4.606 12.971-9.659 17.977-32.075 31.78-13.97 68.332 13.586 68.33 13.469-.013 21.127-9.576 24.409-22.426 7.158.603 14.203-1.779 17.825-9.011 3.997-7.982 5.508-19.246 2.325-30.181-6.38-21.92 14.127-97.276 17.277-118.099 2.508-3.316 4.897-6.88 7.264-10.61v205.916c0 4.418 3.582 8 8 8h146.805c4.418 0 8-3.582 8-8 0-9.013 0-204.653 0-214.356 4.744-4.405 10.795-10.201 16.429-16.137 5.277-5.56 12.978-8.419 20.598-7.623 12.509 1.292 39.838 4.009 52.311 3.945 25.235-.182 96.44-9.248 102.864-10.073 19.41-.724 27.888.061 44.228-6.451 15.424-6.144 17.475-27.13 3.572-36.215zm-336.702-11.627c1.104-3.771 2.069-8.104 2.887-12.951 7.729 2.773 16.523 3.025 24.851.188.811 4.771 1.766 9.04 2.855 12.763.691 2.36-.169 4.944-2.142 6.431-7.746 5.838-18.564 5.838-26.311 0-1.971-1.487-2.832-4.071-2.14-6.431zm-61.647-153.305c.986-4.985 3.743-11.856 16.241-13.965 5.405-.912 12.43-.684 16.565.182 2.972.601 6.029-.523 7.897-2.912.141-.18 15.377-17.881 61.001-12.416 36.7 4.394 44.305 34.281 45.851 44.848-5.213 4.289-8.663 6.078-10.531 7.241-26.362 14.767-59.694 4.366-79.722-14.335-4.415-4.179-11.805-2.119-13.289 3.984-4.21 17.323-17.701 27.156-34.661 28.926-4.393-5.149-13.772-19.209-9.352-41.553zm22.015 55.339c14.627-4.329 26.905-13.695 33.576-27.663 22.972 16.251 50.953 24.082 77.673 14.551-.425 49.909-24.297 71.255-42.364 80.265-10.469 5.137-16.103 5.81-28.633-.64-28.239-14.585-37.721-42.663-40.252-66.513zm5.51 93.256 20.193-5.494c-.444 2.051-.917 3.967-1.427 5.708-5.284 18.044 12.33 31.287 30.652 31.287 18.187 0 35.969-13.133 30.652-31.287-.51-1.74-.983-3.656-1.427-5.708l20.194 5.494c9.562 2.601 15.983 11.355 15.983 20.88v172.924h-130.804c0-17.114 0-156.867 0-172.924 0-9.204 6.138-18.202 15.984-20.88zm-39.148 78.409c-14.81 24.562-15.213 21.233-15.69 25.436-2.115 18.665-25.23 98.561-17.049 126.666 2.075 7.133.767 14.48-1.269 18.546-.294.589-4.023.185-6.722-1.009-5.139-2.351-11.046 1.235-11.32 6.888-.152 3.15-2.148 16.018-8.524 16.654-5.183.511-14.377-2.062-15.99-15.006-1.255-10.08 5.998-19.644 12.304-25.891 7.372-7.304 12.256-16.432 14.124-26.396 4.938-26.349 17.182-92.174 24.202-134.229 3.727-22.324 18.31-35.968 33.098-44.206v40.842c-2.561 4.073-4.896 7.945-7.164 11.705zm153.969 216.838h-57.403v-31.204c0-4.418-3.582-8-8-8s-8 3.582-8 8v31.204h-57.402v-85.443h130.805zm246.507-257.558c-16.224 6.465-22.509 4.035-39.265 5.34-1.074.039-76.475 9.865-102.02 10.048-7.958.031-25.904-1.314-50.552-3.861-12.521-1.287-25.177 3.391-33.847 12.525-1.583 1.668-3.205 3.328-4.823 4.95-.228-44.618.463-46.098-.507-51.944 24.299 1.351 43.568 4.866 54.974 10.099 26.903 12.342 109.037 8.397 125.228 7.483 21.367-1.206 21.94-14.526 36.552-9.971 8.466 2.639 14.76 7.372 15.004 7.372 3.086 2.017 2.645 6.609-.744 7.959z"/><path d="m323.662 294.183-17.487-10.627c-2.636-1.602-5.958-1.546-8.539.146l-16.22 10.627c-3.696 2.421-4.729 7.38-2.308 11.075 2.421 3.697 7.38 4.729 11.076 2.308l4.328-2.836c-.993 2.515-.371 2.34-.563 25.778 0 4.418 3.582 8 8 8s8-3.582 8-8c0-24.966.328-24.287-.976-26.674l6.379 3.877c3.785 2.297 8.701 1.086 10.991-2.683 2.296-3.775 1.095-8.696-2.681-10.991z"/><path d="m387.842 294.183-17.486-10.627c-2.636-1.602-5.958-1.546-8.539.146l-16.221 10.627c-3.696 2.421-4.729 7.38-2.308 11.075 2.422 3.695 7.379 4.729 11.076 2.308l4.328-2.836c-.767 1.943-.563.896-.563 25.778 0 4.418 3.582 8 8 8s8-3.582 8-8c0-24.966.328-24.287-.976-26.674l6.379 3.877c3.78 2.294 8.699 1.092 10.991-2.683 2.296-3.775 1.095-8.696-2.681-10.991z"/><path d="m452.023 294.183-17.487-10.627c-2.636-1.602-5.958-1.546-8.539.146l-16.22 10.627c-3.696 2.421-4.729 7.38-2.308 11.075 2.421 3.697 7.379 4.729 11.076 2.308l4.328-2.836c-.767 1.943-.563.896-.563 25.778 0 4.418 3.582 8 8 8s8-3.582 8-8c0-24.966.328-24.287-.976-26.674l6.379 3.877c3.785 2.297 8.701 1.086 10.991-2.683 2.296-3.775 1.094-8.696-2.681-10.991z"/><path d="m164.806 156.821c3.093 1.028 9.012 4.57 18.254 4.57 9.436 0 15.05-3.506 18.255-4.57 4.101-1.645 6.093-6.302 4.448-10.402-1.644-4.101-6.301-6.092-10.402-4.449-12.93 5.185-14.336 4.115-24.601 0-4.098-1.64-8.757.349-10.402 4.448-1.645 4.102.347 8.759 4.448 10.403z"/></svg>