<svg id="Layer_1" enable-background="new 0 0 512.022 512.022" height="512" viewBox="0 0 512.022 512.022" width="512" xmlns="http://www.w3.org/2000/svg"><path d="m472.803 307.535c-.25-1.079-25.124-108.8-28.95-189.843-1.651-34.969-17.175-65.945-44.893-89.582-19.359-16.509-38.877-24.638-45.132-26.982-3.413-1.985-3.428-.723-39.106-.83-3.702.029-6.9 2.595-7.732 6.201-10.886 47.186-37.087 61.146-52.875 65.234-15.851-3.838-42.27-17.383-53.903-64.391-.85-3.436-3.926-6.078-7.829-6.078-35.9.67-35.745-.59-39.1 1.452-6.23 2.449-25.601 10.881-44.688 27.687-27.34 24.072-42.37 55.291-43.467 90.281-2.542 81.094-25.704 189.194-25.938 190.276-.917 4.245 1.722 8.447 5.944 9.466l32.572 7.857c3.728.895 7.534-.968 9.132-4.408 12.214-26.311 32.513-100.049 47.212-156.539 3.862 6.802 9.03 12.997 15.59 18.469 3.458 15.952 20.382 101.116 2.643 163.305l-5.266.041c-3.14.024-5.975 1.884-7.249 4.753-1.836 4.136-44.688 101.865-20.338 153.528 1.289 2.734 4.048 4.589 7.289 4.589l259.13-1.713c3.08-.021 5.874-1.807 7.185-4.593 24.331-51.68-18.76-149.396-20.606-153.53-2.896-6.487-10.355-4.348-12.545-4.698-18.613-61.513-3.343-146.284-.046-162.879 6.699-5.656 11.975-12.12 15.837-19.181 15.593 56.251 37.058 129.66 49.689 155.772 1.36 2.813 4.191 4.518 7.2 4.518 1.446 0-.875.487 34.443-8.626 4.209-1.083 6.781-5.327 5.797-9.556zm-92.365 186.809-248.438 1.643c-14.422-40.35 12.667-111.91 20.414-130.876l207.426-1.621c7.832 19.072 35.03 90.565 20.598 130.854zm-305.532-183.194-18.489-4.461c5.351-26.362 22.513-115.588 24.705-185.502 1.417-45.205 29.125-79.297 68.207-99.112-.998 28.536-6.227 60.415-17.218 86.642 0-.102-5.172 11.522-5.898 24.839-10.925 43.047-36.306 140.505-51.307 177.594zm266.614-115.082c-7.671 46.889-10.912 105.538 1.736 151.533l-174.345 1.377c11.932-46.218 7.738-105.064-.688-151.739 21.203 9.361 45.454 9.707 67.678 4.563 36.363-8.417 3.157-6.69 42.575.496 21.039 3.835 43.494 2.625 63.044-6.23zm-71.926-12.267c-17.288-4.978-13.906-4.514-29.005.18-67.022 20.383-113.326-22.292-93.723-69.082.409 0 17.864-40.501 18.615-97.421l20.848-.164c7.27 24.954 24.869 61.791 66.207 70.465 1.126.237 2.288.228 3.41-.026 41.196-9.326 58.208-46.437 65.082-71.503l20.849-.165c1.878 64.544 20.722 94.269 23.896 108.458 9.307 41.862-34.778 76.779-96.179 59.258zm167.502 124.486c-15.588-36.844-42.509-133.888-54.115-176.758-1.199-17.029-6.381-22.071-12.796-41.988-8.709-26.944-11.316-53.991-12.085-69.114 39.54 19.266 67.639 52.899 69.77 98.02 3.299 69.872 21.874 158.814 27.642 185.089z"/><path d="m208.981 259.252c2.979 0 5.839-1.671 7.216-4.535 2.814-5.854 6.995-11.104 12.089-15.185 3.449-2.762 4.005-7.797 1.243-11.245-2.763-3.448-7.797-4.005-11.245-1.243-6.953 5.568-12.662 12.74-16.507 20.739-2.574 5.354 1.383 11.469 7.204 11.469z"/><path d="m282.661 239.37c5.118 4.049 9.329 9.274 12.179 15.111 1.932 3.957 6.715 5.624 10.699 3.679 3.97-1.938 5.617-6.729 3.679-10.698-3.895-7.977-9.645-15.113-16.629-20.639-3.466-2.742-8.497-2.154-11.238 1.31s-2.154 8.496 1.31 11.237z"/><path d="m307.167 265.329c-4.191.03-7.959 3.338-7.943 8.209 0 6.626-1.45 12.985-4.309 18.9-1.922 3.979-.256 8.762 3.722 10.685 3.961 1.913 8.753.274 10.684-3.722 3.917-8.104 5.902-16.807 5.902-25.863-.008-4.881-3.727-8.209-8.056-8.209z"/><path d="m274.711 224.958c.963-4.312-1.751-8.588-6.063-9.552-8.649-1.933-17.851-1.907-26.492.079-4.306.989-6.996 5.281-6.006 9.588.851 3.703 4.145 6.211 7.79 6.211 2.541 0 9.842-2.804 21.221-.263 4.313.965 8.587-1.752 9.55-6.063z"/><path d="m282.795 307.596c-5.099 4.066-11.139 6.978-17.469 8.418-4.308.981-7.005 5.269-6.024 9.576.979 4.302 5.258 7.006 9.576 6.025 8.662-1.973 16.924-5.952 23.894-11.51 3.454-2.755 4.021-7.789 1.266-11.243-2.754-3.453-7.788-4.021-11.243-1.266z"/><path d="m245.906 316.034c-6.333-1.429-12.379-4.328-17.485-8.386-3.459-2.749-8.493-2.172-11.24 1.287-2.749 3.459-2.172 8.491 1.287 11.24 10.291 8.177 22.545 11.664 25.685 11.664 3.657 0 6.958-2.524 7.796-6.241.973-4.31-1.733-8.592-6.043-9.564z"/><path d="m216.273 292.515c-2.87-5.908-4.332-12.264-4.345-18.888-.009-4.413-3.589-7.984-8-7.984-4.406 0-8.009 3.573-8 8.016.018 9.056 2.021 17.752 5.953 25.847 1.928 3.97 6.714 5.634 10.691 3.701 3.974-1.931 5.631-6.717 3.701-10.692z"/></svg>