<svg id="Layer_1" enable-background="new 0 0 512.002 512.002" height="512" viewBox="0 0 512.002 512.002" width="512" xmlns="http://www.w3.org/2000/svg"><path d="m476.856 216.95c-.195-6.999-2.756-89.438-15.396-125.026-14.1-39.694-77.545-37.764-83.505-37.492-16.156-.524-63.365-5.437-68.169-19.836-7.163-21.468-8.277-27.407-8.352-27.828-.674-4.318-4.702-7.311-9.037-6.684-4.374.625-7.412 4.678-6.786 9.052.148 1.039 1.28 7.396 8.997 30.524 4.316 12.935 19.685 21.714 46.984 26.841 15.763 2.961 34.209 4.072 36.875 3.925.571-.034 57.559-2.306 67.914 26.854 12.529 35.274 14.223 118.469 14.541 121.171.136 1.16 13.462 116.59.243 163.696-1.436 5.114 2.424 10.163 7.706 10.163 3.496 0 6.708-2.31 7.698-5.841 11.464-40.844 4.994-128.286.287-169.519z"/><path d="m133.534 70.425c2.674.136 20.969-.883 37.381-3.921 27.666-5.121 43.213-13.901 47.532-26.845 7.717-23.129 8.849-29.485 8.998-30.524.625-4.374-2.413-8.427-6.787-9.052-4.333-.629-8.36 2.362-9.036 6.68-.068.387-1.167 6.295-8.353 27.832-4.843 14.518-52.927 19.306-69.222 19.836-5.962-.273-69.406-2.202-83.505 37.492-12.64 35.588-15.201 118.028-15.396 125.026-4.71 41.255-11.173 128.683.285 169.519.991 3.531 4.202 5.841 7.698 5.841 5.285 0 9.141-5.051 7.707-10.163-13.127-46.782.292-164.313.294-164.418.023-.86 2.413-86.446 14.489-120.449 8.706-24.509 51.979-27.695 67.915-26.854z"/><path d="m433.697 237.85c-26.57-33.854-38.521-106.229-38.64-106.956-.688-4.248-4.604-7.188-8.882-6.662-4.271.529-7.356 4.341-6.986 8.628 3.261 37.684-15.538 92.991-15.729 93.546-.639 1.868-.434-6.407-.434 133.509h-216.422c-.154-138.7.388-131.116-.434-133.509-.19-.555-18.988-55.862-15.728-93.546.371-4.287-2.716-8.101-6.987-8.629-4.278-.53-8.195 2.416-8.881 6.665-.117.727-12.035 73.056-38.64 106.954-1.283 1.636-1.879 3.706-1.663 5.773.091.866 8.975 87.288.071 139.335-.745 4.354 2.181 8.489 6.536 9.234 4.36.747 8.49-2.183 9.234-6.537 8.396-49.077 1.965-124.044.385-140.537 12.4-16.947 21.591-40.488 28.003-61.593 4.292 22.546 10.392 41.635 12.103 46.788v273.688c0 4.418 3.582 8 8 8h232.423c4.418 0 8-3.582 8-8 0-12.031 0-261.753 0-273.688 1.711-5.153 7.811-24.244 12.104-46.79 6.411 21.107 15.601 44.644 28.003 61.593-1.58 16.494-8.012 91.461.385 140.539.667 3.898 4.05 6.651 7.876 6.651 4.991 0 8.728-4.487 7.896-9.35-8.905-52.047-.021-138.469.07-139.335.216-2.065-.38-4.135-1.663-5.771zm-70.67 154.9h-216.423v-16.786h216.423zm-100.211 103.252v-36.487c0-4.418-3.582-8-8-8s-8 3.582-8 8v36.487h-100.212v-87.252h216.423v87.253h-100.211z"/><path d="m305.595 245.885c-3.38-2.843-8.427-2.407-11.271.977-3.49 4.152-7.636 7.632-12.321 10.343-3.825 2.213-5.131 7.106-2.919 10.931 2.217 3.83 7.114 5.128 10.931 2.919 6.298-3.644 11.868-8.319 16.558-13.897 2.841-3.383 2.405-8.429-.978-11.273z"/><path d="m313.154 208.899c-4.418 0-8 3.582-8 8-.097 1.139.27 7.692-2.778 16.054-1.513 4.151.626 8.743 4.777 10.256 4.187 1.524 8.755-.661 10.256-4.777 2.729-7.492 3.905-15.678 3.745-21.417 0-4.74-3.744-8.116-8-8.116z"/><path d="m266.732 171.505c5.33.915 10.416 2.745 15.114 5.439 3.849 2.205 8.731.857 10.92-2.961 2.197-3.833.872-8.722-2.961-10.92-6.331-3.629-13.183-6.095-20.366-7.328-4.352-.744-8.491 2.176-9.238 6.531-.748 4.356 2.176 8.491 6.531 9.239z"/><path d="m306.417 176.9c-2.857-3.372-7.905-3.789-11.275-.934-3.371 2.856-3.789 7.904-.934 11.275 3.509 4.142 6.235 8.809 8.104 13.873 1.529 4.145 6.129 6.265 10.274 4.735 4.146-1.529 6.266-6.13 4.735-10.274-2.516-6.822-6.185-13.105-10.904-18.675z"/><path d="m227.723 271.113c3.829 2.205 8.721.888 10.925-2.939 2.206-3.829.89-8.72-2.939-10.926-4.69-2.701-8.843-6.174-12.341-10.321-2.849-3.378-7.897-3.805-11.273-.957-3.377 2.85-3.806 7.896-.957 11.273 4.7 5.571 10.28 10.238 16.585 13.87z"/><path d="m241.562 269.23c-.756 4.354 2.159 8.495 6.512 9.252 6.95 1.208 14.325 1.26 21.608-.021 4.352-.765 7.259-4.913 6.493-9.265s-4.913-7.265-9.265-6.493c-5.273.927-10.826.931-16.097.016-4.355-.76-8.495 2.159-9.251 6.511z"/><path d="m196.483 217.248c.015 7.314 1.289 14.479 3.788 21.295 1.513 4.128 6.092 6.284 10.265 4.759 4.148-1.521 6.278-6.117 4.758-10.265-1.854-5.058-2.799-10.38-2.81-15.822-.009-4.412-3.589-7.983-8-7.983-4.422-.001-8.01 3.587-8.001 8.016z"/><path d="m215.23 201.376c1.838-5.077 4.538-9.762 8.023-13.925 2.836-3.389 2.389-8.434-.999-11.27-3.389-2.839-8.434-2.39-11.27.998-4.689 5.602-8.322 11.909-10.798 18.749-1.504 4.154.644 8.741 4.798 10.246 4.138 1.496 8.736-.626 10.246-4.798z"/><path d="m224.617 174.185c2.221 3.819 7.117 5.116 10.937 2.896 4.683-2.722 9.756-4.581 15.08-5.527 4.35-.773 7.25-4.928 6.476-9.277-.773-4.351-4.921-7.252-9.277-6.477-7.174 1.276-14.011 3.782-20.319 7.449-3.82 2.219-5.117 7.116-2.897 10.936z"/></svg>