<svg id="Layer_1" enable-background="new 0 0 512 512" height="512" viewBox="0 0 512 512" width="512" xmlns="http://www.w3.org/2000/svg"><path d="m437.601 152.764c-20.222-56.583-31.662-110.686-37.697-146.108-.655-3.844-3.987-6.656-7.886-6.656h-272.036c-3.899 0-7.231 2.812-7.887 6.656-6.035 35.422-17.475 89.524-37.696 146.107-21.47 60.076-5.357 156.479 8.28 218.659 16.103 73.42 37.182 134.586 37.393 135.195 1.116 3.222 4.15 5.382 7.56 5.382h256.736c3.409 0 6.443-2.16 7.56-5.382.211-.609 21.29-61.775 37.393-135.195 13.603-62.026 29.768-158.535 8.28-218.658zm-310.892-136.764h258.582c6.35 35.67 17.67 87.024 36.748 140.747h-247.57c-4.418 0-8 3.582-8 8s3.582 8 8 8h252.304c2.23 9.6 3.689 20.037 4.489 31.096-56.966 13.565-139.156 40.774-175.262 86.945-36.105-46.169-118.293-73.38-175.264-86.946.801-11.058 2.261-21.495 4.492-31.095h28.128c4.418 0 8-3.582 8-8s-3.582-8-8-8h-23.395c19.078-53.723 30.398-105.077 36.748-140.747zm-46.684 204.132c46.709 11.384 137.198 38.942 167.975 87.003v188.865h-114.613c-9.716-29.429-55.142-172.869-53.362-275.868zm298.587 275.868h-114.612v-188.864c30.775-48.06 121.26-75.618 167.97-87.002 1.772 102.986-43.644 246.434-53.358 275.866z"/><path d="m256 123.109c6.474 0 10.155-7.247 6.649-12.439-2.771-4.208-8.778-4.751-12.31-1.22-5.107 5.095-1.353 13.659 5.661 13.659z"/><path d="m133.168 296.469c-1.185-8.017-1.792-12.685-1.798-12.73-.568-4.381-4.585-7.471-8.963-6.904-4.382.569-7.473 4.582-6.904 8.963.025.193.63 4.838 1.837 13.01.587 3.975 4.003 6.832 7.904 6.832 4.906-.001 8.636-4.353 7.924-9.171z"/><path d="m140.937 343.607c-1.415-7.834-2.785-15.758-4.071-23.552-.721-4.359-4.844-7.308-9.196-6.591-4.359.72-7.31 4.837-6.591 9.196 1.3 7.874 2.684 15.878 4.112 23.79.699 3.867 4.067 6.579 7.864 6.579 4.99.001 8.769-4.509 7.882-9.422z"/><path d="m150.183 390.481c-1.642-7.646-3.261-15.518-4.813-23.395-.854-4.334-5.055-7.164-9.396-6.302-4.335.854-7.156 5.061-6.302 9.396 1.569 7.965 3.207 15.926 4.868 23.66.806 3.754 4.123 6.322 7.813 6.322 5.109.001 8.897-4.709 7.83-9.681z"/><path d="m155.38 446.659c4.277-1.107 6.848-5.472 5.741-9.749-1.922-7.426-3.842-15.213-5.706-23.146-1.013-4.302-5.318-6.965-9.619-5.957-4.301 1.012-6.968 5.317-5.957 9.619 1.892 8.047 3.841 15.951 5.792 23.491 1.104 4.266 5.459 6.852 9.749 5.742z"/><path d="m167.378 459.861c-1.221-4.247-5.656-6.693-9.899-5.478-4.246 1.222-6.698 5.653-5.478 9.899 1.219 4.238 2.476 8.474 3.733 12.588 1.292 4.225 5.765 6.602 9.99 5.311 4.225-1.292 6.603-5.765 5.311-9.99-1.232-4.029-2.463-8.177-3.657-12.33z"/><path d="m407.205 276.834c-4.383-.566-8.394 2.523-8.963 6.904-.006.046-.613 4.714-1.798 12.73-.711 4.815 3.014 9.17 7.924 9.17 3.901 0 7.317-2.857 7.904-6.832 1.207-8.172 1.812-12.816 1.837-13.01.569-4.38-2.522-8.393-6.904-8.962z"/><path d="m393.639 360.785c-4.338-.859-8.542 1.967-9.396 6.302-1.553 7.877-3.172 15.748-4.813 23.395-1.068 4.974 2.724 9.682 7.829 9.682 3.69 0 7.008-2.569 7.813-6.322 1.661-7.734 3.299-15.695 4.868-23.66.855-4.336-1.966-8.543-6.301-9.397z"/><path d="m383.816 407.808c-4.304-1.006-8.608 1.656-9.619 5.957-1.864 7.933-3.784 15.72-5.706 23.146-1.106 4.277 1.464 8.642 5.741 9.749 4.297 1.112 8.646-1.483 9.749-5.741 1.951-7.54 3.9-15.444 5.792-23.491 1.011-4.303-1.656-8.609-5.957-9.62z"/><path d="m401.943 313.465c-4.361-.709-8.476 2.232-9.196 6.591-1.286 7.794-2.656 15.718-4.071 23.552-.785 4.348 2.104 8.509 6.451 9.295 4.385.784 8.514-2.132 9.295-6.451 1.429-7.912 2.813-15.916 4.112-23.79.719-4.36-2.231-8.477-6.591-9.197z"/><path d="m372.132 454.384c-4.247-1.226-8.679 1.233-9.898 5.479-1.193 4.151-2.423 8.299-3.656 12.327-1.293 4.226 1.083 8.698 5.308 9.991 4.214 1.292 8.697-1.076 9.991-5.308 1.26-4.116 2.517-8.353 3.734-12.591 1.22-4.247-1.233-8.678-5.479-9.898z"/><path d="m143.41 172.75c9.436 0 11.145-13.776 1.56-15.851-4.845-.972-9.56 2.741-9.56 7.851 0 4.47 3.67 8 8 8z"/></svg>