<svg id="Layer_1" enable-background="new 0 0 512 512" height="512" viewBox="0 0 512 512" width="512" xmlns="http://www.w3.org/2000/svg"><path d="m425.612 162.85c4.362-10.829 4.537-36.85.41-74.647-6.294-57.653-1.43-76.284-1.062-77.572 1.908-4.888-1.543-10.631-7.558-10.631h-322.804c-5.998 0-9.472 5.728-7.559 10.631.368 1.288 5.232 19.919-1.062 77.572-4.133 37.855-3.952 63.9.43 74.698 0 65.54-6.246 260.073 22.683 343.714 1.114 3.223 4.15 5.385 7.561 5.385h98.08c3.717 0 6.943-2.56 7.79-6.178.229-.978 19.437-83.259 33.479-154.646 14.043 71.387 33.251 153.668 33.479 154.646.847 3.618 4.073 6.178 7.79 6.178h98.08c3.41 0 6.445-2.162 7.561-5.385 28.064-81.14 22.689-263.345 22.702-343.765zm-321.441-146.85h303.658c-5.036 43.967 9.732 106.426 3.88 137.316h-311.418c-5.81-30.664 8.882-93.649 3.88-137.316zm104.202 480h-85.917c-22.597-73.521-21.082-236.28-20.281-278.175 13.014 3.563 26.153 8.105 37.271 12.675 4.088 1.679 8.761-.271 10.441-4.357 1.68-4.087-.271-8.762-4.357-10.441-14.353-5.897-29.705-10.925-43.122-14.382v-32.002h307.205v31.989c-42.117 10.773-97.413 34.076-121.01 71.142-5.727 9.029-6.387 13.269-8.703 17.339-9.55 16.779-32.466 17.8-44.17 4.971-7.82-8.573-6.26-20.109-27.329-40.542-3.157-3.063-8.224-3.011-11.312.173-2.877 2.878-3.194 7.946.173 11.313.299 0 12.681 12.028 18.142 26.086 5.318 13.687 16.809 23.553 30.532 26.62-11.817 65.034-32.033 153.627-37.563 177.591zm181.17 0h-85.916c-5.529-23.962-25.744-112.547-37.562-177.589 9.662-2.212 17.947-7.534 23.929-15.063 8.189-10.297 6.668-18.98 22.789-35.721 27.626-28.323 76.515-44.122 97.037-49.778.784 41.939 2.237 204.849-20.277 278.151z"/><path d="m248.61 125.84c3.378 8.091 15.391 5.602 15.391-3.06 0-7.195-8.691-10.629-13.66-5.66-2.259 2.258-2.979 5.71-1.731 8.72z"/><path d="m139.45 374.082c4.412-.236 7.797-4.004 7.561-8.416-.459-8.581-.854-17.281-1.175-25.859-.165-4.415-3.858-7.873-8.293-7.695-4.415.164-7.86 3.877-7.695 8.293.323 8.663.723 17.45 1.187 26.117.235 4.406 3.998 7.797 8.415 7.56z"/><path d="m137.25 322.095c4.418-.09 7.926-3.744 7.835-8.161-.27-13.22-.254-20.169-.254-25.802.034-4.453-3.568-8.063-8.001-8.063-4.389 0-7.964 3.54-7.999 7.937.012 6.751-.028 12.316.258 26.255.089 4.379 3.693 7.913 8.161 7.834z"/><path d="m143.407 425.959c4.401-.392 7.651-4.277 7.26-8.678-.747-8.397-1.438-17.073-2.054-25.786-.312-4.406-4.122-7.738-8.544-7.417-4.407.312-7.728 4.137-7.417 8.544.623 8.811 1.321 17.584 2.077 26.077.393 4.406 4.284 7.651 8.678 7.26z"/><path d="m153.218 443.002c-.482-4.392-4.415-7.555-8.825-7.079-4.392.482-7.562 4.434-7.079 8.825.9 8.2 1.878 16.31 2.904 24.102.531 4.026 3.968 6.956 7.922 6.956 4.868 0 8.57-4.278 7.941-9.046-1.013-7.679-1.975-15.672-2.863-23.758z"/><path d="m367.608 435.923c-4.385-.476-8.344 2.687-8.825 7.079-.888 8.086-1.851 16.079-2.863 23.758-.628 4.769 3.074 9.046 7.941 9.046 3.953 0 7.392-2.93 7.922-6.956 1.026-7.792 2.004-15.901 2.904-24.102.482-4.392-2.688-8.343-7.079-8.825z"/><path d="m374.457 332.111c-4.463-.162-8.128 3.281-8.293 7.695-.32 8.578-.716 17.278-1.175 25.859-.246 4.588 3.408 8.428 7.995 8.428 4.223 0 7.753-3.306 7.981-7.572.464-8.667.863-17.454 1.187-26.117.166-4.416-3.28-8.129-7.695-8.293z"/><path d="m375.106 280.069c-4.418.035-7.971 3.645-7.937 8.063 0 7.415-.005 13.602-.254 25.802-.092 4.496 3.53 8.163 8.001 8.163 4.342 0 7.906-3.475 7.995-7.837.294-14.352.249-21.409.258-26.255-.035-4.419-3.602-7.963-8.063-7.936z"/><path d="m371.931 384.078c-4.394-.323-8.232 3.009-8.544 7.417-.615 8.713-1.307 17.389-2.054 25.786-.392 4.4 2.858 8.286 7.26 8.678 4.388.391 8.285-2.848 8.678-7.26.756-8.493 1.454-17.267 2.077-26.077.31-4.407-3.01-8.232-7.417-8.544z"/><path d="m175.206 228.381c-4.418 0-8 3.582-8 8s3.582 8 8 8c4.477 0 8.011-3.612 8.011-8 0-4.418-3.593-8-8.011-8z"/></svg>