<svg id="Layer_1" enable-background="new 0 0 512.266 512.266" height="512" viewBox="0 0 512.266 512.266" width="512" xmlns="http://www.w3.org/2000/svg"><path d="m435.692 241.522c-27.722-51.723-31.133-52.113-30.511-60.515 1.068-14.397 1.621-49.048-14.096-74.911 17.03-22.513 2.32-48.559-18.322-67.979-51.289-48.256-194.083-70.339-275.59 55.873-72.899 112.886 47.071 295.373 87.947 314.644-.343 41.438-3.121 94.549-3.15 95.106-.241 4.568 3.401 8.421 7.989 8.421 95.52-.859 92.838 1.922 97.082-2.386 1.503-1.526 2.332-3.592 2.3-5.734-.99-66.171 15.081-106.416 24.749-124.516 2.247-4.208 6.423-6.934 11.171-7.291 43.061-3.241 69.31-10.268 78.016-20.886 12.616-15.387 8.977-57.588 6.832-74.997l17.027-8.125c9.992-4.77 13.936-17 8.556-26.704zm-325.077-138.852c76.493-118.451 208.109-93.426 251.185-52.9 16.011 15.064 22.93 28.78 20.009 39.666-1.647 6.139-6.412 10.254-6.327 10.154-7.384 7.016-15.501 8.517-22.753 10.059-17.674 3.762-47.254 10.057-60.395 30.5-6.442 10.022-8.162 22.068-5.111 35.804 5.715 25.734 15.812 54.604 13.357 63.18-17.63.73-53.266-92.7-97.537-48.981-27.997 27.647-6.021 71.613 25.658 91.846-11.81 4.652-26.648 11.805-35.755 22.782-15.848 19.102-2.72 66.761-3.059 88.304-39.211-24.578-143.58-190.833-79.272-290.414zm309.628 151.117-22.284 10.634c-3.167 1.511-4.979 4.909-4.47 8.381 1.252 8.539 2.235 18.932 2.598 29.085h-28.53c-4.418 0-8 3.582-8 8s3.582 8 8 8h28.513c-.477 10.644-2.019 19.477-5.168 23.317-4.049 4.938-23.985 11.85-66.845 15.075-10.238.771-19.241 6.644-24.083 15.708-9.985 18.694-26.327 59.168-26.673 124.174h-74.939c.808-16.959 2.529-56.341 2.764-88.467 11.472-10.855-1.362-46.144.113-77.134.587-12.335 3.166-15.363 7.913-19.538 10.023-8.813 25.968-14.474 35.059-17.703 6.235-2.214 13.307-4.195 13.252-11.005-.033-4.135-2.747-7.664-8.034-8.534-20.007-3.292-60.542-47.167-35.147-72.246 16.129-15.93 28.674-2.537 49.962 24.867 10.495 13.51 22.471 30.837 38.866 28.536 4.5-.632 7.42-2.731 9.23-4.718 11.458-12.586-1.457-41.517-9.501-77.736-6.974-31.407 21.45-40.426 53.217-47.185 7.613-1.62 14.226-2.84 22.883-8.271 11.772 21.611 11.196 50.501 10.284 62.796-.465 6.27.911 12.508 3.978 18.041l28.495 51.413c.911 1.64.245 3.699-1.453 4.51z"/><path d="m255.069 244.941c-14.524-5.176-21.427-23.37-21.561-23.729-1.507-4.144-6.083-6.289-10.233-4.791-4.156 1.5-6.31 6.084-4.811 10.24.376 1.041 9.45 25.59 31.233 33.353 4.135 1.474 8.729-.663 10.221-4.851 1.484-4.163-.688-8.739-4.849-10.222z"/><path d="m343.583 482.613-15.928-5.136 1.413-1.045c3.552-2.627 4.302-7.637 1.674-11.189-2.627-3.551-7.637-4.301-11.189-1.674l-13.938 10.31c-2.752 2.036-3.904 5.598-2.865 8.86l5.256 16.499c1.342 4.211 5.841 6.534 10.051 5.194 4.21-1.342 6.536-5.842 5.194-10.052l-.536-1.684 15.958 5.146c4.222 1.359 8.718-.969 10.069-5.159 1.356-4.205-.954-8.713-5.159-10.07z"/><path d="m364.489 434.718-12.798-10.75 1.714-.438c4.281-1.094 6.864-5.451 5.771-9.731-1.094-4.28-5.454-6.864-9.731-5.771l-16.808 4.295c-3.313.847-5.723 3.706-5.994 7.115l-1.376 17.258c-.371 4.648 3.297 8.636 7.983 8.636 4.13 0 7.632-3.176 7.966-7.364l.142-1.783 12.84 10.786c3.373 2.834 8.423 2.411 11.271-.98 2.842-3.384 2.403-8.431-.98-11.273z"/><path d="m400.842 376.039-16.87-4.046c-3.319-.797-6.78.603-8.614 3.482l-9.304 14.613c-2.373 3.728-1.275 8.672 2.452 11.045 3.708 2.363 8.661 1.292 11.044-2.451l.972-1.526 6.293 15.521c1.649 4.067 6.296 6.077 10.419 4.408 4.095-1.66 6.068-6.325 4.408-10.42l-6.279-15.486 1.747.419c4.294 1.031 8.614-1.616 9.645-5.913 1.03-4.297-1.617-8.615-5.913-9.646z"/><path d="m122.647 199.62c-.542-4.386-4.533-7.499-8.92-6.959-4.385.542-7.5 4.535-6.958 8.92 6.507 52.672 23.531 81.794 36.666 96.949 2.885 3.33 7.938 3.707 11.285.807 3.338-2.895 3.699-7.946.806-11.285-9.562-11.032-26.548-37.191-32.879-88.432z"/><path d="m112.153 179.332c4.418 0 7.987-3.582 7.987-8s-3.594-8-8.013-8-8 3.582-8 8c.001 4.342 3.498 8 8.026 8z"/></svg>