<svg id="Layer_1" enable-background="new 0 0 512.08 512.08" height="512" viewBox="0 0 512.08 512.08" width="512" xmlns="http://www.w3.org/2000/svg"><path d="m433.206 257.985c-17.77-40.008-30.792-62.176-28.63-104.689.824-16.225 1.828-36.136-7.876-56.867 4.407-6.746 5.489-14.444 3.108-22.554-9.161-31.2-70.564-61.853-93.65-67.503-47.896-11.722-121.723-10.49-172.159 31.567-41.103 34.275-59.729 88.927-55.36 162.437 5.319 89.494 41.594 79.317 34.873 171.284-1.843 25.206-20.796 49.559-9.014 109.696.333 1.701 1.21 3.249 2.5 4.409 1.014.912 25.275 22.396 62.951 25.987 24.163 2.309 51.531-7.906 71.602-20.851 39.813-.769 41.906 1.787 46.017-2.386 1.504-1.526 2.333-3.592 2.3-5.733-.932-62.479 13.265-117.16 19.233-128.06 19.352-.142 43.8 11.924 57.568-2.515 13.557-14.221 22.909-58.542 26.136-75.881 34.745-1.605 38.106-6.943 39.769-9.585 3.083-4.9.386-8.756.632-8.756zm-261.738 237.84c-26.623-2.538-45.82-15.746-51.802-20.361-9.939-54.41 7.741-74.431 9.803-102.638 7.031-96.217-29.824-88.696-34.858-173.399-5.891-99.128 33.283-170.282 131.3-181.857 25.165-2.971 53.026-1.389 76.444 4.344 27.257 6.672 98.683 47.454 79.111 68.067h-.001c-3.591 4.788-41.286 36.629-55.672 51.033-7.508 7.518-13.315 7.65-22.105 7.852-5.591.128-13.803.469-19.527 2.656-13.107 5.012-20.175 24.701-23.924 38.262-9.057-9.606-20.327-16.322-33.415-15.757-39.891 1.74-50.63 52.529-14.395 79.756 14.145 21.647 5.898 64.821-1.988 89.455-12.56 39.223 3.567 98.35 18.731 136.489-10.43 6.141-34.444 18.323-57.702 16.098zm214.349-235.246c-3.821.113-7.029 2.915-7.655 6.687-1.682 10.137-4.469 23.57-7.867 36.331-11.022 3.517-20.163-.875-20.687-1.134-3.911-2.005-8.709-.477-10.74 3.426-2.041 3.918-.519 8.75 3.4 10.791 5.14 2.678 14.017 4.789 22.859 4.107-3.182 9.254-6.619 16.793-10.039 20.38-6.138 6.439-30.835-3.723-49.895-2.291-6.64.502-10.375 7.237-13.939 17.196-8.021 22.404-17.171 70.112-17.424 118.829h-29.335c-13.471-33.635-29.198-88.798-19.646-123.959.705-2.597.682-2.272 1.911-6.287 8.757-28.62 14.645-65.773 2.588-92.991-4.081-9.225-6.262-9.791-8.52-11.624-22.369-18.164-17.966-48.955 6.692-50.031 12.62-.524 23.237 11.765 29.988 22.462 3.918 6.209 13.475 4.274 14.662-2.979 3.16-19.308 10.366-37.669 16.232-42.182 2.885-2.222 12.069-2.369 15.652-2.451 21.526-.49 25.479-5.535 38.55-17.851 12.471-11.749 31.109-27.628 42.058-37.829 5.368 15.111 4.614 29.939 3.936 43.304-2.196 43.202 9.288 66.207 27.053 105.461-7.006 1.289-19.361 2.324-29.834 2.635z"/><path d="m144.234 95.736c-3.65-2.488-8.627-1.549-11.117 2.102-30.63 44.908-17.157 102.413-16.568 104.839 1.041 4.29 5.357 6.921 9.649 5.886 4.291-1.035 6.932-5.355 5.902-9.647-.126-.526-12.326-53.12 14.234-92.062 2.49-3.652 1.55-8.628-2.1-11.118z"/><path d="m129.074 218.22c-4.418 0-8 3.582-8 8s3.582 8 8 8c4.531 0 8.012-3.66 8.012-8 0-4.418-3.594-8-8.012-8z"/><path d="m348.311 427.823-12.678-10.686 1.646-.422c4.28-1.098 6.859-5.456 5.762-9.736-1.098-4.279-5.457-6.857-9.737-5.762l-16.688 4.279c-3.311.849-5.717 3.708-5.988 7.115l-1.366 17.195c-.369 4.653 3.303 8.634 7.984 8.634 4.131 0 7.633-3.178 7.966-7.366l.134-1.682 12.654 10.665c3.371 2.84 8.419 2.424 11.272-.961 2.848-3.379 2.418-8.426-.961-11.273z"/><path d="m378.738 370.17-17.095-2.13c-3.397-.432-6.683 1.358-8.181 4.435l-7.554 15.503c-2.601 5.338 1.33 11.506 7.186 11.506 6.034 0 7.632-5.644 7.932-6.006l7.88 14.563c2.099 3.879 6.948 5.335 10.843 3.229 3.886-2.103 5.332-6.958 3.229-10.844l-7.893-14.586 1.674.208c4.383.551 8.382-2.563 8.928-6.949.547-4.386-2.565-8.383-6.949-8.929z"/><path d="m341.557 474.326-15.075-6.884 1.477-.852c3.828-2.207 5.141-7.1 2.934-10.927-2.209-3.828-7.1-5.142-10.927-2.933l-14.928 8.609c-2.96 1.706-4.509 5.104-3.856 8.458l3.295 16.931c.842 4.328 5.035 7.171 9.381 6.324 4.337-.844 7.168-5.044 6.324-9.381l-.324-1.665c14.723 6.482 15.378 7.599 18.371 7.599 8.584 0 11.096-11.731 3.328-15.279z"/></svg>