<svg id="Layer_1" enable-background="new 0 0 512 512" height="512" viewBox="0 0 512 512" width="512" xmlns="http://www.w3.org/2000/svg"><path d="m262.354 234.487c4.329 0 15.93-.376 26.543-1.134 4.407-.314 7.725-4.142 7.41-8.549s-4.136-7.716-8.549-7.41c-8.456.604-17.041.972-25.518 1.094-4.418.063-7.948 3.696-7.884 8.114.064 4.379 3.633 7.885 7.998 7.885z"/><path d="m314.185 230.785c2.524 0 19.667-2.792 27.159-4.195 4.343-.813 7.204-4.993 6.391-9.336s-4.992-7.199-9.336-6.391c-8.332 1.561-16.82 2.902-25.228 3.986-4.382.565-7.476 4.576-6.911 8.958.521 4.036 3.962 6.978 7.925 6.978z"/><path d="m367.193 220.981c11.022-2.722 18.07-4.873 25.346-6.898 4.252-1.203 6.723-5.625 5.521-9.876-1.203-4.252-5.627-6.718-9.876-5.521-6.863 1.912-14.319 4.167-24.826 6.762-4.29 1.06-6.908 5.396-5.849 9.685 1.066 4.318 5.425 6.902 9.684 5.848z"/><path d="m209.636 232.239c12.45 1.242 25.268 1.883 26.731 1.883 4.262 0 7.804-3.361 7.987-7.66.188-4.414-3.238-8.145-7.653-8.333-8.475-.36-17.046-.97-25.476-1.811-4.396-.454-8.316 2.769-8.755 7.165s2.77 8.317 7.166 8.756z"/><path d="m157.399 224.002c4.398.953 24.432 4.961 27.257 4.961 3.869 0 7.271-2.813 7.893-6.755.688-4.364-2.292-8.46-6.656-9.148-8.375-1.32-16.822-2.9-25.107-4.694-4.319-.935-8.577 1.808-9.512 6.125-.935 4.318 1.807 8.576 6.125 9.511z"/><path d="m106.645 210.463c19.769 5.695 20.921 6.056 25.072 7.206 4.266 1.178 8.667-1.321 9.845-5.575 1.179-4.258-1.317-8.665-5.575-9.845-3.883-1.074-5.348-1.524-24.907-7.159-4.243-1.222-8.679 1.224-9.904 5.469-1.224 4.245 1.224 8.679 5.469 9.904z"/><path d="m442.78 256.04c3.789-7.604 11.94-28.065 6.262-54.578-4.801-22.417-12.749-35.354-19.762-46.77-18.603-30.279-20.615-43.584 5.023-144.721 1.285-5.051-2.537-9.971-7.753-9.971h-341.121c-5.21 0-9.04 4.915-7.753 9.972.159.628 15.99 63.043 18.402 87.513 5.282 53.577-21.82 51.119-33.141 103.978-5.642 26.345 2.514 46.942 6.266 54.556-13.923 56.645-3.538 117.891 16.922 171.795 18.005 47.438 39.684 79.367 40.598 80.703 1.491 2.18 3.962 3.482 6.603 3.482h245.327c2.641 0 5.111-1.303 6.603-3.482.914-1.336 22.593-33.265 40.599-80.703 20.591-54.254 30.769-115.425 16.925-171.774zm-364.197-51.227c8.003-37.367 26.487-45.625 32.407-75.062 15.011 7.132 34.223 11.622 37.137 11.622 3.731 0 7.069-2.624 7.834-6.423.872-4.331-1.932-8.549-6.263-9.422-23.166-4.665-36.378-12.568-36.645-12.73-1.131-.695.695.843-1.053-16.885-1.948-19.776-11.672-60.89-16.336-79.913h320.651c-13.456 54.883-18.689 81.918-16.675 104.329-8.007 1.641-22.828 4.126-42.621 5.052-4.413.206-7.823 3.951-7.617 8.365.205 4.386 3.92 7.821 8.365 7.617 20.604-.963 36.036-3.501 44.771-5.284 7.333 25.205 23.356 33.706 30.859 68.734 4.36 20.36-1.389 36.4-4.365 42.87-137.179 21.06-231.859 17.533-346.117-.004-2.982-6.393-8.738-22.293-4.332-42.866zm.451 115.712c16.081 4.102 37.294 10.287 59.85 18.985 4.124 1.592 8.753-.463 10.343-4.586 1.589-4.122-.463-8.753-4.586-10.342-25.198-9.717-48.756-16.389-65.709-20.58.378-13.107 1.933-26.679 4.898-39.997 132.417 20.328 231.169 17.371 344.32 0 2.921 13.119 4.542 26.911 4.898 39.998-42.003 10.401-128.755 37.235-177.057 90.072-14.515-15.893-33.534-30.612-56.669-43.846-3.833-2.193-8.722-.863-10.917 2.973-2.194 3.835-.863 8.723 2.972 10.916 23.834 13.633 42.855 28.801 56.612 45.108v86.774h-110.33c-30.996-48.748-56.209-114.982-58.625-175.475zm295.283 175.475h-110.327v-86.786c42.955-50.921 126.022-77.72 168.955-88.688-2.407 60.216-27.382 126.277-58.628 175.474z"/><path d="m171.133 336.579c-4.531 0-8.013 3.66-8.013 8 0 4.418 3.594 8 8.013 8s8-3.582 8-8-3.581-8-8-8z"/></svg>