<svg id="Layer_1" enable-background="new 0 0 512 512" height="512" viewBox="0 0 512 512" width="512" xmlns="http://www.w3.org/2000/svg"><path d="m426.67 272.628c16.127-25.039 21.109-59.965 14.382-101.37-5.208-32.056-15.426-56.579-15.832-57.545-.235-.574-23.391-57.955-7.295-103.022 1.857-5.199-2-10.69-7.534-10.69h-308.782c-5.545 0-9.388 5.5-7.534 10.69 16.051 44.942-7.063 102.452-7.27 102.96-.432 1.028-10.649 25.552-15.857 57.607-6.73 41.422-1.741 76.359 14.401 101.4 0 73.735-2.65 146.458 3.879 231.951.318 4.17 3.795 7.391 7.977 7.391h142.228c3.786 0 7.054-2.654 7.83-6.36 3.229-15.421 6.145-29.773 8.737-42.994 2.592 13.22 5.508 27.573 8.737 42.994.776 3.706 4.044 6.36 7.83 6.36h142.228c4.182 0 7.658-3.221 7.977-7.391 6.305-82.588 3.898-148.46 3.898-231.981zm-325.089-152.839c.984-2.398 22.396-55.5 10.74-103.789h287.357c-11.655 48.289 9.757 101.396 10.766 103.852.392.932 38.718 93.731.894 146.91-18.004 25.313-122.739 32.548-155.338 33.206-32.023-.642-137.26-7.788-155.338-33.206-37.754-53.08.504-145.982.919-146.973zm131.349 376.211h-128.288c-4.832-68.996-4.032-141.672-3.526-167.689 39.881 10.704 98.965 35.701 114.069 74.662 5.328 13.745 16.883 23.743 30.749 26.824-3.407 18.796-7.767 40.997-13.004 66.203zm174.429 0h-128.289c-5.236-25.204-9.598-47.403-13.003-66.198 14.349-3.221 25.599-13.493 30.768-26.83 2.669-6.883 6.835-13.643 12.384-20.091 2.882-3.349 2.503-8.4-.847-11.282-3.335-2.87-8.39-2.516-11.282.847-6.739 7.832-11.844 16.156-15.173 24.743-9.175 23.662-42.675 23.57-51.814 0-17.505-45.16-81.592-73.338-128.753-85.396v-23.699c33.88 20.505 115.45 27.141 154.493 27.875 27.261.514 119.587-6.543 154.827-27.887v23.723c-17.096 4.412-36.046 10.943-53.28 18.777-4.022 1.829-5.8 6.572-3.971 10.594 1.83 4.022 6.574 5.801 10.594 3.971 14.857-6.76 31.449-12.59 46.882-16.827.527 25.982 1.357 97.977-3.536 167.68z"/><path d="m252.968 254.073c.056 4.566 3.906 8.024 8.098 7.9 7.777-.096 15.661-.418 23.433-.958 4.408-.306 7.733-4.127 7.427-8.534-.306-4.408-4.142-7.733-8.534-7.427-7.47.519-15.048.828-22.522.921-4.42.055-7.957 3.68-7.902 8.098z"/><path d="m353.938 250.156c12.493-3.067 20.707-5.684 22.56-6.218 4.232-1.268 6.636-5.727 5.367-9.959-1.268-4.232-5.727-6.637-9.959-5.367-1.599.461-10.099 3.137-21.782 6.005-4.291 1.054-6.915 5.386-5.862 9.677 1.051 4.284 5.378 6.917 9.676 5.862z"/><path d="m307.84 258.72c7.722-.982 15.519-2.201 23.172-3.624 4.344-.808 7.211-4.983 6.403-9.327-.808-4.343-4.975-7.21-9.327-6.403-7.354 1.367-14.847 2.539-22.268 3.483-4.383.558-7.484 4.563-6.926 8.945.559 4.393 4.578 7.486 8.946 6.926z"/><path d="m122.985 240.19c22.033 6.605 22.595 6.876 24.35 6.876 9.231 0 11.091-13.201 2.155-15.705-5.439-1.525-7.689-2.254-21.915-6.499-4.235-1.262-8.69 1.137-9.959 5.369-1.267 4.233 1.136 8.691 5.369 9.959z"/><path d="m167.927 252.449c7.61 1.671 15.363 3.143 23.043 4.374 4.409.702 8.473-2.311 9.166-6.633.699-4.363-2.271-8.467-6.633-9.166-7.381-1.183-14.831-2.597-22.145-4.202-4.318-.948-8.582 1.782-9.529 6.098-.948 4.315 1.782 8.582 6.098 9.529z"/><path d="m214.225 259.874c11.144 1.14 22.501 1.727 23.754 1.727 4.254 0 7.794-3.351 7.986-7.643.197-4.413-3.221-8.151-7.635-8.35-7.474-.334-15.037-.89-22.479-1.651-4.39-.432-8.322 2.749-8.772 7.146-.449 4.395 2.75 8.322 7.146 8.771z"/><path d="m328.299 347.788c-4.418 0-8 3.582-8 8s3.582 8 8 8c4.523 0 8.012-3.653 8.012-8 0-4.418-3.594-8-8.012-8z"/></svg>