<svg id="Layer_1" enable-background="new 0 0 512.085 512.085" height="512" viewBox="0 0 512.085 512.085" width="512" xmlns="http://www.w3.org/2000/svg"><path d="m391.66 112.279c12.608-26.476 8.241-61.265-26.983-92.996-41.75-37.607-106.208-10.255-125.204-.86-23.466-20.426-52.585-20.464-76.324 7.872-44.512-10.704-83.794 21.134-54.971 85.712-10.209 9.266-29.847 33.479-25.476 80.042 2.68 28.546 17.61 61.214 24.952 75.842-27.873 15.853-25.113 49.06-14.731 66.623l-55.567 70.792c-6.896 8.785-5.36 21.474 3.438 28.363 8.799 6.889 21.518 5.298 28.372-3.434l37.06-47.215c2.711-3.454 6.957-5.432 11.352-5.428.901-.177 16.386 2.122 26.98-11.375l6.479-8.255c18.275-1.594 40.767-6.537 56.298-16.451v19.004c-30.718 8.887 51.305-14.844-64.644 18.702-25.45 7.363-43.306 30.99-43.422 57.457l-.289 67.104c-.019 4.427 3.566 8.03 7.993 8.034 51.388.048 291.232.273 291.116.273 4.404 0 7.98-3.561 8-7.965l.288-65.645c.117-26.779-17.799-50.64-43.569-58.024-16.063-4.603-59.742-17.12-70.108-20.091v-18.54c27.309 17.092 106.02 33.778 119.313-20.72 6.052-24.811-2.796-43.349-20.126-53.211 7.342-14.628 22.272-47.296 24.952-75.842 4.328-46.115-14.892-70.307-25.179-79.768zm-270.59 249.356c-.14 0-.398-.004-3.287-.041-9.33-.131-18.374 4.197-24.143 11.547l-37.06 47.215c-1.435 1.83-4.091 2.148-5.922.715-1.809-1.417-2.162-4.045-.716-5.887 4.957-6.315 112.345-143.128 120.793-153.891.674-.859 1.997-.701 2.465.26 2.781 5.72 2.385 5.111 2.485 5.111 6.135 12.613 4.625 28.09-4.208 39.343-7.219 9.197-31.538 40.18-39.506 50.331-2.609 3.326-6.674 5.297-10.901 5.297zm90.245-237.591c23.686 22.315 53.764 28.609 83.107 11.039 13.58 17.409 33.394 19.755 47.813 17.562 0 72.207-17.027 154.402-80.326 186.939-11.547 5.926-12.947 5.211-20.115 1.856-20.521-9.629-36.444-24.359-48.759-42.641 2.988-9.623 3.269-20.238.309-30.564-1.595-5.554-3.333-8.667-5.755-13.679-3.449-7.093-11.048-10.857-18.654-9.579-9.788-34.449-12.933-74.573-11.13-110.024 20.007 5.999 40.944 5.88 53.51-10.909zm146.505 55.595c8.054 2.75 13.86 10.383 13.86 19.343 0 10.574-8.087 19.294-18.41 20.331 2.258-13.092 3.753-26.78 4.55-39.674zm-81.12 206.958c0 14.688-11.97 26.638-26.683 26.638-14.712 0-26.682-11.949-26.682-26.638 0-9.004 0-27.31 0-36.863 6.608 3.949 14.315 7.547 17.13 8.577 6.554 2.403 14.031 2.172 20.583-.637 5.379-2.311 10.959-5.182 15.652-7.99zm-129.993-167.244c-10.532-.829-18.847-9.648-18.847-20.371 0-9.083 5.968-16.8 14.194-19.453.77 12.255 2.194 25.782 4.653 39.824zm18.546 120.499c21.769-27.712 19.479-25.14 19.855-24.647 3.683 4.828 7.69 9.5 11.984 13.862-10.011 5.924-22.952 9.144-31.839 10.785zm-49.983 96.892c.085-19.417 13.19-36.753 31.869-42.157l17.862-5.167c7.4 33.114 19.59 74.557 38.568 106.484l-88.553-.083zm275.107 1.662-.252 57.672-88.386-.083c1.801-3.026 3.569-6.176 5.294-9.449 2.06-3.908.56-8.747-3.349-10.807-3.91-2.056-8.748-.56-10.807 3.35-3.234 6.139-6.611 11.803-10.066 16.889l-60.301-.057c-12.527-18.465-29.086-52.06-42.113-110.955l26.939-7.794v9.426c0 23.511 19.147 42.638 42.683 42.638 23.535 0 42.682-19.127 42.682-42.638v-9.593l31.991 9.167c-2.976 13.28-6.32 26.026-9.968 37.986-1.289 4.227 1.093 8.697 5.319 9.986 4.228 1.288 8.697-1.093 9.985-5.318 3.679-12.065 7.051-24.9 10.063-38.241l18.311 5.248c18.912 5.419 32.061 22.926 31.975 42.573zm10.531-247.854c-3.188 33.958-26.815 76.874-27.053 77.302-2.522 4.54-.111 10.239 4.889 11.603 1.032.282 25.19 7.244 17.724 37.854-7.73 31.686-49.349 24.479-51.1 24.158-.439-.082-25.313-2.239-42.637-12.271 24.897-25.187 39.505-59.564 47.333-93.779 22.704 0 37.615-17.408 37.615-36.437 0-17.69-12.686-32.47-29.445-35.752v-20.836c0-5.282-5.142-9.516-10.973-7.431-1.01.353-8.128 2.705-16.707 2.243-11.501-.621-20.905-6.33-26.893-17.093-2.336-4.201-7.825-5.403-11.701-2.578-17.85 13.003-35.812 15.156-53.383 6.401-13.83-6.89-22.456-18.146-22.528-18.242-3.766-5.029-11.617-3.943-13.872 1.926-7.698 20.034-28.551 16.745-48.623 8.946-4.999-1.938-10.413 1.536-10.962 6.702-.143 1.349-1.738 17.038-1.231 39.952-16.787 3.26-29.501 18.053-29.501 35.762 0 20.091 16.362 36.437 36.473 36.437 3.021 0 .127-2.196 6.913 19.695-7.739 9.859-45.125 57.489-51.27 65.318-7.081-20.888 2.302-36.781 16.819-40.975 5.009-1.366 7.406-7.072 4.889-11.603-.238-.429-23.859-43.277-27.053-77.302-4.75-50.611 22.617-68.745 23.731-69.459 3.609-2.229 4.851-6.886 2.832-10.615-5.37-9.919-17.084-39.336-6.943-56.118 13.289-21.987 43.915-11.775 45.191-11.337 3.292 1.15 6.949.037 9.042-2.753 9.758-13.016 20.1-19.839 30.739-20.282 16.078-.67 28.715 13.337 28.822 13.456 2.494 2.851 6.647 3.56 9.948 1.701.717-.403 72.062-39.932 111.976-3.974 45.966 41.406 21.995 76.907 20.898 78.473-2.683 3.767-1.623 9.019 2.312 11.449.285.177 28.537 18.249 23.729 69.459z"/><path d="m461.08 268.291h-3.542v-31.264c0-4.418-3.582-8-8-8s-8 3.582-8 8v31.264h-3.542c-9.905 0-17.963 8.053-17.963 17.951v102.36c0 4.418 3.582 8 8 8h13.505v44.138h-11.339c-4.418 0-8 3.582-8 8s3.582 8 8 8h38.679c4.418 0 8-3.582 8-8s-3.582-8-8-8h-11.34v-44.138h13.505c4.418 0 8-3.582 8-8 0-10.157 0-93.019 0-102.36 0-9.898-8.058-17.951-17.963-17.951zm-25.048 17.952c0-1.076.881-1.951 1.963-1.951h23.084c1.083 0 1.963.875 1.963 1.951v20.344h-27.011v-20.344zm0 94.36v-58.017h27.011v58.017z"/><path d="m210.926 201.202c-4.418 0-8 3.582-8 8s3.582 8 8 8c4.54 0 8.013-3.667 8.013-8 0-4.418-3.594-8-8.013-8z"/><path d="m182.054 186.172c0 4.418 3.582 8 8 8h36.895c4.418 0 8-3.582 8-8s-3.582-8-8-8h-36.895c-4.418 0-8 3.582-8 8z"/><path d="m288.613 201.202c-4.54 0-8.013 3.667-8.013 8 0 4.418 3.594 8 8.013 8s8-3.582 8-8-3.581-8-8-8z"/><path d="m272.591 194.172h36.895c4.418 0 8-3.582 8-8s-3.582-8-8-8h-36.895c-4.418 0-8 3.582-8 8s3.582 8 8 8z"/><path d="m312.383 463.707c-4.418 0-8.013-3.582-8.013-8s3.569-8 7.987-8c4.54 0 8.025 3.667 8.025 8 .001 4.418-3.58 8-7.999 8z"/></svg>