<svg id="Layer_1" enable-background="new 0 0 512.02 512.02" height="512" viewBox="0 0 512.02 512.02" width="512" xmlns="http://www.w3.org/2000/svg"><path d="m229.855 180.961c-7.877-1.531-12.688 8.07-7.22 13.5 3.094 3.094 8.164 3.156 11.32 0 4.35-4.319 2.439-12.085-4.1-13.5z"/><path d="m299.306 184.372c-4.329-6.56-14.65-3.458-14.65 4.44 0 4.88 4.425 8.823 9.561 7.84 5.618-1.109 8.242-7.608 5.089-12.28z"/><path d="m101.535 250.429.411-65.123c.13-20.56-11.674-39.745-30.073-48.877l-5.177-2.57c-11.668-5.789-25.346 2.657-25.429 15.673l-1.258 199.118c-.071 11.28 8.991 20.479 20.274 20.55 11.631 0 20.463-9.277 20.533-20.291l.386-61.091c.028-4.514 2.194-8.83 5.792-11.545.661-.752 14.43-8.388 14.541-25.844zm-16-.101c-.055 8.744-7.384 12.319-8.178 13.173-7.551 5.699-12.095 14.752-12.155 24.216-.854 62.979.758 61.784-1.699 64.213-2.764 2.734-7.52.774-7.494-3.178l1.258-199.118c.007-1.173 1.224-1.984 2.315-1.443 5.943 2.951 5.127 2.471 5.177 2.571 12.963 6.434 21.279 19.953 21.187 34.443z"/><path d="m467.336 331.001c-4.018-1.838-8.765-.07-10.603 3.948l-4.015 8.778-35.395-16.232 4.845-10.593c1.836-4.015.072-8.759-3.94-10.599l-68.877-31.588c.801-1.997 1.537-4.019 2.202-6.063 19.856 4.717 38.823-10.428 38.823-30.716v-12.013c25.521-15.868 25.486-52.87 0-68.716v-29.546c4.77-1.602 9.539-3.392 14.29-5.427 2.91-1.247 4.812-4.092 4.849-7.258.013-1.002.132-24.845-13.981-50.793-12.99-23.883-40.915-54.145-100.181-62.693-54.931-7.921-88.996 17.673-102.897 31.387-11.037-12.586-25.8-17.012-40.692-8.851-15.421 8.454-27.516 24.706-31.565 42.413-3.871 16.925-.303 33.739 10.317 48.626.089.125.058-1.974.058 42.143-25.523 15.869-25.481 52.872 0 68.715v12.014c0 20.155 18.728 35.269 38.506 30.789 7.263 22.244 22.637 41.762 43.959 53.828v8.605c-22.153 5.236-32.467 10.946-78.363 28.232-28.412 10.992-47.5 38.867-47.5 69.363v75.266c0 4.418 3.582 8 8 8h330.242c4.418 0 8-3.582 8-8 0-14.744 0-58.949 0-75.266 0-30.496-19.089-58.371-47.501-69.363-55.615-21.516-60.792-24.048-78.004-28.149v-8.866c1.836-1.056 3.639-2.185 5.414-3.369l81.896 37.559c4.01 1.838 8.769.083 10.61-3.944l4.837-10.577 35.395 16.232-4.022 8.794c-1.838 4.018-.07 8.765 3.948 10.603 4.004 1.832 8.758.083 10.603-3.948l14.691-32.122c1.837-4.018.07-8.765-3.949-10.603zm-124.505-41.673-9.682 21.168c-16.621-7.657-17.443-7.505-16.796-8.92 9.181-19.657 8.56-19.827 9.777-19.809.434.009-.495-.289 16.701 7.561zm28.405-73.432v-48.662c12.029.962 22.279 11.232 22.279 24.331.001 13.365-10.554 23.393-22.279 24.331zm-8-64.752c-4.418 0-8 3.582-8 8v64.842c0 4.418 3.582 8 8 8 4.088-.057 7.159.176 11.14-.337v6.287c0 20.213-31.084 20.936-31.084 0v-100.373c10.657-1.017 21.058-2.769 31.084-5.235v19.153c-3.603-.465-6.116-.317-11.14-.337zm-192.724-114.732c7.016 2.084 12.59 10.074 14.131 12.948 2.753 5.241 10.04 5.757 13.523 1.025.312-.423 31.863-42.15 94.903-33.06 42.005 6.059 71.636 24.186 88.066 53.879 8.709 15.737 11.292 30.821 12.058 38.438-86.048 33.597-178.06-8.998-180.086-9.313-2.56-.396-5.034.466-6.751 2.104-19.765 18.843-44.404 18.029-63.369 2.549-24.022-34.958 10.907-73.511 27.525-68.57zm-20.8 130.822v48.662c-12.421-1.072-22.278-11.532-22.278-24.331 0-12.823 9.887-23.261 22.278-24.331zm-3.139 70.702v-6.287c3.963.521 7.964.281 11.139.337 4.416 0 8-3.579 8-8v-64.842c0-4.418-3.582-8-8-8-5.029 0-7.835-.098-11.14.337v-25.529c9.63 4.671 20.182 7.245 31.084 6.623-.03 111.128.079 105.421-.099 107.071-.852 7.776-7.441 13.864-15.443 13.864-8.569 0-15.541-6.986-15.541-15.574zm36.903 23.245c6.529-5.981 10.181-14.359 10.181-23.245v-108.686c7.219-2.639 13.893-6.752 19.752-11.666 14.644 5.99 60.013 22.416 113.883 20.949.015 105.157-.091 100.14.164 102.636.77 7.589 4.23 14.561 9.737 19.741-.686 2.411-1.486 4.791-2.398 7.129-.493-.133-6.955-4.058-14.637-1.203-8.173 3.039-9.997 10.243-10.64 11.216l-25.325-11.615c-4.017-1.843-8.766-.079-10.606 3.937-1.842 4.016-.079 8.765 3.937 10.606l25.341 11.622c-.11.825-4.548 6.849-1.622 15.139-44.729 26.834-103.197 3.871-117.767-46.56zm-80.302 197.32h36.982v37.519h-36.982zm314.242 37.519h-36.982v-37.519h36.982zm-37.274-121.707c22.295 8.626 37.274 30.504 37.274 54.441v13.747h-36.982v-12.137c0-4.418-3.582-8-8-8s-8 3.582-8 8v65.655h-208.277c0-17.428 0-51.644 0-65.655 0-4.418-3.582-8-8-8s-8 3.582-8 8v12.137h-36.982v-13.747c0-23.938 14.979-45.815 37.273-54.441 48.413-18.383 55.087-22.18 72.59-26.687v21.896c0 26.187 21.28 47.491 47.437 47.491 26.156 0 47.437-21.305 47.437-47.491v-21.806c13.539 3.517 16.535 5.051 72.23 26.597zm-88.231-44.621v39.831c0 17.364-14.103 31.491-31.437 31.491s-31.437-14.127-31.437-31.491c0-13.959 0-24.091 0-39.711 20.906 7.247 43.41 6.719 62.874-.12zm102.701 8.992-46.919-21.518 9.682-21.169 46.919 21.518z"/><path d="m235.697 158.756h-22.684c-4.418 0-8 3.582-8 8s3.582 8 8 8h22.684c4.418 0 8-3.582 8-8s-3.582-8-8-8z"/><path d="m284.894 174.756h22.684c4.418 0 8-3.582 8-8s-3.582-8-8-8h-22.684c-4.418 0-8 3.582-8 8s3.582 8 8 8z"/><path d="m258.735 430.961c-4.9.967-7.762 6.167-5.83 10.91 1.67 4.008 6.242 6.039 10.45 4.32 3.709-1.545 5.513-5.468 4.78-8.95-.891-4.518-5.291-7.117-9.4-6.28z"/><path d="m261.855 469.421c-4.873-.992-9.56 2.754-9.56 7.84 0 6.939 8.401 10.793 13.66 5.66 4.504-4.5 2.169-12.263-4.1-13.5z"/><path d="m262.708 52.776c1.183-.282 29.258-6.685 57.167 14.265 1.44 1.08 3.125 1.603 4.797 1.602 7.652 0 10.957-9.783 4.809-14.398-34.192-25.663-69.13-17.369-70.6-17.003-4.274 1.063-6.868 5.377-5.824 9.655 1.043 4.279 5.368 6.904 9.651 5.879z"/><path d="m348.519 86.22c4.54 0 8.013-3.668 8.013-8 0-4.418-3.595-8-8.013-8s-8 3.582-8 8 3.582 8 8 8z"/></svg>