<svg id="Layer_1" enable-background="new 0 0 512.14 512.14" height="512" viewBox="0 0 512.14 512.14" width="512" xmlns="http://www.w3.org/2000/svg"><path d="m492.868 443.544c-4.321-11.262-26.8-16.726-77.779-28.058-17.83-3.964-74.568-15.474-86.697-26.914-12.4-11.657-17.893-37.267-20.129-54.062 27.417-21.724 62.019-88.188 62.019-88.188 64.51-147.45 6.898-232.756-92.682-244.949-101.963-11.658-177.424 51.668-160.26 162.315 5.803 37.258 24.518 82.635 24.518 82.635 14.187 31.921 34.614 66.472 62.016 88.186-2.241 16.643-8.49 45.663-21.994 55.661-13.729 10.279-64.725 20.848-84.828 25.317-50.722 11.274-73.471 16.826-77.78 28.057-6.564 17.107-1.096 57.211-.451 61.728.563 3.941 3.938 6.869 7.92 6.869h458.658c3.981 0 7.356-2.928 7.92-6.869.645-4.518 6.113-44.621-.451-61.728zm-295.683-45.834c12.247-13.407 18.326-35.314 21.373-53.294 25.377 14.186 50.82 13.511 75.023.001 1.036 6.109 2.379 12.399 4.082 18.513-21.661 23.403-50.205 37.638-87.058 43.434-5.326-2.146-10.033-4.965-13.42-8.654zm-34.038-143.581 20.003 3.595c7.684 18.646 19.84 45.188 34.546 67.036-23.358-16.835-41.787-44.945-54.549-70.631zm116.603-236.344c-33.97 18.401-57.227 40.189-71.813 57.023-39.638 5.331-66.529 15.666-71.571 17.087 19.104-59.492 82.847-82.687 143.384-74.11zm14.694 306.975c14.707-21.848 26.862-48.389 34.547-67.036l20.002-3.595c-12.806 25.77-31.221 53.817-54.549 70.631zm-92.501-63.658c20.077 3.217 32.776 7.134 54.127 7.134 21.354 0 34.144-3.932 54.127-7.134-20.561 47.483-37.977 68.437-47.74 77.306-4.176.529-8.057.601-12.773 0-9.765-8.87-27.182-29.824-47.741-77.306zm-42.502-159.694c-10.601 19.065-19.569 37.866-26.829 56.245-2.883-20.545-2.265-32.08-.307-47.618 18.919-6.116 19.411-6.375 27.136-8.627zm-20.725 86.902c9.267-29.576 23.518-60.661 42.397-92.481 49.274-10.978 100.585-10.897 149.928.028 18.872 31.813 33.118 62.888 42.382 92.454-1.391 5.437-2.947 10.913-4.656 16.393-25.914-6.061-86.074-19.536-112.698-19.536-24.707 0-78.468 11.548-112.698 19.536-1.707-5.481-3.264-10.957-4.655-16.394zm237.057-96.415c-44.654-14.258-85.747-23.339-143.613-19.51 16.382-16.083 39.972-34.381 72.258-48.987 36.627 11.774 60.953 36.185 71.355 68.497zm-145.234 158.086c32.57-8.604 68.135-20.999 95.528-38.334 12.307 2.546 25.219 5.418 37.544 8.283-2.034 5.594-4.334 11.415-6.482 16.48-79.4 14.271-94.504 19.227-126.59 13.571zm-40.215-7.224c-.419-.105.256.045-35.314-6.348-2.206-5.211-4.468-10.941-6.483-16.481 51.395-11.957 90.321-18.762 107.543-18.762 9.373 0 25.186 2.02 45.928 5.784-43.232 22.215-109.656 36.168-111.674 35.807zm189.204-85.104c-7.26-18.376-16.229-37.181-26.83-56.245 9.275 2.706 13.291 4.193 27.331 8.69 1.905 12.457 2.33 27.383-.501 47.555zm-122.937 254.833c-.052-.003-4.544.125-6.201.131 20.541-7.588 38.338-18.586 53.227-32.912 2.921 6.472 6.549 12.718 11.334 18.005-11.799 12.81-41.202 15.87-58.36 14.776zm221.758 83.654h-444.559c-1.748-15.503-2.846-37.153.19-46.223 12.1-10.829 116.657-25.29 150.391-42.584 5.802 6.794 14.352 11.744 22.699 14.773 19.765 7.177 39.444 6.526 55.334 6.526 14.714 0 49.022-2.18 65.356-21.304 34.21 17.543 138.04 31.53 150.399 42.588 3.031 9.06 1.935 30.714.19 46.224z"/><path d="m236.443 150.202c-15.467 7.434-27.045 1.726-32.572-2.34-8.198-6.026-16.089-.53-17.512-.242-4.079 1.698-6.009 6.382-4.311 10.461 1.699 4.078 6.384 6.005 10.461 4.311l2.636-1.098c13.718 9.642 31.011 11.604 48.228 3.33 3.982-1.914 5.659-6.693 3.746-10.676-1.914-3.983-6.693-5.659-10.676-3.746z"/><path d="m268.767 164.624c17.259 8.293 34.547 6.285 48.228-3.33l2.636 1.098c4.078 1.694 8.762-.232 10.461-4.311 1.698-4.079-.231-8.763-4.311-10.461-1.163-.235-9.378-5.737-17.513.243-5.525 4.063-17.106 9.771-32.571 2.339-3.981-1.914-8.762-.237-10.676 3.746-1.913 3.982-.236 8.761 3.746 10.676z"/><path d="m277.078 296.236c0-4.418-3.582-8-8-8h-26.016c-4.418 0-8 3.582-8 8s3.582 8 8 8h26.016c4.418 0 8-3.582 8-8z"/></svg>